<?xml version="1.0" encoding="utf-8"?>
<!-- Generator: Adobe Illustrator 16.0.0, SVG Export Plug-In . SVG Version: 6.00 Build 0)  -->
<!DOCTYPE svg PUBLIC "-//W3C//DTD SVG 1.1//EN" "http://www.w3.org/Graphics/SVG/1.1/DTD/svg11.dtd">
<svg version="1.1" xmlns="http://www.w3.org/2000/svg" xmlns:xlink="http://www.w3.org/1999/xlink" x="0px" y="0px" width="800px"
	 height="533px" viewBox="0 0 800 533" enable-background="new 0 0 800 533" xml:space="preserve">
<g id="圖層_3">
	<rect fill="#FFFFFF" width="800" height="533"/>
</g>
<g id="圖層_2">
	<path fill="#ECF5E9" d="M-6.512-40.888C71.734-87.232,138.236,0.763,175.094,57.919c4.538,6.727,8.555,13.73,11.951,20.974
		c10.192,21.731,14.804,45.628,11.153,70.697c-5.628,22.736-23.833,40.088-44.394,49.759c-36.852,13.411-75.258,8.916-110.227-4.511
		c-6.994-2.688-13.849-5.736-20.527-9.083c-43.818-18.545-75.92-57.433-82.444-103.331C-63.56,44.207-49.948,6.416-22.987-24.244
		C-17.725-30.318-12.202-35.897-6.512-40.888z"/>
	<path fill="#F8EEF6" d="M209.843,440.874c-81.13-122.406,55.354-236.84,144.521-300.948c10.478-7.867,21.445-14.917,32.85-20.984
		c34.214-18.211,72.376-27.6,113.104-23.758c37.125,7.22,66.596,35.164,83.874,67.531c24.635,58.337,20.521,120.645,1.722,178.133
		c-3.766,11.499-8.121,22.805-12.973,33.848c-26.329,72.181-86.425,127.129-159.913,141.396c-61.295,9.838-123.353-9.029-175-50.007
		C227.803,458.094,218.355,449.641,209.843,440.874z"/>
	<path fill="#FCEDF4" d="M826.824,68.039c-40.249,78.875-140.785,41.097-200.873,13.262c-7.235-3.172-14.188-6.844-20.753-11.036
		c-19.702-12.573-35.938-29.834-45.988-52.363c-7.208-21.637-1.263-45.393,10.617-64.057c23.339-30.223,57.281-46.522,93.044-53.681
		c7.154-1.429,14.383-2.491,21.619-3.214c45.71-7.558,92.373,7.725,121.639,42.092c23.327,29.277,31.805,67.459,25.584,106.725
		C830.547,53.504,828.907,60.97,826.824,68.039z"/>
	<path fill="#EFF6FC" d="M771.79,283.652c-4.714,0.83-9.162,0.568-13.838,2.561c-2.242,0.618-4.449,1.346-6.609,2.182
		c-10.802,4.178-20.423,11.054-27.077,20.455c-1.056,1.389-2.046,2.809-2.96,4.289c-0.915,1.48-1.756,3.021-2.515,4.623
		c-0.91,1.922-1.701,3.931-2.364,6.029c-4.588,9.318-3.501,19.519-1.685,29.642c3.816,15.066,15.91,24.83,18.246,39.823
		c0.489,2.248,0.848,4.494,1.057,6.727c1.043,11.163-1.677,21.957-10.54,30.452c-2.027,1.94-4.383,3.762-7.176,5.441
		c-2.194,0.929-4.548,1.711-6.909,2.229c-26.857,0.549-59.536-1.862-78.179,23.705c-8.021,11.17-14.531,24.392-17.04,38.015
		c-0.417,2.271-0.725,4.552-0.913,6.845c-0.284,8.79,1.146,18.019,4.201,26.638c0.764,2.155,1.632,4.27,2.597,6.333
		c1.053,2.688,2.322,5.227,3.781,7.616c1.459,2.393,3.108,4.637,4.917,6.734c32.943,27.204,77.604,27.835,117.842,12.848
		c2.697-1.001,5.373-2.07,8.068-3.212c45.599-15.943,77.387-49.543,100.071-92.487c12.939-24.346,19.497-50.485,14.94-76.909
		c-0.413-2.401-0.919-4.806-1.521-7.211c-5.096-29.437-19.17-59.379-41.896-79.476c-2.066-1.827-4.202-3.573-6.412-5.23
		c-12.942-10.288-27.641-16.828-44.11-18.51C774.496,283.707,773.171,283.654,771.79,283.652z"/>
	<circle fill="#FEF4EF" cx="24.562" cy="470.223" r="107.995"/>
	<path fill="#FEF4EF" d="M244.788,44.559h-5.487v-5.487c0-1.114-0.907-2.021-2.021-2.021s-2.021,0.907-2.021,2.021v5.487h-5.486
		c-1.115,0-2.021,0.907-2.021,2.021s0.907,2.021,2.021,2.021h5.486v5.487c0,1.114,0.907,2.021,2.021,2.021s2.021-0.907,2.021-2.021
		v-5.487h5.487c1.115,0,2.021-0.907,2.021-2.021S245.903,44.559,244.788,44.559z"/>
	<path fill="#FFFFFF" d="M543.979,248.855h-5.486v-5.487c0-1.114-0.906-2.021-2.021-2.021c-1.113,0-2.021,0.907-2.021,2.021v5.487
		h-5.486c-1.114,0-2.021,0.907-2.021,2.021s0.907,2.021,2.021,2.021h5.486v5.487c0,1.114,0.907,2.021,2.021,2.021
		c1.115,0,2.021-0.907,2.021-2.021v-5.487h5.486c1.115,0,2.021-0.907,2.021-2.021S545.094,248.855,543.979,248.855z"/>
	<path fill="#ECF5E9" d="M656.758,147.225h-5.486v-5.487c0-1.114-0.906-2.021-2.021-2.021c-1.113,0-2.021,0.907-2.021,2.021v5.487
		h-5.486c-1.114,0-2.021,0.907-2.021,2.021s0.907,2.021,2.021,2.021h5.486v5.487c0,1.114,0.907,2.021,2.021,2.021
		c1.115,0,2.021-0.907,2.021-2.021v-5.487h5.486c1.115,0,2.021-0.907,2.021-2.021S657.873,147.225,656.758,147.225z"/>
	<path fill="#FFFEF3" d="M378.825,74.747h-5.486V69.26c0-1.114-0.906-2.021-2.021-2.021c-1.113,0-2.021,0.907-2.021,2.021v5.487
		h-5.486c-1.114,0-2.021,0.907-2.021,2.021s0.907,2.021,2.021,2.021h5.486v5.487c0,1.114,0.907,2.021,2.021,2.021
		c1.115,0,2.021-0.907,2.021-2.021v-5.487h5.486c1.115,0,2.021-0.907,2.021-2.021S379.94,74.747,378.825,74.747z"/>
	<path fill="#FEF4EF" d="M736.488,198.309h-5.486v-5.487c0-1.114-0.906-2.021-2.021-2.021c-1.113,0-2.021,0.907-2.021,2.021v5.487
		h-5.486c-1.114,0-2.021,0.907-2.021,2.021s0.907,2.021,2.021,2.021h5.486v5.487c0,1.114,0.907,2.021,2.021,2.021
		c1.115,0,2.021-0.907,2.021-2.021v-5.487h5.486c1.115,0,2.021-0.907,2.021-2.021S737.604,198.309,736.488,198.309z"/>
	<path fill="#ECF5E9" d="M347.376,153.654h-5.486v-5.487c0-1.114-0.906-2.021-2.021-2.021c-1.113,0-2.021,0.907-2.021,2.021v5.487
		h-5.486c-1.114,0-2.021,0.907-2.021,2.021s0.907,2.021,2.021,2.021h5.486v5.487c0,1.114,0.907,2.021,2.021,2.021
		c1.115,0,2.021-0.907,2.021-2.021v-5.487h5.486c1.115,0,2.021-0.907,2.021-2.021S348.491,153.654,347.376,153.654z"/>
	<path fill="#FCEDF4" d="M477.799,35.03h-5.486v-5.487c0-1.114-0.906-2.021-2.021-2.021c-1.113,0-2.021,0.907-2.021,2.021v5.487
		h-5.486c-1.114,0-2.021,0.907-2.021,2.021s0.907,2.021,2.021,2.021h5.486v5.487c0,1.114,0.907,2.021,2.021,2.021
		c1.115,0,2.021-0.907,2.021-2.021v-5.487h5.486c1.115,0,2.021-0.907,2.021-2.021S478.914,35.03,477.799,35.03z"/>
	<path fill="#FCEDF4" d="M620.76,418.334h-5.486v-5.486c0-1.115-0.906-2.021-2.021-2.021c-1.113,0-2.021,0.906-2.021,2.021v5.486
		h-5.486c-1.114,0-2.021,0.906-2.021,2.021c0,1.113,0.907,2.021,2.021,2.021h5.486v5.487c0,1.113,0.907,2.021,2.021,2.021
		c1.115,0,2.021-0.907,2.021-2.021v-5.487h5.486c1.115,0,2.021-0.907,2.021-2.021C622.781,419.24,621.875,418.334,620.76,418.334z"
		/>
	<path fill="#ECF5E9" d="M157.705,298.046h-5.486v-5.486c0-1.115-0.906-2.021-2.021-2.021c-1.113,0-2.021,0.906-2.021,2.021v5.486
		h-5.486c-1.114,0-2.021,0.906-2.021,2.021c0,1.113,0.907,2.021,2.021,2.021h5.486v5.487c0,1.113,0.907,2.021,2.021,2.021
		c1.115,0,2.021-0.907,2.021-2.021v-5.487h5.486c1.115,0,2.021-0.907,2.021-2.021C159.726,298.952,158.82,298.046,157.705,298.046z"
		/>
	<path fill="#EFF6FC" d="M133.233,379.945h-5.486v-5.486c0-1.115-0.906-2.021-2.021-2.021c-1.113,0-2.021,0.906-2.021,2.021v5.486
		h-5.486c-1.114,0-2.021,0.906-2.021,2.021c0,1.113,0.907,2.021,2.021,2.021h5.486v5.487c0,1.113,0.907,2.021,2.021,2.021
		c1.115,0,2.021-0.907,2.021-2.021v-5.487h5.486c1.115,0,2.021-0.907,2.021-2.021C135.255,380.852,134.349,379.945,133.233,379.945z
		"/>
	
		<circle fill="#FFFFFF" stroke="#3F3F3F" stroke-width="3" stroke-linecap="round" stroke-linejoin="round" stroke-miterlimit="10" cx="261.548" cy="46.58" r="5.647"/>
	
		<circle fill="#FFFFFF" stroke="#3F3F3F" stroke-width="3" stroke-linecap="round" stroke-linejoin="round" stroke-miterlimit="10" cx="526.942" cy="56.109" r="5.647"/>
	
		<circle fill="#FFFFFF" stroke="#3F3F3F" stroke-width="3" stroke-linecap="round" stroke-linejoin="round" stroke-miterlimit="10" cx="168.168" cy="402.631" r="5.647"/>
	
		<circle fill="#FFFFFF" stroke="#3F3F3F" stroke-width="3" stroke-linecap="round" stroke-linejoin="round" stroke-miterlimit="10" cx="627.819" cy="350.179" r="5.647"/>
</g>
<g id="圖層_1">
	
		<circle fill="#FFFFFF" stroke="#3F3F3F" stroke-width="3" stroke-linecap="round" stroke-linejoin="round" stroke-miterlimit="10" cx="398.058" cy="140.17" r="6.539"/>
	
		<line fill="none" stroke="#3F3F3F" stroke-width="3" stroke-linecap="round" stroke-linejoin="round" stroke-miterlimit="10" x1="177" y1="461.586" x2="546" y2="461.586"/>
	
		<line fill="none" stroke="#3F3F3F" stroke-width="3" stroke-linecap="round" stroke-linejoin="round" stroke-miterlimit="10" x1="596.412" y1="461.586" x2="719.452" y2="461.586"/>
	
		<line fill="none" stroke="#3F3F3F" stroke-width="3" stroke-linecap="round" stroke-linejoin="round" stroke-miterlimit="10" x1="556.079" y1="461.586" x2="584.667" y2="461.586"/>
	
		<line fill="none" stroke="#3F3F3F" stroke-width="3" stroke-linecap="round" stroke-linejoin="round" stroke-miterlimit="10" x1="88" y1="461.586" x2="163.452" y2="461.586"/>
	
		<path fill="#FFFFFF" stroke="#3F3F3F" stroke-width="3" stroke-linecap="round" stroke-linejoin="round" stroke-miterlimit="10" d="
		M480.683,279.194c0,56.759-35.788,102.772-79.936,102.772s-79.937-46.014-79.937-102.772c0-56.759,21.235-102.772,79.937-102.772
		C462.506,176.422,480.683,222.435,480.683,279.194z"/>
	
		<path fill="#FFFFFF" stroke="#3F3F3F" stroke-width="3" stroke-linecap="round" stroke-linejoin="round" stroke-miterlimit="10" d="
		M460.099,375.684c0,37.314-22.084,67.564-59.186,67.564c-37.103,0-58.045-30.25-58.045-67.564
		c0-37.313,25.904-67.563,58.045-67.563C431.246,308.121,460.099,338.371,460.099,375.684z"/>
	
		<path fill="#FFFFFF" stroke="#3F3F3F" stroke-width="3" stroke-linecap="round" stroke-linejoin="round" stroke-miterlimit="10" d="
		M451.233,237.308c0,25.443-11.878,49.915-41.796,53.569v14.994c0,4.396-3.563,7.959-7.948,7.959c-4.397,0-7.96-3.563-7.96-7.959
		v-14.982c-30.193-3.631-41.795-28.115-41.795-53.581H451.233z"/>
	<g>
		<path fill="#FFFFFF" d="M404.58,269.881c-0.486,1.545-1.385,3.569-3.094,3.569c-1.708,0-2.777-2.282-3.095-3.569"/>
		<path fill="#3F3F3F" d="M404.58,269.881c0,0,0.028,0.177,0.048,0.475c0.017,0.289,0.012,0.736-0.108,1.241
			c-0.048,0.257-0.121,0.536-0.252,0.821c-0.102,0.293-0.305,0.585-0.512,0.886c-0.111,0.149-0.271,0.282-0.416,0.423
			c-0.137,0.148-0.321,0.265-0.528,0.363c-0.382,0.25-0.861,0.302-1.325,0.358l-0.318-0.027c-0.051,0-0.223-0.035-0.352-0.067
			c-0.295-0.062-0.467-0.17-0.676-0.268c-0.383-0.221-0.679-0.504-0.913-0.789c-0.455-0.578-0.68-1.172-0.794-1.687
			c-0.125-0.509-0.129-0.949-0.11-1.253c0.021-0.304,0.068-0.477,0.068-0.477s0.425,0.486,1.063,1.215
			c0.313,0.326,0.665,0.689,1.033,0.961c0.185,0.133,0.37,0.234,0.535,0.307c0.076,0.021,0.186,0.059,0.2,0.055
			c0.024,0.003,0.003,0.021,0.109,0.022l0.118,0.007l0.059,0.004l0.029,0.002l0.016,0.002h0.007h0.004
			c-0.036-0.002,0.085,0.004-0.079-0.003c0.156-0.046,0.322-0.014,0.479-0.103c0.169-0.022,0.333-0.18,0.519-0.274
			c0.166-0.157,0.363-0.278,0.521-0.467c0.171-0.165,0.34-0.337,0.486-0.511c0.315-0.36,0.578-0.66,0.762-0.869
			C404.449,270.004,404.58,269.881,404.58,269.881z"/>
	</g>
	<g>
		<g>
			<path fill="#FFFFFF" d="M385.431,250.876c-0.974,1.544-2.769,3.568-6.188,3.568c-3.418,0-5.553-2.282-6.189-3.568"/>
			<path fill="#3F3F3F" d="M385.431,250.876c0,0-0.036,0.259-0.143,0.681c-0.12,0.423-0.377,1.034-0.818,1.692
				c-0.255,0.296-0.513,0.663-0.877,0.954c-0.355,0.306-0.756,0.611-1.23,0.829c-0.454,0.272-0.974,0.402-1.502,0.551
				c-0.265,0.087-0.532,0.093-0.803,0.125l-0.407,0.036l-0.205,0.017l-0.102,0.008l-0.051,0.004l-0.025,0.002l-0.013,0.001l-0.006,0
				l-0.117-0.004c-0.484-0.061-0.889-0.055-1.431-0.188c-0.56-0.159-1.154-0.305-1.578-0.575c-0.225-0.125-0.448-0.241-0.655-0.37
				c-0.196-0.149-0.385-0.296-0.561-0.447c-0.367-0.279-0.636-0.633-0.888-0.934c-0.477-0.636-0.728-1.25-0.853-1.682
				c-0.105-0.451-0.113-0.701-0.113-0.701s0.2,0.146,0.549,0.401c0.172,0.109,0.38,0.242,0.62,0.395
				c0.256,0.125,0.509,0.288,0.807,0.422c0.304,0.127,0.593,0.299,0.94,0.4c0.163,0.062,0.33,0.125,0.5,0.189
				c0.181,0.036,0.355,0.089,0.534,0.135c0.363,0.136,0.683,0.106,1.007,0.2c0.358,0.054,0.899,0.056,1.343,0.097
				c-0.22-0.009-0.058-0.002-0.106-0.005h0.004l0.009,0l0.018-0.001l0.036-0.002l0.073-0.005l0.146-0.009l0.291-0.017
				c0.19-0.023,0.396,0.018,0.575-0.035c0.364-0.077,0.75-0.081,1.089-0.201c0.359-0.071,0.691-0.193,1.017-0.318
				c0.336-0.105,0.62-0.29,0.927-0.411c0.27-0.17,0.561-0.304,0.793-0.451c0.242-0.154,0.453-0.289,0.627-0.399
				C385.203,251.004,385.431,250.876,385.431,250.876z"/>
		</g>
		<g>
			<path fill="#FFFFFF" d="M429.774,250.876c-0.974,1.544-2.77,3.568-6.188,3.568c-3.418,0-5.553-2.282-6.189-3.568"/>
			<path fill="#3F3F3F" d="M429.774,250.876c0,0-0.035,0.259-0.143,0.681c-0.119,0.423-0.378,1.034-0.818,1.692
				c-0.255,0.296-0.513,0.663-0.877,0.954c-0.355,0.306-0.756,0.611-1.23,0.829c-0.454,0.272-0.974,0.402-1.501,0.551
				c-0.266,0.087-0.533,0.093-0.805,0.125l-0.406,0.036l-0.205,0.017l-0.102,0.008l-0.051,0.004l-0.026,0.002l-0.013,0.001l-0.006,0
				l-0.117-0.004c-0.484-0.061-0.889-0.055-1.432-0.188c-0.56-0.159-1.154-0.306-1.577-0.575c-0.226-0.125-0.448-0.241-0.655-0.37
				c-0.197-0.149-0.385-0.297-0.561-0.447c-0.367-0.279-0.637-0.633-0.889-0.933c-0.477-0.636-0.728-1.25-0.852-1.683
				c-0.105-0.451-0.113-0.701-0.113-0.701s0.199,0.146,0.549,0.401c0.172,0.109,0.381,0.242,0.619,0.395
				c0.257,0.125,0.51,0.288,0.808,0.422c0.304,0.127,0.594,0.299,0.94,0.4c0.162,0.062,0.329,0.125,0.5,0.189
				c0.181,0.036,0.355,0.089,0.533,0.135c0.363,0.136,0.684,0.106,1.007,0.2c0.358,0.054,0.899,0.056,1.343,0.097
				c-0.219-0.009-0.058-0.002-0.105-0.005h0.004l0.01,0l0.018-0.001l0.037-0.002l0.072-0.005l0.146-0.009l0.291-0.017
				c0.189-0.023,0.396,0.018,0.574-0.035c0.364-0.077,0.75-0.081,1.088-0.201c0.36-0.071,0.691-0.194,1.018-0.318
				c0.336-0.105,0.619-0.29,0.927-0.411c0.27-0.17,0.562-0.304,0.793-0.451c0.242-0.154,0.453-0.289,0.627-0.399
				C429.547,251.004,429.774,250.876,429.774,250.876z"/>
		</g>
		<g>
			<line fill="#FFFFFF" x1="375.105" y1="253.103" x2="373.053" y2="255.785"/>
			<path fill="#3F3F3F" d="M375.639,253.511l-2.585,2.274l1.518-3.09c0.167-0.339,0.577-0.479,0.917-0.313
				c0.339,0.167,0.479,0.577,0.313,0.917C375.761,253.381,375.703,253.454,375.639,253.511z"/>
		</g>
		<g>
			<line fill="#FFFFFF" x1="377.157" y1="254.444" x2="375.105" y2="257.126"/>
			<path fill="#3F3F3F" d="M377.691,254.852l-2.586,2.274l1.519-3.09c0.167-0.339,0.578-0.479,0.917-0.313
				c0.339,0.167,0.479,0.577,0.313,0.917C377.813,254.722,377.755,254.795,377.691,254.852z"/>
		</g>
		<g>
			<line fill="#FFFFFF" x1="427.56" y1="253.796" x2="429.611" y2="256.479"/>
			<path fill="#3F3F3F" d="M428.093,253.388l1.519,3.09l-2.585-2.274c-0.284-0.25-0.313-0.683-0.063-0.967s0.683-0.312,0.967-0.062
				C428,253.236,428.055,253.311,428.093,253.388z"/>
		</g>
		<g>
			<line fill="#FFFFFF" x1="425.508" y1="255.138" x2="427.56" y2="257.819"/>
			<path fill="#3F3F3F" d="M426.041,254.729l1.519,3.09l-2.586-2.273c-0.284-0.25-0.312-0.683-0.062-0.967
				c0.25-0.284,0.682-0.312,0.967-0.062C425.947,254.578,426.002,254.652,426.041,254.729z"/>
		</g>
	</g>
	
		<path fill="#FFFFFF" stroke="#3F3F3F" stroke-width="3" stroke-linecap="round" stroke-linejoin="round" stroke-miterlimit="10" d="
		M396.702,316.621l2.483-2.764c-3.362-0.828-5.877-3.785-6.037-7.363c-7.611,0.814-14.839,2.91-21.474,6.064l5.675,5.1
		C382.979,322.715,391.645,322.252,396.702,316.621z"/>
	
		<path fill="#FFFFFF" stroke="#3F3F3F" stroke-width="3" stroke-linecap="round" stroke-linejoin="round" stroke-miterlimit="10" d="
		M406.219,316.621l-2.483-2.764c3.362-0.828,5.877-3.785,6.036-7.363c7.611,0.814,14.84,2.91,21.475,6.064l-5.676,5.1
		C419.941,322.715,411.276,322.252,406.219,316.621z"/>
	
		<circle fill="#FFFFFF" stroke="#3F3F3F" stroke-width="2" stroke-linecap="round" stroke-linejoin="round" stroke-miterlimit="10" cx="401.483" cy="334.191" r="3.426"/>
	
		<circle fill="#FFFFFF" stroke="#3F3F3F" stroke-width="2" stroke-linecap="round" stroke-linejoin="round" stroke-miterlimit="10" cx="401.483" cy="346.754" r="3.426"/>
	<path fill="none" stroke="#3F3F3F" stroke-width="3" stroke-linecap="round" stroke-linejoin="round" stroke-miterlimit="10" d="
		M371.318,335.295c-8.111,10.479-13.434,23.93-14.64,38.785"/>
	<path fill="none" stroke="#3F3F3F" stroke-width="3" stroke-linecap="round" stroke-linejoin="round" stroke-miterlimit="10" d="
		M431.246,335.295c8.11,10.479,13.435,23.93,14.641,38.785"/>
	
		<path fill="#FFFFFF" stroke="#3F3F3F" stroke-width="3" stroke-linecap="round" stroke-linejoin="round" stroke-miterlimit="10" d="
		M492.08,457.919c0,6.37-6.134,11.534-13.703,11.534H324.594c-7.568,0-13.704-5.164-13.704-11.534l-6.852-81.061
		c0-6.369,6.136-11.534,13.704-11.534h167.486c7.57,0,13.703,5.165,13.703,11.534L492.08,457.919z"/>
	
		<path fill="#FFFFFF" stroke="#3F3F3F" stroke-width="3" stroke-linecap="round" stroke-linejoin="round" stroke-miterlimit="10" d="
		M486.107,469.453H317.1c-2.051,0-3.712,1.721-3.712,3.846c0,2.123,1.662,3.844,3.712,3.844h169.008c2.05,0,3.711-1.721,3.711-3.844
		C489.818,471.174,488.157,469.453,486.107,469.453z"/>
	<g>
		
			<circle fill="#FFFFFF" stroke="#3F3F3F" stroke-width="3" stroke-linecap="round" stroke-linejoin="round" stroke-miterlimit="10" cx="225.04" cy="455.174" r="15.05"/>
		
			<circle fill="#FFFFFF" stroke="#3F3F3F" stroke-width="3" stroke-linecap="round" stroke-linejoin="round" stroke-miterlimit="10" cx="225.039" cy="455.174" r="6.413"/>
	</g>
	
		<path fill="#FFFFFF" stroke="#3F3F3F" stroke-width="3" stroke-linecap="round" stroke-linejoin="round" stroke-miterlimit="10" d="
		M225.04,438.992v38.15h45.78v-38.15c0-4.883-3.958-8.844-8.844-8.844h-28.094C228.998,430.148,225.04,434.109,225.04,438.992z"/>
	
		<path fill="#FFFFFF" stroke="#3F3F3F" stroke-width="3" stroke-linecap="round" stroke-linejoin="round" stroke-miterlimit="10" d="
		M247.536,396.783c-6.778,13.078,7.615,10.654,0.414,22.236"/>
	
		<path fill="#FFFFFF" stroke="#3F3F3F" stroke-width="3" stroke-linecap="round" stroke-linejoin="round" stroke-miterlimit="10" d="
		M238.096,402.631c-3.249,6.6,4.528,10.275,0.656,16.389"/>
	
		<path fill="#FFFFFF" stroke="#3F3F3F" stroke-width="3" stroke-linecap="round" stroke-linejoin="round" stroke-miterlimit="10" d="
		M257.211,402.631c-3.25,6.6,4.751,8.195,0.656,16.389"/>
	<g>
		
			<circle fill="#FFFFFF" stroke="#3F3F3F" stroke-width="3" stroke-linecap="round" stroke-linejoin="round" stroke-miterlimit="10" cx="88.774" cy="402.935" r="4.02"/>
		
			<circle fill="#FFFFFF" stroke="#3F3F3F" stroke-width="3" stroke-linecap="round" stroke-linejoin="round" stroke-miterlimit="10" cx="65.324" cy="383.592" r="8.706"/>
		
			<circle fill="#FFFFFF" stroke="#3F3F3F" stroke-width="3" stroke-linecap="round" stroke-linejoin="round" stroke-miterlimit="10" cx="90.401" cy="362.626" r="5.647"/>
		
			<line fill="#FFFFFF" stroke="#3F3F3F" stroke-width="3" stroke-linecap="round" stroke-linejoin="round" stroke-miterlimit="10" x1="71.364" y1="377.323" x2="85.212" y2="366.132"/>
		
			<line fill="#FFFFFF" stroke="#3F3F3F" stroke-width="3" stroke-linecap="round" stroke-linejoin="round" stroke-miterlimit="10" x1="71.608" y1="389.617" x2="85.008" y2="401.529"/>
	</g>
	<g>
		
			<circle fill="#FFFFFF" stroke="#3F3F3F" stroke-width="3" stroke-linecap="round" stroke-linejoin="round" stroke-miterlimit="10" cx="653.27" cy="79.985" r="4.02"/>
		
			<circle fill="#FFFFFF" stroke="#3F3F3F" stroke-width="3" stroke-linecap="round" stroke-linejoin="round" stroke-miterlimit="10" cx="677.096" cy="71.833" r="8.706"/>
		
			<circle fill="#FFFFFF" stroke="#3F3F3F" stroke-width="3" stroke-linecap="round" stroke-linejoin="round" stroke-miterlimit="10" cx="679.928" cy="104.396" r="5.647"/>
		
			<line fill="#FFFFFF" stroke="#3F3F3F" stroke-width="3" stroke-linecap="round" stroke-linejoin="round" stroke-miterlimit="10" x1="678.776" y1="80.375" x2="680.024" y2="98.135"/>
		
			<line fill="#FFFFFF" stroke="#3F3F3F" stroke-width="3" stroke-linecap="round" stroke-linejoin="round" stroke-miterlimit="10" x1="668.558" y1="73.536" x2="656.579" y2="77.702"/>
	</g>
	<g>
		
			<path fill="#FFFFFF" stroke="#3F3F3F" stroke-width="3" stroke-linecap="round" stroke-linejoin="round" stroke-miterlimit="10" d="
			M253.814,321.112l-51.877-7.3c-5.545-0.781-10.673,3.082-11.454,8.627l-1.467,10.428c-0.78,5.545,3.082,10.674,8.627,11.454
			l36.006,5.066c2.354,4.433,7.397,10.933,15.203,12.135c0,0-3.109-5.982-2.003-10.277l2.672,0.376
			c5.545,0.78,10.673-3.082,11.454-8.628l1.467-10.427C263.222,327.021,259.359,321.893,253.814,321.112z"/>
		<circle fill="#3F3F3F" cx="207.617" cy="330.168" r="3.397"/>
		<circle fill="#3F3F3F" cx="225.032" cy="332.619" r="3.397"/>
		<circle fill="#3F3F3F" cx="242.447" cy="335.069" r="3.397"/>
	</g>
	<g>
		
			<path fill="#FFFFFF" stroke="#3F3F3F" stroke-width="3" stroke-linecap="round" stroke-linejoin="round" stroke-miterlimit="10" d="
			M148.932,128.008c-0.332,4.412-4.178,7.72-8.591,7.388l-59.329-4.467c-4.412-0.332-7.72-4.179-7.388-8.591l2.712-36.012
			c0.332-4.412,4.179-7.72,8.591-7.388l59.329,4.468c4.412,0.333,7.719,4.178,7.387,8.591L148.932,128.008z"/>
		
			<line fill="none" stroke="#3F3F3F" stroke-width="3" stroke-linecap="round" stroke-linejoin="round" stroke-miterlimit="10" x1="83.793" y1="85.517" x2="112.586" y2="107.812"/>
		
			<line fill="none" stroke="#3F3F3F" stroke-width="3" stroke-linecap="round" stroke-linejoin="round" stroke-miterlimit="10" x1="144.392" y1="90.081" x2="112.586" y2="107.812"/>
		
			<line fill="none" stroke="#3F3F3F" stroke-width="3" stroke-linecap="round" stroke-linejoin="round" stroke-miterlimit="10" x1="107.431" y1="104.611" x2="80.816" y2="125.051"/>
		
			<line fill="none" stroke="#3F3F3F" stroke-width="3" stroke-linecap="round" stroke-linejoin="round" stroke-miterlimit="10" x1="117.566" y1="105.375" x2="141.414" y2="129.614"/>
	</g>
	<path fill="#FFFEF3" d="M694.091,281.954h-5.486v-5.487c0-1.113-0.906-2.021-2.021-2.021c-1.113,0-2.021,0.907-2.021,2.021v5.487
		h-5.486c-1.114,0-2.021,0.907-2.021,2.021c0,1.115,0.907,2.021,2.021,2.021h5.486v5.486c0,1.115,0.907,2.021,2.021,2.021
		c1.115,0,2.021-0.906,2.021-2.021v-5.486h5.486c1.115,0,2.021-0.906,2.021-2.021C696.112,282.861,695.206,281.954,694.091,281.954z
		"/>
	<path fill="#FFFEF3" d="M239.842,188.78h-5.486v-5.487c0-1.114-0.906-2.021-2.021-2.021c-1.113,0-2.021,0.907-2.021,2.021v5.487
		h-5.486c-1.114,0-2.021,0.907-2.021,2.021s0.907,2.021,2.021,2.021h5.486v5.487c0,1.114,0.907,2.021,2.021,2.021
		c1.115,0,2.021-0.907,2.021-2.021v-5.487h5.486c1.115,0,2.021-0.907,2.021-2.021S240.958,188.78,239.842,188.78z"/>
	<path fill="#FEF4EF" d="M41.598,248.855h-5.486v-5.486c0-1.115-0.906-2.021-2.021-2.021c-1.113,0-2.021,0.906-2.021,2.021v5.486
		h-5.486c-1.114,0-2.021,0.906-2.021,2.021c0,1.113,0.907,2.021,2.021,2.021h5.486v5.487c0,1.113,0.907,2.021,2.021,2.021
		c1.115,0,2.021-0.907,2.021-2.021v-5.487h5.486c1.115,0,2.021-0.907,2.021-2.021C43.62,249.761,42.713,248.855,41.598,248.855z"/>
	<path fill="#FFFEF3" d="M684.563,344.732h-5.486v-5.487c0-1.114-0.906-2.021-2.021-2.021c-1.113,0-2.021,0.906-2.021,2.021v5.487
		h-5.486c-1.114,0-2.021,0.906-2.021,2.021s0.907,2.021,2.021,2.021h5.486v5.487c0,1.114,0.907,2.021,2.021,2.021
		c1.115,0,2.021-0.906,2.021-2.021v-5.487h5.486c1.115,0,2.021-0.906,2.021-2.021S685.678,344.732,684.563,344.732z"/>
	<path fill="#ECF5E9" d="M79.584,408.806h-5.486v-5.487c0-1.114-0.906-2.021-2.021-2.021c-1.113,0-2.021,0.906-2.021,2.021v5.487
		h-5.486c-1.114,0-2.021,0.906-2.021,2.021s0.907,2.021,2.021,2.021h5.486v5.487c0,1.114,0.907,2.021,2.021,2.021
		c1.115,0,2.021-0.906,2.021-2.021v-5.487h5.486c1.115,0,2.021-0.906,2.021-2.021S80.699,408.806,79.584,408.806z"/>
	<g>
		
			<path fill="#FFFFFF" stroke="#3F3F3F" stroke-width="3" stroke-linecap="round" stroke-linejoin="round" stroke-miterlimit="10" d="
			M701.763,417.534c0.178-0.702,0.393-1.382,0.641-2.038c1.243-3.279,3.325-5.994,5.703-8.367c0.714-0.711,1.454-1.392,2.206-2.047
			c0.76-0.587,1.54-1.205,2.313-1.857c0.771-0.652,1.536-1.339,2.266-2.062c4.958-4.269,7.447-11.737,3.713-17.649
			c-2.8-4.357-8.401-7.469-13.069-4.669c-2.646,1.401-4.357,3.501-5.655,5.933c-0.432,0.809-0.818,1.656-1.179,2.527
			c-0.261,1.027-0.583,2.022-0.952,2.991c-0.368,0.97-0.785,1.913-1.232,2.846c-3.118,6.864-9.031,12.776-8.356,20.837
			c-0.006,0.839,0.024,1.682,0.089,2.523c0.131,1.684,0.402,3.37,0.822,5.041c-0.064,0.701-0.205,1.396-0.449,2.085
			c-0.972,2.917-3.889,4.618-5.385,7.458c-0.421,0.634-0.844,1.258-1.285,1.869c-0.885,1.224-1.843,2.404-2.857,3.553
			c-0.818,1.013-1.605,2.048-2.308,3.116c-2.11,3.204-3.479,6.697-2.829,10.688c0.195,1.228,0.57,2.425,1.143,3.537
			c0.57,1.114,1.342,2.144,2.332,3.035c1.475,1.368,3.463,2.133,5.279,2.142c1.816,0.01,3.461-0.739,4.25-2.4
			c1.094-2.415,2.269-4.804,3.439-7.192c0.391-0.797,0.781-1.594,1.167-2.392c3.698-6.892,4.631-14.672,8.271-21.54
			c0.28-0.802,0.534-1.607,0.756-2.424c0.224-0.818,0.415-1.646,0.565-2.492L701.763,417.534z"/>
		
			<path fill="#FFFFFF" stroke="#3F3F3F" stroke-width="3" stroke-linecap="round" stroke-linejoin="round" stroke-miterlimit="10" d="
			M677.035,443.335c-0.256-0.811-0.473-1.621-0.614-2.435c-0.017-0.997-0.088-1.97-0.225-2.887c-0.213-0.976-0.44-2.013-0.802-2.952
			c-0.565-0.772-1.142-1.554-1.71-2.349c-0.567-0.796-1.128-1.606-1.663-2.435c-4.31-5.697-4.689-12.345-4.498-19.077
			c0.032-1.121,0.079-2.246,0.128-3.367c-0.013-4.166,0.61-8.522-0.634-12.568c-0.313-0.934-0.744-1.824-1.27-2.648
			c-3.71-6.375-12.734-6.997-17.933-2.355c-0.78,0.602-1.509,1.265-2.17,1.978c-3.31,3.571-4.963,8.434-3.212,13.297
			c1.555,4.044,5.602,5.602,9.336,7.157c1.244,0.622,2.489,1.556,3.264,2.727c0.727,0.725,1.35,1.511,1.818,2.357
			c0.934,1.692,1.244,3.629,0.519,5.807c-1.866,5.602,0,11.203,4.091,15.299c0.498,0.688,0.977,1.394,1.41,2.116
			c1.301,2.166,2.188,4.476,2.098,7.072c0.158,0.789,0.34,1.572,0.561,2.34c0.441,1.534,1.037,3.013,1.91,4.385
			c0.457,0.729,0.98,1.416,1.584,2.049s1.289,1.211,2.07,1.723c1.993,1.199,4.248,0.573,5.803-0.731
			c0.389-0.326,0.78-0.7,1.142-1.112c0.36-0.411,0.69-0.864,0.956-1.348C680.581,451.397,678.318,447.382,677.035,443.335z"/>
		
			<path fill="#FFFFFF" stroke="#3F3F3F" stroke-width="3" stroke-linecap="round" stroke-linejoin="round" stroke-miterlimit="10" d="
			M690.258,410.96c-0.256-0.669-0.547-1.336-0.876-2.002c-2.791-3.811-3.873-7.788-3.87-11.831l0.191-3.004
			c0.424-3.451,1.517-6.935,2.904-10.385c0.277-0.691,0.566-1.38,0.865-2.067c1.816-7.255,2.128-15.968-4.719-20.947
			c-4.667-3.422-12.135-2.8-14.625,3.113c-1.244,3.733-0.623,7.779,0.076,11.487c0.156,0.97,0.297,1.94,0.379,2.91
			c0.082,0.969,0.105,1.937,0.031,2.9c-0.082,1.064-0.219,2.114-0.402,3.16c-0.14,0.784-0.305,1.566-0.49,2.353
			c-1.771,6.44-5.195,13.598-2.12,20.439c0.376,0.816,0.757,1.632,1.118,2.454c1.443,3.29,2.549,6.679,1.719,10.62
			c-0.934,3.111-1.866,5.913-1.658,8.924c0.021,1.005,0.098,2.01,0.22,3.013c0.488,4.008,1.716,7.974,3.235,11.703
			c0.324,1.014,0.947,1.918,1.567,2.794c1.243,1.75,2.927,3.211,5.271,4.229c0.604,0.331,1.229,0.624,1.874,0.871
			c0.871,0.05,1.756-0.033,2.642-0.249c0.688-0.315,1.418-0.559,1.418-0.801c0.243-1.764,0.455-3.511,0.695-5.241
			c0.119-0.863,0.247-1.724,0.388-2.58c0.144-1.004,0.339-1.995,0.568-2.976s0.495-1.95,0.78-2.914
			c1.361-4.637,3.229-9.305,4.053-14.31c0.133-0.973,0.215-1.955,0.23-2.949c0.027-0.896,0.004-1.789-0.074-2.684
			C691.476,414.983,691.025,412.967,690.258,410.96z"/>
		<path fill="none" stroke="#3F3F3F" stroke-width="2" stroke-linecap="round" stroke-linejoin="round" stroke-miterlimit="10" d="
			M679.051,451.709c0,0-2.186-11.156-0.924-18.313s4.761-11.085,4.761-14.82c0-7.624-6.528-12.565-6.535-19.108
			c-0.011-9.491,7.313-18.67,3.263-29.873"/>
		<path fill="none" stroke="#3F3F3F" stroke-width="2" stroke-linecap="round" stroke-linejoin="round" stroke-miterlimit="10" d="
			M676.353,447.467c0,0-11.825-6.987-13.069-18.747c-0.5-4.717,1.4-15.093-2.652-21.317c-3.914-6.015-8.395-7.779-8.395-7.779"/>
		<path fill="none" stroke="#3F3F3F" stroke-width="2" stroke-linecap="round" stroke-linejoin="round" stroke-miterlimit="10" d="
			M679.538,444.85c0,0,12.435-19.397,14.656-26.448c2.099-6.66,4.46-13.229,7.469-17.664c3.313-4.889,7.053-5.886,9.646-12.213"/>
		
			<polygon fill="#FFFFFF" stroke="#3F3F3F" stroke-width="3" stroke-linecap="round" stroke-linejoin="round" stroke-miterlimit="10" points="
			692.434,476.139 664.035,476.139 660.265,442.256 696.765,442.256 		"/>
	</g>
	
		<path fill="#FFFFFF" stroke="#3F3F3F" stroke-width="3" stroke-linecap="round" stroke-linejoin="round" stroke-miterlimit="10" d="
		M85.874,264.605l-2.018-1.108c0.121-0.704,0.198-1.424,0.198-2.162c0-0.999-0.128-1.967-0.347-2.9l1.946-1.227
		c0.842-0.53,1.094-1.643,0.564-2.484l-2.474-3.928c-0.53-0.842-1.643-1.095-2.485-0.564l-1.942,1.224
		c-1.132-0.913-2.425-1.628-3.829-2.11v-2.299c0-0.996-0.807-1.803-1.802-1.803h-4.643c-0.995,0-1.802,0.807-1.802,1.803v2.299
		c-1.645,0.566-3.133,1.46-4.394,2.604l-2.02-1.11c-0.873-0.479-1.968-0.16-2.447,0.711l-2.236,4.068
		c-0.479,0.872-0.161,1.968,0.711,2.447l2.017,1.109c-0.121,0.703-0.197,1.422-0.197,2.16c0,1.001,0.128,1.97,0.347,2.903
		l-1.946,1.226c-0.842,0.53-1.095,1.642-0.564,2.484l2.475,3.93c0.53,0.84,1.643,1.094,2.484,0.564l1.943-1.225
		c1.131,0.912,2.425,1.625,3.828,2.107v2.301c0,0.996,0.807,1.803,1.802,1.803h4.643c0.995,0,1.802-0.807,1.802-1.803v-2.301
		c1.645-0.564,3.133-1.459,4.394-2.604l2.02,1.111c0.873,0.479,1.968,0.16,2.447-0.713l2.236-4.068
		C87.064,266.18,86.746,265.084,85.874,264.605z M71.364,266.983c-3.119,0-5.648-2.528-5.648-5.648c0-3.119,2.529-5.647,5.648-5.647
		c3.12,0,5.648,2.528,5.648,5.647C77.013,264.455,74.484,266.983,71.364,266.983z"/>
	
		<path fill="#FFFFFF" stroke="#3F3F3F" stroke-width="3" stroke-linecap="round" stroke-linejoin="round" stroke-miterlimit="10" d="
		M577.366,419.971l-2.931-1.611c0.176-1.021,0.287-2.066,0.287-3.14c0-1.452-0.186-2.858-0.504-4.214l2.828-1.781
		c1.223-0.771,1.59-2.387,0.818-3.609l-3.594-5.707c-0.771-1.223-2.387-1.59-3.609-0.82l-2.822,1.777
		c-1.645-1.324-3.523-2.363-5.563-3.064v-3.342c0-1.445-1.172-2.617-2.617-2.617h-6.744c-1.446,0-2.618,1.172-2.618,2.617v3.342
		c-2.39,0.822-4.552,2.12-6.384,3.783l-2.934-1.613c-1.268-0.696-2.859-0.233-3.555,1.033l-3.25,5.911
		c-0.695,1.267-0.232,2.858,1.033,3.554l2.931,1.611c-0.176,1.022-0.286,2.067-0.286,3.14c0,1.454,0.186,2.86,0.503,4.218
		l-2.827,1.78c-1.223,0.771-1.59,2.386-0.819,3.608l3.595,5.708c0.77,1.223,2.387,1.59,3.609,0.819l2.822-1.778
		c1.645,1.325,3.523,2.363,5.562,3.064v3.341c0,1.445,1.172,2.617,2.618,2.617h6.744c1.445,0,2.617-1.172,2.617-2.617v-3.341
		c2.391-0.822,4.552-2.12,6.384-3.783l2.935,1.612c1.268,0.696,2.858,0.234,3.555-1.033l3.248-5.91
		C579.096,422.259,578.633,420.667,577.366,419.971z M556.287,423.426c-4.531,0-8.205-3.674-8.205-8.206
		c0-4.531,3.674-8.205,8.205-8.205c4.532,0,8.206,3.674,8.206,8.205C564.493,419.752,560.819,423.426,556.287,423.426z"/>
	<g>
		
			<path fill="#FFFFFF" stroke="#3F3F3F" stroke-width="3" stroke-linecap="round" stroke-linejoin="round" stroke-miterlimit="10" d="
			M568.279,218.515c-1.888,5.258-7.681,7.993-12.94,6.106l-35.987-12.916c-5.257-1.888-7.99-7.683-6.104-12.941l26.001-72.44
			c1.888-5.26,7.679-7.994,12.94-6.105l35.983,12.914c5.261,1.888,7.992,7.68,6.105,12.94L568.279,218.515z"/>
		
			<path fill="#FFFFFF" stroke="#3F3F3F" stroke-width="3" stroke-linecap="round" stroke-linejoin="round" stroke-miterlimit="10" d="
			M569.025,192.867c-0.905,2.522-3.463,3.913-5.707,3.106l-31.223-11.205c-2.247-0.807-3.335-3.503-2.43-6.026l5.059-14.096
			c0.906-2.521,3.46-3.913,5.707-3.105l31.224,11.204c2.245,0.806,3.334,3.506,2.429,6.027L569.025,192.867z"/>
		
			<path fill="#FFFFFF" stroke="#3F3F3F" stroke-width="3" stroke-linecap="round" stroke-linejoin="round" stroke-miterlimit="10" d="
			M562.367,212.519c-1.065,2.963-3.75,4.711-5.996,3.905l-31.17-11.187c-2.247-0.806-3.206-3.862-2.142-6.825l1.202-3.354
			c1.064-2.962,3.748-4.712,5.995-3.906l31.168,11.187c2.249,0.808,3.209,3.864,2.145,6.828L562.367,212.519z"/>
		
			<circle fill="#FFFFFF" stroke="#3F3F3F" stroke-width="3" stroke-linecap="round" stroke-linejoin="round" stroke-miterlimit="10" cx="551.745" cy="140.291" r="9.783"/>
		
			<line fill="none" stroke="#3F3F3F" stroke-width="3" stroke-linecap="round" stroke-linejoin="round" stroke-miterlimit="10" x1="572.954" y1="145.371" x2="584.37" y2="149.364"/>
		
			<line fill="none" stroke="#3F3F3F" stroke-width="3" stroke-linecap="round" stroke-linejoin="round" stroke-miterlimit="10" x1="570.022" y1="153.754" x2="581.539" y2="157.781"/>
		
			<line fill="none" stroke="#3F3F3F" stroke-width="3" stroke-linecap="round" stroke-linejoin="round" stroke-miterlimit="10" x1="558.077" y1="157.417" x2="579.097" y2="164.768"/>
	</g>
	<g>
		
			<line fill="none" stroke="#3F3F3F" stroke-width="3" stroke-linecap="round" stroke-linejoin="round" stroke-miterlimit="10" x1="542.96" y1="301.891" x2="555.418" y2="314.35"/>
		
			<line fill="none" stroke="#3F3F3F" stroke-width="3" stroke-linecap="round" stroke-linejoin="round" stroke-miterlimit="10" x1="555.418" y1="301.892" x2="542.96" y2="314.35"/>
		
			<circle fill="none" stroke="#3F3F3F" stroke-width="3" stroke-linecap="round" stroke-linejoin="round" stroke-miterlimit="10" cx="548.47" cy="308.12" r="17.112"/>
	</g>
	<g>
		
			<rect x="700.649" y="212.302" transform="matrix(0.3339 -0.9426 0.9426 0.3339 264.2856 808.363)" fill="#FFFFFF" stroke="#3F3F3F" stroke-width="3" stroke-linecap="round" stroke-linejoin="round" stroke-miterlimit="10" width="6.897" height="9.77"/>
		
			<rect x="717.432" y="208.667" transform="matrix(0.3339 -0.9426 0.9426 0.3339 270.5588 830.6969)" fill="#FFFFFF" stroke="#3F3F3F" stroke-width="3" stroke-linecap="round" stroke-linejoin="round" stroke-miterlimit="10" width="11.274" height="30.477"/>
		
			<circle fill="#FFFFFF" stroke="#3F3F3F" stroke-width="3" stroke-linecap="round" stroke-linejoin="round" stroke-miterlimit="10" cx="698.159" cy="215.085" r="5.709"/>
		
			<circle fill="#FFFFFF" stroke="#3F3F3F" stroke-width="3" stroke-linecap="round" stroke-linejoin="round" stroke-miterlimit="10" cx="673.338" cy="206.293" r="27.211"/>
		
			<circle fill="#FFFFFF" stroke="#3F3F3F" stroke-width="3" stroke-linecap="round" stroke-linejoin="round" stroke-miterlimit="10" cx="673.338" cy="206.293" r="20.535"/>
	</g>
	<g>
		
			<line fill="none" stroke="#3F3F3F" stroke-width="3" stroke-linecap="round" stroke-linejoin="round" stroke-miterlimit="10" x1="272.541" y1="161.527" x2="290.731" y2="149.823"/>
		
			<line fill="none" stroke="#3F3F3F" stroke-width="3" stroke-linecap="round" stroke-linejoin="round" stroke-miterlimit="10" x1="290.731" y1="149.823" x2="280.115" y2="147.52"/>
		
			<line fill="none" stroke="#3F3F3F" stroke-width="3" stroke-linecap="round" stroke-linejoin="round" stroke-miterlimit="10" x1="290.731" y1="149.823" x2="288.428" y2="160.438"/>
	</g>
	<g>
		
			<line fill="none" stroke="#3F3F3F" stroke-width="3" stroke-linecap="round" stroke-linejoin="round" stroke-miterlimit="10" x1="673.406" y1="290.646" x2="655.184" y2="278.991"/>
		
			<line fill="none" stroke="#3F3F3F" stroke-width="3" stroke-linecap="round" stroke-linejoin="round" stroke-miterlimit="10" x1="655.184" y1="278.991" x2="665.792" y2="276.659"/>
		
			<line fill="none" stroke="#3F3F3F" stroke-width="3" stroke-linecap="round" stroke-linejoin="round" stroke-miterlimit="10" x1="655.184" y1="278.991" x2="657.516" y2="289.601"/>
	</g>
	<g>
		
			<path fill="#FFFFFF" stroke="#3F3F3F" stroke-width="3" stroke-linecap="round" stroke-linejoin="round" stroke-miterlimit="10" d="
			M254.638,256.234c0.195,1.645-0.979,3.138-2.625,3.333l-103.698,12.347c-1.645,0.195-3.138-0.979-3.333-2.625l-7.618-63.979
			c-0.195-1.645,0.979-3.138,2.625-3.333l103.698-12.347c1.645-0.196,3.138,0.979,3.333,2.624L254.638,256.234z"/>
		
			<path fill="#FFFFFF" stroke="#3F3F3F" stroke-width="3" stroke-linecap="round" stroke-linejoin="round" stroke-miterlimit="10" d="
			M215.97,236.317c0.196,1.645-0.979,3.138-2.624,3.333l-32.121,3.824c-1.645,0.196-3.138-0.979-3.333-2.625l-2.806-23.566
			c-0.196-1.645,0.979-3.138,2.625-3.333l32.12-3.824c1.646-0.196,3.138,0.979,3.333,2.624L215.97,236.317z"/>
		<polygon fill="#3F3F3F" points="191.549,227.275 190.865,221.533 196.179,223.812 201.494,226.091 196.863,229.553 
			192.232,233.016 		"/>
		
			<line fill="#FFFFFF" stroke="#3F3F3F" stroke-width="3" stroke-linecap="round" stroke-linejoin="round" stroke-miterlimit="10" x1="151.383" y1="263.194" x2="247.308" y2="251.773"/>
		<circle fill="#3F3F3F" cx="161.602" cy="261.401" r="4.02"/>
	</g>
	
		<path fill="#FFFFFF" stroke="#3F3F3F" stroke-width="3" stroke-linecap="round" stroke-linejoin="round" stroke-miterlimit="10" d="
		M418.518,108.74c0-11.3-9.16-20.461-20.46-20.461c-11.3,0-20.46,9.161-20.46,20.461c0,8.182,4.804,15.239,11.744,18.512v10.132
		c0,1.131,0.917,2.049,2.049,2.049h13.335c1.131,0,2.048-0.917,2.048-2.049v-10.132C413.714,123.979,418.518,116.921,418.518,108.74
		z"/>
	
		<path fill="#FFFFFF" stroke="#3F3F3F" stroke-width="3" stroke-linecap="round" stroke-linejoin="round" stroke-miterlimit="10" d="
		M391.416,96.314c-6.926,3.492-9.71,11.937-6.218,18.863"/>
	
		<line fill="none" stroke="#3F3F3F" stroke-width="3" stroke-linecap="round" stroke-linejoin="round" stroke-miterlimit="10" x1="389.341" y1="129.989" x2="397.07" y2="129.989"/>
	
		<line fill="none" stroke="#3F3F3F" stroke-width="3" stroke-linecap="round" stroke-linejoin="round" stroke-miterlimit="10" x1="389.341" y1="134.265" x2="398.058" y2="134.265"/>
	
		<line fill="none" stroke="#3F3F3F" stroke-width="3" stroke-linecap="round" stroke-linejoin="round" stroke-miterlimit="10" x1="398.058" y1="75.619" x2="398.058" y2="60.5"/>
	
		<line fill="none" stroke="#3F3F3F" stroke-width="3" stroke-linecap="round" stroke-linejoin="round" stroke-miterlimit="10" x1="379.98" y1="79.027" x2="374.333" y2="70.045"/>
	
		<line fill="none" stroke="#3F3F3F" stroke-width="3" stroke-linecap="round" stroke-linejoin="round" stroke-miterlimit="10" x1="415.693" y1="79.027" x2="421.341" y2="70.045"/>
</g>
</svg>
