<?xml version="1.0" encoding="utf-8"?>
<!-- Generator: Adobe Illustrator 16.0.0, SVG Export Plug-In . SVG Version: 6.00 Build 0)  -->
<!DOCTYPE svg PUBLIC "-//W3C//DTD SVG 1.1//EN" "http://www.w3.org/Graphics/SVG/1.1/DTD/svg11.dtd">
<svg version="1.1" xmlns="http://www.w3.org/2000/svg" xmlns:xlink="http://www.w3.org/1999/xlink" x="0px" y="0px" width="1920px"
	 height="1080px" viewBox="0 0 1920 1080" enable-background="new 0 0 1920 1080" xml:space="preserve">
<g id="圖層_2">
	<path fill="#EADBEB" d="M2033.836,1015.232c0.886,31.053,2.886,64.053-18.03,88.571c-5.24,6.804-11.271,12.906-17.959,18.395
		c-62.125,42.087-149.125,66.087-221.125,30.087c-102-51-106-166-90-268c13-84-37-159-62-240c-20-62-38-126-37.017-191.844
		c0.566-8.165,1.727-16.194,3.615-23.989c3.778-15.59,10.475-30.246,21.187-43.172c5.355-6.463,11.715-12.495,19.215-17.995
		c73-50,162-1,233.555,27.469c6.931,4.174,13.47,8.825,19.636,13.894c18.499,15.206,33.644,34.168,45.949,55.297
		c4.924,8.451,9.393,17.253,13.472,26.348c21.412,48.33,32.688,98.571,36.056,149.379c0.673,10.203,1.03,20.432,1.09,30.822
		c-0.703,37.516-3.204,74.906-6.905,112.161c-0.925,9.313-1.925,18.624-2.99,27.958c-9.861,64.672,34.139,120.672,56.7,177.924
		C2030.938,998.226,2032.749,1007.165,2033.836,1015.232z"/>
	<path fill="#EADBEB" d="M382.097,291.1c-7.698,7.352-14.726,15.102-21.159,23.226c-6.434,8.124-12.276,16.624-17.484,25.442
		c-3.473,5.879-6.652,11.907-9.258,18.217c-11.678,35.364,6.087,70.866,9.545,105.81c10.665,95.615-98.189,133.861-175.395,129.766
		c-9.371-0.003-18.616-0.661-27.795-1.91c-45.9-6.242-90.178-27.256-129.856-49.285c-8.436-4.976-16.692-10.291-24.76-15.925
		c-8.355-6.068-16.341-12.82-23.887-20.284c-7.547-7.463-14.655-15.637-21.255-24.548
		c-111.503-150.929-80.677-360.753,22.581-503.742c6.075-8.417,12.404-16.608,18.999-24.605
		c34.02-41.264,80.188-84.121,131.459-109.83c8.545-4.285,17.232-8.093,26.032-11.342c9.781-3.49,19.785-6.271,29.927-8.357
		s20.423-3.479,30.758-4.191c32.304-1.902,65.53,2.125,96.506,12.186c10.325,3.354,20.411,7.38,30.256,12.097
		c20.891,8.71,39.093,20.042,54.777,33.436c7.842,6.697,15.054,13.909,21.675,21.568c84.625,75.541,90.318,194.656,38.778,290.533
		c-2.105,6.574-4.456,13.081-7.082,19.503c-7.876,19.267-18.217,37.766-31.123,55.064
		C397.765,272.392,390.322,281.375,382.097,291.1z"/>
	<path fill="#FADFEB" d="M268.428,1167.19c-11.565-24.941-34.565-42.941-62.565-47.941c-42-7-90,6-121-27
		c-60-67,12-156,74.412-192.725c8.28-4.799,16.917-8.807,25.931-11.916c9.013-3.111,18.417-5.328,28.169-6.522
		c8.248-1.473,15.983-1.213,23.359,0.514c4.13-0.351,7.13,2.649,11.13,4.649c6.167,3,12,6.527,17.639,10.352
		c5.639,3.824,11.083,7.944,16.473,12.13c5.389,4.186,10.722,8.436,16.139,12.519c16.25,12.25,33.25,23,54.75,26
		c7.333,0.833,14.361,0.666,21.204-0.364c31.497-8.863,54.107-34.646,82.76-48.781c5.73-2.827,11.703-5.188,18.04-6.854
		c24.749-3,49.779,2.297,72.454,13.307c7.559,3.67,14.855,7.975,21.792,12.818c111.75,67.875,84.75,220.875,2.141,301.761
		c-4.892,5.966-10.081,11.366-15.524,16.226c-5.444,4.859-11.142,9.18-17.052,12.988c-5.912,3.807-12.035,7.102-18.335,9.923
		c-65.927,40.45-144.829,20.806-197.328-31.652c-3.882-2.665-7.669-5.478-11.35-8.453c-11.036-8.92-21.089-19.302-29.853-31.122
		C277.573,1181.093,273.165,1174.475,268.428,1167.19z"/>
	<path fill="#FADFEB" d="M1403.362,135.79c24.472-14.143,43.269-39.828,42.979-68.46c0.146-6.391-0.486-12.779-1.951-18.981
		c-1.465-6.203-3.765-12.221-6.956-17.874c-1.107-6.561-1.948-13.146-2.437-19.723c-1.465-19.727,0.241-39.369,7.827-58.526
		c2.197-6.839,4.563-13.666,7.109-20.427c2.546-6.76,5.273-13.453,8.191-20.024c4.378-9.856,9.194-19.476,14.505-28.727
		c26.166-44.055,62.032-89.25,108.117-112.94c7.681-3.949,15.645-7.298,23.887-9.934c49.761-15.465,100.286,8.118,138.711,39.352
		c59.881,48.572,73.189,141.63,35.563,207.513c-3.156,5.788-6.599,11.417-10.32,16.854c-4.467,6.524-9.335,12.772-14.624,18.647
		c-22.62,24.868-55.934,32.298-87.265,39.465c-11.227,2.83-21.021,6.954-29.653,12.125c-7.232,4.453-13.551,9.612-19.195,15.335
		c-5.645,5.724-10.614,12.01-15.15,18.716c-3.053,8.071-6.713,16.317-10.975,24.331c-4.263,8.012-9.128,15.792-14.592,22.929
		c-25.498,35.756-71.363,39.801-113.451,34.268c-13.281-1.271-12.25,21.793-24.221,30.437
		c-18.648,11.543-40.441-0.707-53.574-16.119c-20.522-25.531-7.993-60.474,11.438-81.74
		C1398.684,140.748,1400.563,138.699,1403.362,135.79z"/>
</g>
<g id="圖層_1">
	<linearGradient id="SVGID_1_" gradientUnits="userSpaceOnUse" x1="644.6558" y1="543.8525" x2="551.6607" y2="429.8584">
		<stop  offset="0" style="stop-color:#FFFFFF"/>
		<stop  offset="1" style="stop-color:#FFFBCD"/>
	</linearGradient>
	<polygon fill="url(#SVGID_1_)" points="524.244,432.625 565.441,402.53 723.268,485.042 561.462,597.049 	"/>
	
		<circle fill="#FFFFFF" stroke="#3F3F3F" stroke-width="4" stroke-linecap="round" stroke-linejoin="round" stroke-miterlimit="10" cx="1538.878" cy="330.853" r="87.112"/>
	
		<path fill="#FFFFFF" stroke="#3F3F3F" stroke-width="4" stroke-linecap="round" stroke-linejoin="round" stroke-miterlimit="10" d="
		M1352.379,476.291c-0.254,2.573-2.76,4.43-5.595,4.148l0,0c-2.836-0.282-4.925-2.597-4.67-5.171l0.69-6.926
		c0.256-2.573,2.762-4.431,5.597-4.149l0,0c2.834,0.283,4.923,2.598,4.668,5.172L1352.379,476.291z"/>
	
		<path fill="#FFFFFF" stroke="#3F3F3F" stroke-width="4" stroke-linecap="round" stroke-linejoin="round" stroke-miterlimit="10" d="
		M1336.684,555.492c-0.632,6.367-3.443,11.3-6.279,11.02l0,0c-2.835-0.284-4.618-5.673-3.985-12.044l1.707-17.138
		c0.633-6.367,3.445-11.301,6.28-11.021l0,0c2.834,0.283,4.616,5.675,3.984,12.044L1336.684,555.492z"/>
	
		<path fill="#FFFFFF" stroke="#3F3F3F" stroke-width="4" stroke-linecap="round" stroke-linejoin="round" stroke-miterlimit="10" d="
		M1353.795,479.783c0.36-3.572-2.243-6.759-5.814-7.12l0,0c-3.571-0.36-6.76,2.243-7.12,5.814l-12.717,108.689
		c-0.36,3.572,2.243,6.76,5.814,7.12l0,0c3.571,0.36,6.76-2.243,7.12-5.814L1353.795,479.783z"/>
	
		<path fill="#FFFFFF" stroke="#3F3F3F" stroke-width="4" stroke-linecap="round" stroke-linejoin="round" stroke-miterlimit="10" d="
		M614.893,177.578c1.09-6.027,1.899-10.401-3.499-12.393c-3.391-1.251-7.543,3.144-9.158,9.053
		c-2.275,8.323,0.004,11.471,3.499,12.391C609.229,187.554,613.189,187,614.893,177.578z"/>
	
		<rect x="429.885" y="478.2" transform="matrix(0.9853 -0.1711 0.1711 0.9853 -85.0017 82.6731)" fill="#FFFFFF" stroke="#3F3F3F" stroke-width="4" stroke-linecap="round" stroke-linejoin="round" stroke-miterlimit="10" width="14.405" height="112.466"/>
	
		<path fill="#FFFFFF" stroke="#3F3F3F" stroke-width="4" stroke-linecap="round" stroke-linejoin="round" stroke-miterlimit="10" d="
		M618.665,197.532c7.577,15.106,3.935,17.435,0.033,19.16c-3.9,1.727-3.994,5.794-14.157-12.907
		c-4.624-8.508-3.935-17.433-0.034-19.158C608.408,182.9,614.324,188.877,618.665,197.532z"/>
	
		<path fill="#FFFFFF" stroke="#3F3F3F" stroke-width="4" stroke-linecap="round" stroke-linejoin="round" stroke-miterlimit="10" d="
		M644.938,211.729c5.132-14.352,0.738-17.857-3.412-18.854c-4.146-0.998-7.71,4.502-11.605,15.241
		c-3.302,9.103-0.737,17.856,3.41,18.853C637.479,227.966,641.678,220.846,644.938,211.729z"/>
	
		<path fill="#FFFFFF" stroke="#3F3F3F" stroke-width="4" stroke-linecap="round" stroke-linejoin="round" stroke-miterlimit="10" d="
		M641.3,229.009c0,10.549-2.909,18.904-15.447,19.1c-11.095,0.172-15.447-8.551-15.447-19.1c0-10.547,6.916-19.098,15.447-19.098
		C634.385,209.911,641.3,214.107,641.3,229.009z"/>
	
		<ellipse fill="#FFFFFF" stroke="#3F3F3F" stroke-width="4" stroke-linecap="round" stroke-linejoin="round" stroke-miterlimit="10" cx="447.36" cy="595.351" rx="15.674" ry="15.95"/>
	
		<rect x="358.76" y="629.118" fill="#FFFFFF" stroke="#3F3F3F" stroke-width="4" stroke-linecap="round" stroke-linejoin="round" stroke-miterlimit="10" width="1006.652" height="21.808"/>
	
		<rect x="386.24" y="282.536" fill="#FFFFFF" stroke="#3F3F3F" stroke-width="4" stroke-linecap="round" stroke-linejoin="round" stroke-miterlimit="10" width="283.971" height="19.606"/>
	
		<rect x="378.569" y="650.926" fill="#FFFFFF" stroke="#3F3F3F" stroke-width="4" stroke-linecap="round" stroke-linejoin="round" stroke-miterlimit="10" width="21.806" height="368.84"/>
	
		<rect x="1330.463" y="650.926" fill="#FFFFFF" stroke="#3F3F3F" stroke-width="4" stroke-linecap="round" stroke-linejoin="round" stroke-miterlimit="10" width="20.766" height="368.84"/>
	
		<rect x="723.268" y="650.926" fill="#FFFFFF" stroke="#3F3F3F" stroke-width="4" stroke-linecap="round" stroke-linejoin="round" stroke-miterlimit="10" width="21.806" height="368.84"/>
	
		<rect x="399.651" y="650.926" fill="#FFFFFF" stroke="#3F3F3F" stroke-width="4" stroke-linecap="round" stroke-linejoin="round" stroke-miterlimit="10" width="323.622" height="100.853"/>
	
		<rect x="399.651" y="751.778" fill="#FFFFFF" stroke="#3F3F3F" stroke-width="4" stroke-linecap="round" stroke-linejoin="round" stroke-miterlimit="10" width="323.622" height="100.854"/>
	
		<rect x="399.651" y="852.632" fill="#FFFFFF" stroke="#3F3F3F" stroke-width="4" stroke-linecap="round" stroke-linejoin="round" stroke-miterlimit="10" width="323.622" height="152.234"/>
	
		<polygon fill="#FFFFFF" stroke="#3F3F3F" stroke-width="4" stroke-linecap="round" stroke-linejoin="round" stroke-miterlimit="10" points="
		1587.667,880.126 1423.88,880.126 1442.402,1020.883 1566.146,1020.883 	"/>
	
		<polygon fill="#FFFFFF" stroke="#3F3F3F" stroke-width="4" stroke-linecap="round" stroke-linejoin="round" stroke-miterlimit="10" points="
		1351.469,587.956 1313.725,587.956 1317.993,627.559 1346.509,627.559 	"/>
	
		<path fill="#FFFFFF" stroke="#3F3F3F" stroke-width="4" stroke-linecap="round" stroke-linejoin="round" stroke-miterlimit="10" d="
		M516.022,628.28c-2.138-17.452-27.476-31.231-58.44-31.231c-30.966,0-56.305,13.779-58.441,31.231H516.022z"/>
	
		<path fill="#FFFFFF" stroke="#3F3F3F" stroke-width="4" stroke-linecap="round" stroke-linejoin="round" stroke-miterlimit="10" d="
		M1276.816,628.28c-1.017-17.452-13.055-31.231-27.768-31.231c-14.712,0-26.752,13.779-27.767,31.231H1276.816z"/>
	
		<rect x="461.283" y="370.873" transform="matrix(0.7351 0.678 -0.678 0.7351 413.7034 -204.4769)" fill="#FFFFFF" stroke="#3F3F3F" stroke-width="4" stroke-linecap="round" stroke-linejoin="round" stroke-miterlimit="10" width="14.405" height="112.466"/>
	
		<ellipse transform="matrix(0.9852 -0.1712 0.1712 0.9852 -74.554 79.9383)" fill="#FFFFFF" stroke="#3F3F3F" stroke-width="4" stroke-linecap="round" stroke-linejoin="round" stroke-miterlimit="10" cx="426.295" cy="472.316" rx="15.672" ry="15.948"/>
	
		<rect x="498.437" y="365.591" transform="matrix(0.7524 -0.6587 0.6587 0.7524 -126.0007 430.0719)" fill="#FFFFFF" stroke="#3F3F3F" stroke-width="4" stroke-linecap="round" stroke-linejoin="round" stroke-miterlimit="10" width="21.19" height="34.074"/>
	
		<rect x="411.124" y="168.3" fill="#FFFFFF" stroke="#3F3F3F" stroke-width="4" stroke-linecap="round" stroke-linejoin="round" stroke-miterlimit="10" width="16.356" height="113.643"/>
	
		<rect x="565.441" y="200.247" fill="#FFFFFF" stroke="#3F3F3F" stroke-width="4" stroke-linecap="round" stroke-linejoin="round" stroke-miterlimit="10" width="16.356" height="81.696"/>
	
		<rect x="427.48" y="141.923" fill="#FFFFFF" stroke="#3F3F3F" stroke-width="4" stroke-linecap="round" stroke-linejoin="round" stroke-miterlimit="10" width="29.983" height="140.02"/>
	
		<rect x="457.463" y="160.123" fill="#FFFFFF" stroke="#3F3F3F" stroke-width="4" stroke-linecap="round" stroke-linejoin="round" stroke-miterlimit="10" width="23.169" height="121.819"/>
	
		<rect x="570.492" y="557.18" fill="#FFFFFF" stroke="#3F3F3F" stroke-width="4" stroke-linecap="round" stroke-linejoin="round" stroke-miterlimit="10" width="113.643" height="16.355"/>
	
		<rect x="549.763" y="598.199" fill="#FFFFFF" stroke="#3F3F3F" stroke-width="4" stroke-linecap="round" stroke-linejoin="round" stroke-miterlimit="10" width="140.02" height="29.983"/>
	
		<rect x="590.309" y="574.309" fill="#FFFFFF" stroke="#3F3F3F" stroke-width="4" stroke-linecap="round" stroke-linejoin="round" stroke-miterlimit="10" width="121.819" height="23.169"/>
	
		<rect x="480.632" y="175.266" fill="#FFFFFF" stroke="#3F3F3F" stroke-width="4" stroke-linecap="round" stroke-linejoin="round" stroke-miterlimit="10" width="19.08" height="106.676"/>
	
		<rect x="525.08" y="168.3" fill="#FFFFFF" stroke="#3F3F3F" stroke-width="4" stroke-linecap="round" stroke-linejoin="round" stroke-miterlimit="10" width="40.361" height="113.643"/>
	
		<rect x="499.712" y="150.583" fill="#FFFFFF" stroke="#3F3F3F" stroke-width="4" stroke-linecap="round" stroke-linejoin="round" stroke-miterlimit="10" width="24.532" height="131.359"/>
	
		<rect x="609.316" y="244.018" fill="#FFFFFF" stroke="#3F3F3F" stroke-width="4" stroke-linecap="round" stroke-linejoin="round" stroke-miterlimit="10" width="34.166" height="37.212"/>
	
		<line fill="none" stroke="#3F3F3F" stroke-width="4" stroke-linecap="round" stroke-linejoin="round" stroke-miterlimit="10" x1="172.953" y1="1020.883" x2="1697.262" y2="1020.883"/>
	
		<path fill="#FFFFFF" stroke="#3F3F3F" stroke-width="4" stroke-linecap="round" stroke-linejoin="round" stroke-miterlimit="10" d="
		M583.244,393.259c9.984,9.986-3.827,29.632-24.185,45.164c-20.359,15.531-38.54,22.085-46.938,13.687
		c-13.298-13.297-9.232-45.519,11.127-61.051C543.607,375.528,569.947,379.961,583.244,393.259z"/>
	
		<path fill="#FFFFFF" stroke="#3F3F3F" stroke-width="4" stroke-linecap="round" stroke-linejoin="round" stroke-miterlimit="10" d="
		M1291.181,550.222c0,8.926-7.235,16.161-16.161,16.161H846.941c-8.926,0-16.16-7.235-16.16-16.161V284.271
		c0-8.925,7.234-16.16,16.16-16.16h428.079c8.926,0,16.161,7.235,16.161,16.16V550.222z"/>
	
		<rect x="952.315" y="618.819" fill="#FFFFFF" stroke="#3F3F3F" stroke-width="4" stroke-linecap="round" stroke-linejoin="round" stroke-miterlimit="10" width="217.331" height="9.461"/>
	
		<path fill="#FFFFFF" stroke="#3F3F3F" stroke-width="4" stroke-linecap="round" stroke-linejoin="round" stroke-miterlimit="10" d="
		M1120.48,566.535c11.52,0-128.187,0-119,0c6.854,0,0,52.284,0,52.284h119C1120.48,618.819,1111.334,566.535,1120.48,566.535z"/>
	
		<line fill="none" stroke="#3F3F3F" stroke-width="4" stroke-linecap="round" stroke-linejoin="round" stroke-miterlimit="10" x1="830.781" y1="534.433" x2="1291.181" y2="534.433"/>
	<g>
		
			<circle fill="#FFFFFF" stroke="#3F3F3F" stroke-width="4" stroke-linecap="round" stroke-linejoin="round" stroke-miterlimit="10" cx="801.864" cy="592.633" r="24.194"/>
		
			<circle fill="#FFFFFF" stroke="#3F3F3F" stroke-width="4" stroke-linecap="round" stroke-linejoin="round" stroke-miterlimit="10" cx="801.864" cy="592.633" r="10.31"/>
	</g>
	
		<path fill="#FFFFFF" stroke="#3F3F3F" stroke-width="4" stroke-linecap="round" stroke-linejoin="round" stroke-miterlimit="10" d="
		M801.863,566.621v61.328h-73.596v-61.328c0-7.851,6.363-14.217,14.217-14.217h45.164
		C795.5,552.404,801.863,558.771,801.863,566.621z"/>
	
		<path fill="#FFFFFF" stroke="#3F3F3F" stroke-width="4" stroke-linecap="round" stroke-linejoin="round" stroke-miterlimit="10" d="
		M765.699,498.766c10.896,21.023-12.242,17.126-0.666,35.747"/>
	
		<path fill="#FFFFFF" stroke="#3F3F3F" stroke-width="4" stroke-linecap="round" stroke-linejoin="round" stroke-miterlimit="10" d="
		M780.875,508.167c5.223,10.61-7.279,16.517-1.055,26.346"/>
	
		<path fill="#FFFFFF" stroke="#3F3F3F" stroke-width="4" stroke-linecap="round" stroke-linejoin="round" stroke-miterlimit="10" d="
		M750.146,508.167c5.225,10.61-7.639,13.173-1.055,26.347"/>
	
		<path fill="#FFFFFF" stroke="#3F3F3F" stroke-width="4" stroke-linecap="round" stroke-linejoin="round" stroke-miterlimit="10" d="
		M561.462,701.451c5.836,0,10.83,3.597,12.893,8.692c0.652-1.61,1.015-3.37,1.015-5.215c0-7.681-6.227-13.908-13.908-13.908
		s-13.908,6.228-13.908,13.908c0,1.845,0.363,3.604,1.015,5.215C550.632,705.048,555.625,701.451,561.462,701.451z"/>
	
		<path fill="#FFFFFF" stroke="#3F3F3F" stroke-width="4" stroke-linecap="round" stroke-linejoin="round" stroke-miterlimit="10" d="
		M561.462,803.074c5.836,0,10.83,3.597,12.893,8.692c0.652-1.61,1.015-3.37,1.015-5.215c0-7.681-6.227-13.908-13.908-13.908
		s-13.908,6.228-13.908,13.908c0,1.845,0.363,3.604,1.015,5.215C550.632,806.671,555.625,803.074,561.462,803.074z"/>
	
		<path fill="#FFFFFF" stroke="#3F3F3F" stroke-width="4" stroke-linecap="round" stroke-linejoin="round" stroke-miterlimit="10" d="
		M561.462,934.571c5.836,0,10.83,3.597,12.893,8.692c0.652-1.61,1.015-3.37,1.015-5.215c0-7.681-6.227-13.908-13.908-13.908
		s-13.908,6.228-13.908,13.908c0,1.845,0.363,3.604,1.015,5.215C550.632,938.168,555.625,934.571,561.462,934.571z"/>
	<path fill="#DBDBDB" d="M1279.724,511.06c0,6.782-5.471,12.28-12.218,12.28H980.375c-6.748,0-12.219-5.498-12.219-12.28V294
		c0-6.782,5.471-12.28,12.219-12.28h287.131c6.747,0,12.218,5.498,12.218,12.28V511.06z"/>
	<path fill="#DBDBDB" d="M960.156,397.332c0,5.639-5.373,10.21-12,10.21h-92.061c-6.627,0-12-4.571-12-10.21V365.81
		c0-5.639,5.373-10.21,12-10.21h92.061c6.627,0,12,4.571,12,10.21V397.332z"/>
	<path fill="#EAEAEA" d="M960,436.375c0,6.627-5.373,12-12,12h-91.904c-6.627,0-12-5.373-12-12v-7.499c0-6.627,5.373-12,12-12H948
		c6.627,0,12,5.373,12,12V436.375z"/>
	<path fill="#DBDBDB" d="M960,473.042c0,6.627-5.373,12-12,12h-91.904c-6.627,0-12-5.373-12-12v-7.499c0-6.627,5.373-12,12-12H948
		c6.627,0,12,5.373,12,12V473.042z"/>
	<path fill="#EAEAEA" d="M960,509.708c0,6.627-5.373,12-12,12h-91.904c-6.627,0-12-5.373-12-12v-7.499c0-6.627,5.373-12,12-12H948
		c6.627,0,12,5.373,12,12V509.708z"/>
	<path fill="#EAEAEA" d="M960,285.564c0,1.474-3.636,2.668-8.122,2.668H889.68c-4.485,0-8.121-1.195-8.121-2.668v-1.667
		c0-1.474,3.636-2.668,8.121-2.668h62.198c4.485,0,8.122,1.195,8.122,2.668V285.564z"/>
	<path fill="#DBDBDB" d="M960,297.718c0,1.474-3.636,2.668-8.122,2.668H889.68c-4.485,0-8.121-1.194-8.121-2.668v-1.667
		c0-1.474,3.636-2.668,8.121-2.668h62.198c4.485,0,8.122,1.194,8.122,2.668V297.718z"/>
	<path fill="#EAEAEA" d="M960,310.871c0,1.474-3.636,2.668-8.122,2.668H889.68c-4.485,0-8.121-1.195-8.121-2.668v-1.667
		c0-1.474,3.636-2.668,8.121-2.668h62.198c4.485,0,8.122,1.195,8.122,2.668V310.871z"/>
	<path fill="#DBDBDB" d="M960,324.999c0,1.474-5.274,2.668-11.78,2.668h-90.215c-6.506,0-11.779-1.194-11.779-2.668v-1.667
		c0-1.474,5.273-2.668,11.779-2.668h90.215c6.505,0,11.78,1.194,11.78,2.668V324.999z"/>
	<path fill="#EAEAEA" d="M960,338.152c0,1.474-5.274,2.668-11.78,2.668h-90.215c-6.506,0-11.779-1.195-11.779-2.668v-1.667
		c0-1.474,5.273-2.668,11.779-2.668h90.215c6.505,0,11.78,1.195,11.78,2.668V338.152z"/>
	<circle fill="#DBDBDB" cx="857.269" cy="294.893" r="13.173"/>
	<circle fill="#EAEAEA" cx="990.216" cy="359.914" r="9.216"/>
	<path fill="#EAEAEA" d="M1139,365.477c0,4.028,5.372,7.293,12,7.293h106.482c6.627,0,12-3.266,12-7.293v-64.72
		c0-4.028-5.373-7.293-12-7.293H1151c-6.628,0-12,3.266-12,7.293V365.477z"/>
	<path fill="#EAEAEA" d="M981,449.359c0,3.841,5.992,6.954,13.385,6.954h118.772c7.392,0,13.386-3.113,13.386-6.954v-61.708
		c0-3.841-5.994-6.954-13.386-6.954H994.385c-7.393,0-13.385,3.113-13.385,6.954V449.359z"/>
	<path fill="#DBDBDB" d="M1147.354,311.363c0,1.474,5.274,2.668,11.779,2.668h90.216c6.506,0,11.779-1.194,11.779-2.668v-1.667
		c0-1.474-5.273-2.668-11.779-2.668h-90.216c-6.505,0-11.779,1.194-11.779,2.668V311.363z"/>
	<path fill="#DBDBDB" d="M1147.354,325.92c0,1.474,5.274,2.668,11.779,2.668h90.216c6.506,0,11.779-1.194,11.779-2.668v-1.667
		c0-1.474-5.273-2.668-11.779-2.668h-90.216c-6.505,0-11.779,1.194-11.779,2.668V325.92z"/>
	<path fill="#DBDBDB" d="M1147.354,340.477c0,1.474,5.274,2.668,11.779,2.668h90.216c6.506,0,11.779-1.194,11.779-2.668v-1.667
		c0-1.474-5.273-2.668-11.779-2.668h-90.216c-6.505,0-11.779,1.194-11.779,2.668V340.477z"/>
	<path fill="#DBDBDB" d="M1147.354,355.034c0,1.474,5.274,2.668,11.779,2.668h90.216c6.506,0,11.779-1.194,11.779-2.668v-1.667
		c0-1.474-5.273-2.668-11.779-2.668h-90.216c-6.505,0-11.779,1.194-11.779,2.668V355.034z"/>
	<path fill="#F2F2F2" d="M1139,507.311c0,2.573,5.372,4.659,12,4.659h106.482c6.627,0,12-2.086,12-4.659v-41.338
		c0-2.573-5.373-4.659-12-4.659H1151c-6.628,0-12,2.086-12,4.659V507.311z"/>
	<path fill="#DBDBDB" d="M1147.354,479.676c0,1.474,5.274,2.668,11.779,2.668h90.216c6.506,0,11.779-1.194,11.779-2.668v-1.667
		c0-1.474-5.273-2.668-11.779-2.668h-90.216c-6.505,0-11.779,1.194-11.779,2.668V479.676z"/>
	<path fill="#DBDBDB" d="M1147.354,494.233c0,1.474,5.274,2.668,11.779,2.668h90.216c6.506,0,11.779-1.194,11.779-2.668v-1.667
		c0-1.474-5.273-2.668-11.779-2.668h-90.216c-6.505,0-11.779,1.194-11.779,2.668V494.233z"/>
	<path fill="#DBDBDB" d="M996.884,397.504c0,1.474,5.274,2.668,11.779,2.668h90.216c6.506,0,11.779-1.194,11.779-2.668v-1.667
		c0-1.474-5.273-2.668-11.779-2.668h-90.216c-6.505,0-11.779,1.194-11.779,2.668V397.504z"/>
	<path fill="#DBDBDB" d="M996.884,412.061c0,1.474,5.274,2.668,11.779,2.668h90.216c6.506,0,11.779-1.194,11.779-2.668v-1.667
		c0-1.474-5.273-2.668-11.779-2.668h-90.216c-6.505,0-11.779,1.194-11.779,2.668V412.061z"/>
	<path fill="#DBDBDB" d="M996.884,426.618c0,1.474,5.274,2.668,11.779,2.668h90.216c6.506,0,11.779-1.194,11.779-2.668v-1.667
		c0-1.474-5.273-2.668-11.779-2.668h-90.216c-6.505,0-11.779,1.194-11.779,2.668V426.618z"/>
	<path fill="#DBDBDB" d="M996.884,441.175c0,1.474,5.274,2.668,11.779,2.668h90.216c6.506,0,11.779-1.194,11.779-2.668v-1.667
		c0-1.474-5.273-2.668-11.779-2.668h-90.216c-6.505,0-11.779,1.194-11.779,2.668V441.175z"/>
	
		<line fill="none" stroke="#3F3F3F" stroke-width="4" stroke-linecap="round" stroke-linejoin="round" stroke-miterlimit="10" x1="1249.049" y1="597.049" x2="1249.049" y2="612.664"/>
	
		<rect x="1195.849" y="751.778" fill="none" stroke="#3F3F3F" stroke-width="4" stroke-linecap="round" stroke-linejoin="round" stroke-miterlimit="10" width="133.752" height="267.987"/>
	<path fill="none" stroke="#3F3F3F" stroke-width="4" stroke-linecap="round" stroke-linejoin="round" stroke-miterlimit="10" d="
		M1313.725,864.632c0-6.628-5.373-12-12-12h-78c-6.627,0-12,5.372-12,12v128.234c0,6.628,5.373,12,12,12h78c6.627,0,12-5.372,12-12
		V864.632z"/>
	
		<circle fill="none" stroke="#3F3F3F" stroke-width="4" stroke-linecap="round" stroke-linejoin="round" stroke-miterlimit="10" cx="1262.725" cy="969" r="16"/>
	
		<line fill="none" stroke="#3F3F3F" stroke-width="4" stroke-linecap="round" stroke-linejoin="round" stroke-miterlimit="10" x1="1211.725" y1="778.579" x2="1287" y2="778.579"/>
	
		<line fill="none" stroke="#3F3F3F" stroke-width="4" stroke-linecap="round" stroke-linejoin="round" stroke-miterlimit="10" x1="1299.036" y1="778.579" x2="1308.109" y2="778.579"/>
	
		<line fill="none" stroke="#3F3F3F" stroke-width="4" stroke-linecap="round" stroke-linejoin="round" stroke-miterlimit="10" x1="1211.725" y1="800" x2="1287" y2="800"/>
	
		<line fill="none" stroke="#3F3F3F" stroke-width="4" stroke-linecap="round" stroke-linejoin="round" stroke-miterlimit="10" x1="1299.036" y1="800" x2="1308.109" y2="800"/>
	<circle fill="#DBDBDB" cx="1262.725" cy="969" r="10.333"/>
	
		<rect x="97.157" y="691.021" fill="#FFFFFF" stroke="#3F3F3F" stroke-width="4" stroke-linecap="round" stroke-linejoin="round" stroke-miterlimit="10" width="67.292" height="25.909"/>
	
		<rect x="127.45" y="665.111" fill="#FFFFFF" stroke="#3F3F3F" stroke-width="4" stroke-linecap="round" stroke-linejoin="round" stroke-miterlimit="10" width="67.292" height="25.909"/>
	
		<rect x="808.476" y="861.255" fill="#FFFFFF" stroke="#3F3F3F" stroke-width="4" stroke-linecap="round" stroke-linejoin="round" stroke-miterlimit="10" width="67.292" height="25.909"/>
	
		<rect x="838.769" y="835.346" fill="#FFFFFF" stroke="#3F3F3F" stroke-width="4" stroke-linecap="round" stroke-linejoin="round" stroke-miterlimit="10" width="67.292" height="25.909"/>
	
		<rect x="1012.596" y="966.379" fill="#FFFFFF" stroke="#3F3F3F" stroke-width="4" stroke-linecap="round" stroke-linejoin="round" stroke-miterlimit="10" width="67.293" height="25.909"/>
	
		<rect x="1706.245" y="738.824" fill="#E7D9EA" stroke="#3F3F3F" stroke-width="4" stroke-linecap="round" stroke-linejoin="round" stroke-miterlimit="10" width="67.293" height="25.909"/>
	
		<rect x="1757.54" y="764.733" fill="#E7D9EA" stroke="#3F3F3F" stroke-width="4" stroke-linecap="round" stroke-linejoin="round" stroke-miterlimit="10" width="67.293" height="25.909"/>
	
		<rect x="1739.892" y="712.915" fill="#E7D9EA" stroke="#3F3F3F" stroke-width="4" stroke-linecap="round" stroke-linejoin="round" stroke-miterlimit="10" width="67.293" height="25.909"/>
	
		<line fill="none" stroke="#3F3F3F" stroke-width="4" stroke-linecap="round" stroke-linejoin="round" stroke-miterlimit="10" x1="1313.725" y1="221.033" x2="1365.412" y2="160.123"/>
	
		<line fill="none" stroke="#3F3F3F" stroke-width="4" stroke-linecap="round" stroke-linejoin="round" stroke-miterlimit="10" x1="1276.816" y1="201.314" x2="1287" y2="141.923"/>
	
		<line fill="none" stroke="#3F3F3F" stroke-width="4" stroke-linecap="round" stroke-linejoin="round" stroke-miterlimit="10" x1="1337.791" y1="253.1" x2="1397.937" y2="236.238"/>
	
		<circle fill="#FFFFFF" stroke="#3F3F3F" stroke-width="4" stroke-linecap="round" stroke-linejoin="round" stroke-miterlimit="10" cx="1538.878" cy="330.853" r="75.109"/>
	<circle fill="#DBDBDB" cx="1538.878" cy="330.853" r="10.122"/>
	
		<line fill="none" stroke="#3F3F3F" stroke-width="4" stroke-linecap="round" stroke-linejoin="round" stroke-miterlimit="10" x1="1538.878" y1="330.853" x2="1538.878" y2="268.111"/>
	
		<line fill="none" stroke="#3F3F3F" stroke-width="4" stroke-linecap="round" stroke-linejoin="round" stroke-miterlimit="10" x1="1538.878" y1="330.853" x2="1567" y2="345.766"/>
</g>
</svg>
