<?xml version="1.0" encoding="utf-8"?>
<!-- Generator: Adobe Illustrator 16.0.0, SVG Export Plug-In . SVG Version: 6.00 Build 0)  -->
<!DOCTYPE svg PUBLIC "-//W3C//DTD SVG 1.1//EN" "http://www.w3.org/Graphics/SVG/1.1/DTD/svg11.dtd">
<svg version="1.1" xmlns="http://www.w3.org/2000/svg" xmlns:xlink="http://www.w3.org/1999/xlink" x="0px" y="0px" width="1920px"
	 height="1080px" viewBox="0 0 1920 1080" enable-background="new 0 0 1920 1080" xml:space="preserve">
<g id="圖層_3">
	<rect fill="#FFFFFF" width="1920" height="1080"/>
</g>
<g id="圖層_2">
	<path fill="#F1E8F3" d="M1972.479,1185.24c-5.52,30.571-10.349,63.277-35.86,82.971c-6.527,5.58-13.685,10.312-21.357,14.308
		c-46.302,18.94-101.77,27.741-152.287,16.679c-6.313-1.383-12.552-3.077-18.685-5.101
		c-69.045-26.867-135.507-89.882-135.124-169.505c-0.143-49.896,24.475-90.011,44.374-131.918c2.487-5.239,4.901-10.506,7.189-15.82
		c18.72-40.839,11.338-88.373,0.729-130.539c-1.333-5.796-2.655-11.55-3.941-17.31c-6.438-28.776-11.964-57.696-14.291-87.504
		c-1.009-7.014-2.009-13.906-2.872-20.827c-0.882-6.898-1.627-13.827-2.203-20.794c-0.606-5.58-1.086-11.117-1.391-16.661
		c-1.217-22.173,0.365-44.448,3.896-66.568c1.049-6.875,2.403-13.662,4.088-20.342c8.426-33.399,25.135-64.114,53.271-88.288
		c4.928-4.436,10.134-8.557,15.572-12.338c38.067-26.469,87.492-36.285,131.965-20.844c6.088,1.833,12.079,4.02,17.957,6.542
		c27.052,10.086,50.217,25.933,69.202,45.682c4.746,4.938,9.231,10.119,13.541,15.534c60.476,56.521,64.007,136.968,55.573,214.177
		c-0.189,5.58-0.482,11.151-0.877,16.713c-0.786,11.122-1.975,22.201-3.54,33.229c-1.439,10.123-3.193,20.206-5.272,30.388
		c-8.402,36.568-18.54,72.646-29.823,108.344c-2.82,8.924-5.714,17.83-8.676,26.745c-22.95,61.262,8.593,125.113,18.898,185.781
		C1973.139,1168.001,1973.073,1177.121,1972.479,1185.24z"/>
	<path fill="#F1E8F3" d="M373.594,275.209c-7.698,7.352-14.726,15.102-21.159,23.226c-6.434,8.124-12.276,16.624-17.484,25.442
		c-3.473,5.879-6.652,11.907-9.258,18.217c-11.678,35.364,6.087,70.866,9.545,105.81c10.665,95.615-98.189,133.861-175.395,129.765
		c-9.371-0.002-18.616-0.66-27.795-1.91c-45.9-6.242-90.178-27.256-129.856-49.285c-8.436-4.976-16.692-10.291-24.76-15.925
		c-8.355-6.068-16.341-12.82-23.887-20.284c-7.547-7.463-14.655-15.637-21.255-24.548
		C-179.214,314.787-148.389,104.963-45.13-38.025c6.075-8.417,12.404-16.608,18.999-24.605
		c34.02-41.264,80.188-84.121,131.459-109.83c8.545-4.285,17.232-8.093,26.032-11.342c9.781-3.49,19.785-6.271,29.927-8.357
		s20.423-3.479,30.758-4.191c32.304-1.902,65.53,2.125,96.506,12.186c10.325,3.354,20.411,7.38,30.256,12.097
		c20.891,8.71,39.093,20.042,54.777,33.436c7.842,6.697,15.054,13.909,21.675,21.568c84.625,75.541,90.318,194.656,38.778,290.533
		c-2.105,6.574-4.456,13.081-7.082,19.503c-7.876,19.267-18.217,37.766-31.123,55.064
		C389.262,256.5,381.819,265.484,373.594,275.209z"/>
	<path fill="#F8E9F0" d="M248.15,1171.931c-9.638-20.784-27.216-36.749-49.012-44.386c-4.359-1.528-8.887-2.723-13.555-3.556
		c-41.861-6.249-93.861,7.751-124.861-30.249c-4.625-5.375-8.484-11.047-11.641-16.942c-3.157-5.896-5.612-12.017-7.427-18.287
		c-11.359-42.462,0.297-87.888,26.039-122.764c4.29-5.813,8.972-11.332,14.003-16.496c18.191-21.218,41.571-34.344,66.612-40.161
		c5.008-1.164,10.083-2.035,15.196-2.62c16.217-2.729,32.217,0.271,48.465,2.765c4.768,0.99,9.287,2.344,13.6,4.006
		c21.567,8.312,38.001,24.338,54.495,41.229c3.958,4.054,7.92,8.157,11.958,12.216c17.133,21.37,44.622,31.16,71.216,28.449
		c6.649-0.678,13.242-2.137,19.603-4.392c4.44-1.501,8.661-3.502,12.771-5.753c4.11-2.25,8.11-4.75,12.11-7.25
		c18.5-24,44.75-39.25,72.75-43.625c7-1.094,14.11-1.508,21.275-1.228c72.975,1.853,122.975,72.853,120.917,141.447
		c0.418,6.437,0.527,12.884,0.318,19.353c-1.885,58.223-29.629,118.693-72.007,160.188c-4.892,5.966-10.081,11.366-15.524,16.226
		c-5.444,4.859-11.142,9.18-17.052,12.988c-5.912,3.807-12.035,7.102-18.335,9.923c-65.927,40.45-144.829,20.806-197.328-31.652
		c-3.882-2.665-7.669-5.478-11.35-8.453c-11.036-8.92-21.089-19.302-29.853-31.122
		C257.296,1185.833,252.888,1179.215,248.15,1171.931z"/>
	<path fill="#F8E9F0" d="M1538.977,76.561c25.622-11.933,46.608-35.862,48.841-64.41c0.708-6.353,0.641-12.772-0.271-19.08
		c-0.913-6.308-2.674-12.505-5.355-18.417c-0.525-6.633-0.783-13.267-0.69-19.86c0.278-19.78,3.708-39.195,12.951-57.61
		c2.791-6.619,5.749-13.211,8.881-19.722c3.132-6.509,6.438-12.937,9.923-19.226c5.229-9.432,10.874-18.59,16.979-27.337
		c29.944-41.579,69.651-83.439,117.644-102.979c7.998-3.257,16.227-5.892,24.669-7.792c50.929-11.022,99.182,16.918,134.706,51.415
		c55.37,53.657,60.433,147.526,17.15,209.838c-3.653,5.487-7.578,10.792-11.765,15.88c-5.023,6.105-10.424,11.9-16.209,17.287
		c-24.723,22.779-58.561,27.246-90.401,31.626c-11.433,1.83-21.552,5.076-30.606,9.467c-7.596,3.799-14.344,8.381-20.471,13.585
		c-6.127,5.204-11.631,11.029-16.74,17.309c-3.751,7.771-8.123,15.663-13.074,23.27c-4.952,7.606-10.483,14.927-16.555,21.555
		c-28.548,33.372-74.591,33.361-116.028,24.144c-13.117-2.435-14.121,20.629-26.807,28.185
		c-19.593,9.856-40.222-4.266-51.946-20.774c-18.194-27.239-2.637-60.942,18.592-80.416
		C1533.88,81.087,1535.932,79.212,1538.977,76.561z"/>
</g>
<g id="圖層_1">
	<polygon fill="#E0E0E0" points="745.074,991.883 745.074,621.926 1329.601,990.766 	"/>
	
		<path fill="#FFFFFF" stroke="#3F3F3F" stroke-width="4" stroke-linecap="round" stroke-linejoin="round" stroke-miterlimit="10" d="
		M1576.655,803.559c0.569-2.26,1.26-4.44,2.059-6.548c3.993-10.539,10.686-19.268,18.328-26.888c2.293-2.286,4.671-4.472,7.088-6.58
		c2.44-1.886,4.946-3.873,7.429-5.97c2.481-2.096,4.939-4.301,7.283-6.623c15.932-13.719,23.932-37.719,11.932-56.719
		c-9-14-27-24-42-15c-8.5,4.5-14,11.25-18.171,19.061c-1.391,2.604-2.634,5.325-3.789,8.121c-0.84,3.303-1.873,6.5-3.059,9.613
		c-1.186,3.116-2.522,6.149-3.962,9.146c-10.02,22.06-29.02,41.06-26.854,66.96c-0.018,2.696,0.078,5.401,0.287,8.108
		c0.419,5.413,1.293,10.831,2.643,16.199c-0.208,2.253-0.661,4.488-1.442,6.701c-3.124,9.374-12.498,14.842-17.304,23.966
		c-1.355,2.039-2.715,4.04-4.135,6.007c-2.84,3.932-5.92,7.726-9.178,11.416c-2.635,3.253-5.159,6.582-7.419,10.014
		c-6.779,10.296-11.178,21.522-9.091,34.346c0.631,3.944,1.832,7.791,3.67,11.368c1.838,3.576,4.314,6.884,7.496,9.752
		c4.742,4.393,11.131,6.854,16.966,6.883c5.837,0.027,11.121-2.378,13.655-7.717c3.517-7.759,7.291-15.435,11.055-23.113
		c1.255-2.561,2.509-5.12,3.75-7.684c11.881-22.146,14.881-47.146,26.576-69.219c0.899-2.578,1.716-5.166,2.432-7.791
		s1.33-5.288,1.815-8.005L1576.655,803.559z"/>
	
		<circle fill="#FFFFFF" stroke="#3F3F3F" stroke-width="4" stroke-linecap="round" stroke-linejoin="round" stroke-miterlimit="10" cx="559.059" cy="409.423" r="17.95"/>
	
		<circle fill="#FFFFFF" stroke="#3F3F3F" stroke-width="4" stroke-linecap="round" stroke-linejoin="round" stroke-miterlimit="10" cx="1538.878" cy="301.853" r="87.112"/>
	
		<path fill="#FFFFFF" stroke="#3F3F3F" stroke-width="4" stroke-linecap="round" stroke-linejoin="round" stroke-miterlimit="10" d="
		M1352.379,447.291c-0.254,2.573-2.76,4.43-5.595,4.148l0,0c-2.836-0.282-4.925-2.597-4.67-5.171l0.69-6.926
		c0.256-2.573,2.762-4.431,5.597-4.149l0,0c2.834,0.283,4.923,2.598,4.668,5.172L1352.379,447.291z"/>
	
		<path fill="#FFFFFF" stroke="#3F3F3F" stroke-width="4" stroke-linecap="round" stroke-linejoin="round" stroke-miterlimit="10" d="
		M1336.684,526.492c-0.632,6.367-3.443,11.3-6.279,11.02l0,0c-2.835-0.284-4.618-5.673-3.985-12.044l1.707-17.138
		c0.633-6.367,3.445-11.301,6.28-11.021l0,0c2.834,0.283,4.616,5.675,3.984,12.044L1336.684,526.492z"/>
	
		<path fill="#FFFFFF" stroke="#3F3F3F" stroke-width="4" stroke-linecap="round" stroke-linejoin="round" stroke-miterlimit="10" d="
		M1353.795,450.783c0.36-3.572-2.243-6.759-5.814-7.12l0,0c-3.571-0.36-6.76,2.243-7.12,5.814l-12.717,108.689
		c-0.36,3.572,2.243,6.76,5.814,7.12l0,0c3.571,0.36,6.76-2.243,7.12-5.814L1353.795,450.783z"/>
	<path fill="#E0E0E0" d="M1336.183,559.125l12.717-108.689c0.161-1.669-0.054-2.327,1.722-3.33c-0.829-0.938-2.202-1.424-3.029-1.44
		c-2.625-0.051-4.718,1.198-5.078,4.77l-12.717,108.689c-0.36,3.572,2.243,6.76,5.814,7.119c1.388,0.141,2.715-0.171,3.843-0.809
		C1337.278,564.205,1335.916,561.772,1336.183,559.125z"/>
	
		<path fill="#FFFFFF" stroke="#3F3F3F" stroke-width="4" stroke-linecap="round" stroke-linejoin="round" stroke-miterlimit="10" d="
		M612.11,150.377c-0.51-6.104-0.862-10.538-6.591-11.063c-3.6-0.33-6.47,4.992-6.499,11.118c-0.04,8.628,2.977,11.078,6.591,11.061
		C609.226,161.48,612.907,159.918,612.11,150.377z"/>
	
		<rect x="429.885" y="449.2" transform="matrix(0.9853 -0.1711 0.1711 0.9853 -80.0394 82.2454)" fill="#FFFFFF" stroke="#3F3F3F" stroke-width="4" stroke-linecap="round" stroke-linejoin="round" stroke-miterlimit="10" width="14.405" height="112.466"/>
	
		<path fill="#FFFFFF" stroke="#3F3F3F" stroke-width="4" stroke-linecap="round" stroke-linejoin="round" stroke-miterlimit="10" d="
		M618.665,168.532c7.577,15.106,3.935,17.435,0.033,19.16c-3.9,1.727-3.994,5.794-14.157-12.907
		c-4.624-8.508-3.935-17.433-0.034-19.158C608.408,153.9,614.324,159.877,618.665,168.532z"/>
	
		<path fill="#FFFFFF" stroke="#3F3F3F" stroke-width="4" stroke-linecap="round" stroke-linejoin="round" stroke-miterlimit="10" d="
		M644.938,182.729c5.132-14.352,0.738-17.857-3.412-18.854c-4.146-0.998-7.71,4.502-11.605,15.241
		c-3.302,9.103-0.737,17.856,3.41,18.853C637.479,198.966,641.678,191.846,644.938,182.729z"/>
	
		<path fill="#FFFFFF" stroke="#3F3F3F" stroke-width="4" stroke-linecap="round" stroke-linejoin="round" stroke-miterlimit="10" d="
		M641.3,200.009c0,10.549-2.909,18.904-15.447,19.1c-11.095,0.172-15.447-8.551-15.447-19.1c0-10.547,6.916-19.098,15.447-19.098
		C634.385,180.911,641.3,185.107,641.3,200.009z"/>
	
		<ellipse fill="#FFFFFF" stroke="#3F3F3F" stroke-width="4" stroke-linecap="round" stroke-linejoin="round" stroke-miterlimit="10" cx="447.36" cy="566.351" rx="15.674" ry="15.95"/>
	
		<rect x="358.76" y="600.118" fill="#FFFFFF" stroke="#3F3F3F" stroke-width="4" stroke-linecap="round" stroke-linejoin="round" stroke-miterlimit="10" width="1006.652" height="21.808"/>
	
		<rect x="386.24" y="253.536" fill="#FFFFFF" stroke="#3F3F3F" stroke-width="4" stroke-linecap="round" stroke-linejoin="round" stroke-miterlimit="10" width="283.971" height="19.606"/>
	
		<rect x="377.569" y="621.926" fill="#FFFFFF" stroke="#3F3F3F" stroke-width="4" stroke-linecap="round" stroke-linejoin="round" stroke-miterlimit="10" width="21.806" height="368.84"/>
	
		<rect x="1330.463" y="621.926" fill="#FFFFFF" stroke="#3F3F3F" stroke-width="4" stroke-linecap="round" stroke-linejoin="round" stroke-miterlimit="10" width="20.766" height="368.84"/>
	
		<rect x="723.268" y="621.926" fill="#FFFFFF" stroke="#3F3F3F" stroke-width="4" stroke-linecap="round" stroke-linejoin="round" stroke-miterlimit="10" width="21.806" height="368.84"/>
	
		<rect x="399.651" y="621.926" fill="#FFFFFF" stroke="#3F3F3F" stroke-width="4" stroke-linecap="round" stroke-linejoin="round" stroke-miterlimit="10" width="323.622" height="100.853"/>
	
		<rect x="399.651" y="722.778" fill="#FFFFFF" stroke="#3F3F3F" stroke-width="4" stroke-linecap="round" stroke-linejoin="round" stroke-miterlimit="10" width="323.622" height="100.854"/>
	
		<rect x="399.651" y="823.632" fill="#FFFFFF" stroke="#3F3F3F" stroke-width="4" stroke-linecap="round" stroke-linejoin="round" stroke-miterlimit="10" width="323.622" height="152.234"/>
	
		<polygon fill="#FFFFFF" stroke="#3F3F3F" stroke-width="4" stroke-linecap="round" stroke-linejoin="round" stroke-miterlimit="10" points="
		1351.469,558.956 1313.725,558.956 1317.993,598.559 1346.509,598.559 	"/>
	
		<path fill="#FFFFFF" stroke="#3F3F3F" stroke-width="4" stroke-linecap="round" stroke-linejoin="round" stroke-miterlimit="10" d="
		M516.022,599.28c-2.138-17.452-27.476-31.231-58.44-31.231c-30.966,0-56.305,13.779-58.441,31.231H516.022z"/>
	<path fill="#EAEAEA" d="M457.582,578.44c26.13,0,48.042,5.922,54.134,18.371h1.557c-2.038-14.89-26.183-26.645-55.69-26.645
		c-29.509,0-53.655,11.755-55.691,26.645h1.557C409.539,584.362,431.451,578.44,457.582,578.44z"/>
	
		<path fill="#FFFFFF" stroke="#3F3F3F" stroke-width="4" stroke-linecap="round" stroke-linejoin="round" stroke-miterlimit="10" d="
		M1276.816,599.28c-1.017-17.452-13.055-31.231-27.768-31.231c-14.712,0-26.752,13.779-27.767,31.231H1276.816z"/>
	
		<rect x="461.283" y="341.873" transform="matrix(0.7351 0.678 -0.678 0.7351 394.0412 -212.1603)" fill="#FFFFFF" stroke="#3F3F3F" stroke-width="4" stroke-linecap="round" stroke-linejoin="round" stroke-miterlimit="10" width="14.405" height="112.466"/>
	
		<ellipse transform="matrix(0.9852 -0.1712 0.1712 0.9852 -69.5901 79.5103)" fill="#FFFFFF" stroke="#3F3F3F" stroke-width="4" stroke-linecap="round" stroke-linejoin="round" stroke-miterlimit="10" cx="426.295" cy="443.316" rx="15.672" ry="15.948"/>
	<path fill="#EAEAEA" d="M439.053,440.848c-1.542,4.004-5.349,7.144-10.274,7.911c-6.552,1.019-12.817-2.511-14.922-8.071
		c-0.73,1.897-0.958,3.986-0.545,6.113c1.283,6.616,8.208,11.062,15.467,9.933c7.259-1.13,12.103-7.409,10.819-14.023
		C439.473,442.065,439.28,441.448,439.053,440.848z"/>
	
		<rect x="498.437" y="336.591" transform="matrix(0.7524 -0.6587 0.6587 0.7524 -106.8972 422.8906)" fill="#FFFFFF" stroke="#3F3F3F" stroke-width="4" stroke-linecap="round" stroke-linejoin="round" stroke-miterlimit="10" width="21.19" height="34.074"/>
	
		<rect x="411.124" y="139.3" fill="#FFFFFF" stroke="#3F3F3F" stroke-width="4" stroke-linecap="round" stroke-linejoin="round" stroke-miterlimit="10" width="16.356" height="113.643"/>
	
		<rect x="565.441" y="171.247" fill="#FFFFFF" stroke="#3F3F3F" stroke-width="4" stroke-linecap="round" stroke-linejoin="round" stroke-miterlimit="10" width="16.356" height="81.696"/>
	
		<rect x="427.48" y="112.923" fill="#FFFFFF" stroke="#3F3F3F" stroke-width="4" stroke-linecap="round" stroke-linejoin="round" stroke-miterlimit="10" width="29.983" height="140.02"/>
	
		<rect x="457.463" y="131.123" fill="#FFFFFF" stroke="#3F3F3F" stroke-width="4" stroke-linecap="round" stroke-linejoin="round" stroke-miterlimit="10" width="23.169" height="121.819"/>
	
		<rect x="570.492" y="528.18" fill="#FFFFFF" stroke="#3F3F3F" stroke-width="4" stroke-linecap="round" stroke-linejoin="round" stroke-miterlimit="10" width="113.643" height="16.355"/>
	
		<rect x="549.763" y="569.199" fill="#FFFFFF" stroke="#3F3F3F" stroke-width="4" stroke-linecap="round" stroke-linejoin="round" stroke-miterlimit="10" width="140.02" height="29.983"/>
	
		<rect x="590.309" y="545.309" fill="#FFFFFF" stroke="#3F3F3F" stroke-width="4" stroke-linecap="round" stroke-linejoin="round" stroke-miterlimit="10" width="121.819" height="23.169"/>
	
		<rect x="480.632" y="146.266" fill="#FFFFFF" stroke="#3F3F3F" stroke-width="4" stroke-linecap="round" stroke-linejoin="round" stroke-miterlimit="10" width="19.08" height="106.676"/>
	
		<rect x="525.08" y="139.3" fill="#FFFFFF" stroke="#3F3F3F" stroke-width="4" stroke-linecap="round" stroke-linejoin="round" stroke-miterlimit="10" width="40.361" height="113.643"/>
	
		<rect x="499.712" y="121.583" fill="#FFFFFF" stroke="#3F3F3F" stroke-width="4" stroke-linecap="round" stroke-linejoin="round" stroke-miterlimit="10" width="24.532" height="131.359"/>
	
		<rect x="609.316" y="215.018" fill="#FFFFFF" stroke="#3F3F3F" stroke-width="4" stroke-linecap="round" stroke-linejoin="round" stroke-miterlimit="10" width="34.166" height="37.212"/>
	
		<line fill="none" stroke="#3F3F3F" stroke-width="4" stroke-linecap="round" stroke-linejoin="round" stroke-miterlimit="10" x1="172.953" y1="991.883" x2="1697.262" y2="991.883"/>
	
		<path fill="#FFFFFF" stroke="#3F3F3F" stroke-width="4" stroke-linecap="round" stroke-linejoin="round" stroke-miterlimit="10" d="
		M583.244,364.259c9.984,9.986-3.827,29.632-24.185,45.164c-20.359,15.531-38.54,22.085-46.938,13.687
		c-13.298-13.297-9.232-45.519,11.127-61.051C543.607,346.528,569.947,350.961,583.244,364.259z"/>
	<path fill="#EAEAEA" d="M533.176,417.667c-12.176-12.554-8.453-42.975,10.189-57.639c2.984-2.347,6.109-4.206,9.302-5.63
		c-9.778-0.688-20.316,1.95-29.521,9.189c-18.643,14.665-22.366,45.085-10.188,57.64c4.994,5.149,13.768,4.34,24.411-0.872
		C535.774,419.783,534.367,418.894,533.176,417.667z"/>
	
		<path fill="#FFFFFF" stroke="#3F3F3F" stroke-width="4" stroke-linecap="round" stroke-linejoin="round" stroke-miterlimit="10" d="
		M1291.181,521.222c0,8.926-7.235,16.161-16.161,16.161H846.941c-8.926,0-16.16-7.235-16.16-16.161V255.271
		c0-8.925,7.234-16.16,16.16-16.16h428.079c8.926,0,16.161,7.235,16.161,16.16V521.222z"/>
	
		<rect x="952.315" y="589.819" fill="#FFFFFF" stroke="#3F3F3F" stroke-width="4" stroke-linecap="round" stroke-linejoin="round" stroke-miterlimit="10" width="217.331" height="9.461"/>
	
		<path fill="#FFFFFF" stroke="#3F3F3F" stroke-width="4" stroke-linecap="round" stroke-linejoin="round" stroke-miterlimit="10" d="
		M1120.48,537.535c11.52,0-128.187,0-119,0c6.854,0,0,52.284,0,52.284h119C1120.48,589.819,1111.334,537.535,1120.48,537.535z"/>
	
		<line fill="none" stroke="#3F3F3F" stroke-width="4" stroke-linecap="round" stroke-linejoin="round" stroke-miterlimit="10" x1="830.781" y1="505.433" x2="1291.181" y2="505.433"/>
	<g>
		
			<circle fill="#FFFFFF" stroke="#3F3F3F" stroke-width="4" stroke-linecap="round" stroke-linejoin="round" stroke-miterlimit="10" cx="801.864" cy="563.633" r="24.194"/>
		
			<circle fill="#FFFFFF" stroke="#3F3F3F" stroke-width="4" stroke-linecap="round" stroke-linejoin="round" stroke-miterlimit="10" cx="801.864" cy="563.633" r="10.31"/>
	</g>
	
		<path fill="#FFFFFF" stroke="#3F3F3F" stroke-width="4" stroke-linecap="round" stroke-linejoin="round" stroke-miterlimit="10" d="
		M801.863,537.621v61.328h-73.596v-61.328c0-7.851,6.363-14.217,14.217-14.217h45.164
		C795.5,523.404,801.863,529.771,801.863,537.621z"/>
	<path fill="#EAEAEA" d="M754.348,525.438h-11.939c-6.534,0-11.975,4.313-11.975,13.974v57.328h11.939v-57.328
		C742.373,531.561,747.121,525.438,754.348,525.438z"/>
	
		<path fill="#FFFFFF" stroke="#3F3F3F" stroke-width="4" stroke-linecap="round" stroke-linejoin="round" stroke-miterlimit="10" d="
		M765.699,469.766c10.896,21.023-12.242,17.126-0.666,35.747"/>
	
		<path fill="#FFFFFF" stroke="#3F3F3F" stroke-width="4" stroke-linecap="round" stroke-linejoin="round" stroke-miterlimit="10" d="
		M780.875,479.167c5.223,10.61-7.279,16.517-1.055,26.346"/>
	
		<path fill="#FFFFFF" stroke="#3F3F3F" stroke-width="4" stroke-linecap="round" stroke-linejoin="round" stroke-miterlimit="10" d="
		M750.146,479.167c5.225,10.61-7.639,13.173-1.055,26.347"/>
	<g>
		<path fill="#FFFFFF" d="M561.462,672.451c5.836,0,10.83,3.597,12.893,8.692c0.652-1.61,1.015-3.37,1.015-5.215
			c0-7.681-6.227-13.908-13.908-13.908s-13.908,6.228-13.908,13.908c0,1.845,0.363,3.604,1.015,5.215
			C550.632,676.048,555.625,672.451,561.462,672.451z"/>
		<path fill="#3F3F3F" d="M561.462,672.451l2.056,0.138c0.339,0.042,0.674,0.131,1.012,0.194l1.018,0.204
			c0.337,0.077,0.655,0.218,0.985,0.324l0.99,0.335c0.327,0.122,0.625,0.306,0.942,0.453l0.951,0.462
			c0.6,0.364,1.176,0.776,1.791,1.157c0.559,0.442,1.096,0.926,1.661,1.397c0.509,0.519,0.994,1.075,1.523,1.62
			c0.44,0.599,0.887,1.214,1.377,1.835h-2.824c0.252-0.982,0.488-1.956,0.526-2.951c0.058-0.491,0.026-0.988,0.027-1.478
			l-0.001-0.185v-0.022c-0.002-0.089,0.003,0.107,0.002,0.082l-0.001-0.013l-0.005-0.053l-0.011-0.106l-0.043-0.423l-0.09-0.84
			c-0.184-0.846-0.384-1.804-0.787-2.69c-0.344-0.9-0.848-1.724-1.375-2.517c-0.594-0.748-1.201-1.487-1.936-2.095
			c-0.702-0.643-1.514-1.146-2.34-1.599c-0.853-0.398-1.715-0.801-2.642-0.993c-0.911-0.251-1.859-0.318-2.805-0.356
			c-0.301,0.025-1.138,0.018-1.51,0.084c-0.423,0.074-0.83,0.092-1.304,0.232c-0.934,0.179-1.806,0.569-2.671,0.96
			c-0.839,0.443-1.667,0.939-2.385,1.579c-0.751,0.604-1.377,1.343-1.991,2.094c-0.546,0.797-1.07,1.628-1.433,2.539
			c-0.417,0.892-0.646,1.856-0.848,2.832c-0.053,0.471-0.145,1.041-0.166,1.443c-0.006,0.56-0.033,1.174,0.016,1.605
			c0.019,0.238,0.019,0.474,0.048,0.722l0.121,0.757c0.053,0.517,0.227,1.003,0.333,1.517h-2.205
			c0.443-0.623,0.868-1.234,1.276-1.838c0.499-0.55,0.961-1.108,1.447-1.636c0.545-0.478,1.064-0.968,1.607-1.419l0.876-0.602
			c0.293-0.195,0.568-0.414,0.872-0.588l0.941-0.47c0.314-0.15,0.607-0.342,0.93-0.469l0.982-0.348
			c0.329-0.107,0.646-0.249,0.982-0.327c0.68-0.125,1.346-0.305,2.023-0.421L561.462,672.451z M561.462,672.451l-2.051,0.186
			c-0.337,0.055-0.667,0.157-1,0.233c-0.332,0.084-0.666,0.161-0.994,0.256c-0.325,0.104-0.629,0.271-0.943,0.401l-0.931,0.418
			c-0.303,0.151-0.58,0.355-0.866,0.536l-0.839,0.569c-0.267,0.205-0.503,0.452-0.754,0.674l-0.732,0.687
			c-0.424,0.521-0.821,1.058-1.22,1.577c-0.314,0.588-0.621,1.169-0.908,1.746c-0.207,0.625-0.386,1.247-0.553,1.855
			c-0.166,0.604-0.79,0.96-1.394,0.794c-0.333-0.091-0.59-0.322-0.727-0.612l-0.084-0.182c-0.524-1.13-0.995-2.239-1.227-3.559
			c-0.165-0.686-0.19-1.207-0.262-1.778c-0.06-0.729-0.032-1.291-0.038-1.95c0.106-1.264,0.29-2.544,0.7-3.766
			c0.355-1.243,0.967-2.393,1.618-3.514c0.719-1.075,1.505-2.13,2.481-3c0.935-0.914,2.019-1.665,3.15-2.33
			c1.16-0.613,2.378-1.146,3.663-1.448c0.612-0.191,1.337-0.287,2.032-0.395c0.748-0.102,1.05-0.087,1.878-0.143
			c1.316,0.039,2.64,0.152,3.92,0.496c1.292,0.29,2.52,0.812,3.692,1.415c1.144,0.657,2.243,1.4,3.195,2.311
			c0.993,0.867,1.797,1.922,2.536,3c0.669,1.125,1.301,2.281,1.675,3.536c0.425,1.227,0.636,2.514,0.761,3.908l0.002,0.856
			l-0.001,0.425l-0.001,0.313l-0.022,0.24c-0.064,0.64-0.095,1.28-0.25,1.904c-0.211,1.264-0.683,2.461-1.202,3.604l-0.142,0.313
			c-0.324,0.713-1.165,1.028-1.877,0.704c-0.43-0.195-0.717-0.587-0.805-1.018c-0.12-0.609-0.277-1.229-0.451-1.857
			c-0.257-0.581-0.542-1.165-0.833-1.762c-0.379-0.525-0.758-1.068-1.166-1.6l-0.708-0.702c-0.244-0.228-0.471-0.484-0.736-0.689
			l-0.829-0.576c-0.283-0.185-0.555-0.396-0.854-0.553l-0.923-0.431c-0.313-0.132-0.617-0.3-0.94-0.404l-0.988-0.265
			c-0.332-0.081-0.661-0.188-0.999-0.247L561.462,672.451z"/>
	</g>
	<path fill="#E0E0E0" d="M561.462,683.976c4.01,0,7.441-2.168,8.858-5.239c0.448,0.971,0.698,2.031,0.698,3.143
		c0,4.63-4.279,8.383-9.556,8.383c-5.278,0-9.556-3.753-9.556-8.383c0-1.111,0.25-2.172,0.697-3.143
		C554.021,681.808,557.452,683.976,561.462,683.976z"/>
	<g>
		<path fill="#FFFFFF" d="M561.462,770.282c5.836,0,10.83,3.597,12.893,8.692c0.652-1.61,1.015-3.37,1.015-5.215
			c0-7.681-6.227-13.908-13.908-13.908s-13.908,6.228-13.908,13.908c0,1.845,0.363,3.604,1.015,5.215
			C550.632,773.879,555.625,770.282,561.462,770.282z"/>
		<path fill="#3F3F3F" d="M561.462,770.282l2.056,0.138c0.339,0.042,0.674,0.131,1.012,0.194l1.018,0.204
			c0.337,0.077,0.655,0.218,0.985,0.324l0.99,0.335c0.327,0.122,0.625,0.306,0.942,0.453l0.951,0.462
			c0.6,0.364,1.176,0.776,1.791,1.157c0.559,0.442,1.096,0.926,1.661,1.397c0.509,0.519,0.994,1.075,1.523,1.62
			c0.44,0.599,0.887,1.214,1.377,1.835h-2.824c0.252-0.982,0.488-1.956,0.526-2.951c0.058-0.491,0.026-0.988,0.027-1.478
			l-0.001-0.185v-0.022c-0.002-0.089,0.003,0.107,0.002,0.082l-0.001-0.013l-0.005-0.053l-0.011-0.106l-0.043-0.423l-0.09-0.84
			c-0.184-0.846-0.384-1.804-0.787-2.69c-0.344-0.9-0.848-1.724-1.375-2.517c-0.594-0.748-1.201-1.487-1.936-2.095
			c-0.702-0.643-1.514-1.146-2.34-1.599c-0.853-0.398-1.715-0.801-2.642-0.993c-0.911-0.251-1.859-0.318-2.805-0.356
			c-0.301,0.025-1.138,0.018-1.51,0.084c-0.423,0.074-0.83,0.092-1.304,0.232c-0.934,0.179-1.806,0.569-2.671,0.96
			c-0.839,0.443-1.667,0.939-2.385,1.579c-0.751,0.604-1.377,1.343-1.991,2.094c-0.546,0.797-1.07,1.628-1.433,2.539
			c-0.417,0.892-0.646,1.856-0.848,2.832c-0.053,0.471-0.145,1.041-0.166,1.443c-0.006,0.56-0.033,1.174,0.016,1.605
			c0.019,0.238,0.019,0.474,0.048,0.722l0.121,0.757c0.053,0.517,0.227,1.003,0.333,1.517h-2.205
			c0.443-0.623,0.868-1.234,1.276-1.838c0.499-0.55,0.961-1.108,1.447-1.636c0.545-0.478,1.064-0.968,1.607-1.419l0.876-0.602
			c0.293-0.195,0.568-0.414,0.872-0.588l0.941-0.47c0.314-0.15,0.607-0.342,0.93-0.469l0.982-0.348
			c0.329-0.107,0.646-0.249,0.982-0.327c0.68-0.125,1.346-0.305,2.023-0.421L561.462,770.282z M561.462,770.282l-2.051,0.186
			c-0.337,0.055-0.667,0.157-1,0.233c-0.332,0.084-0.666,0.161-0.994,0.256c-0.325,0.104-0.629,0.271-0.943,0.401l-0.931,0.418
			c-0.303,0.151-0.58,0.355-0.866,0.536l-0.839,0.569c-0.267,0.205-0.503,0.452-0.754,0.674l-0.732,0.687
			c-0.424,0.521-0.821,1.058-1.22,1.577c-0.314,0.588-0.621,1.169-0.908,1.746c-0.207,0.625-0.386,1.247-0.553,1.855
			c-0.166,0.604-0.79,0.96-1.394,0.794c-0.333-0.091-0.59-0.322-0.727-0.612l-0.084-0.182c-0.524-1.13-0.995-2.239-1.227-3.559
			c-0.165-0.686-0.19-1.207-0.262-1.778c-0.06-0.729-0.032-1.291-0.038-1.95c0.106-1.264,0.29-2.544,0.7-3.766
			c0.355-1.243,0.967-2.393,1.618-3.514c0.719-1.075,1.505-2.13,2.481-3c0.935-0.914,2.019-1.665,3.15-2.33
			c1.16-0.613,2.378-1.146,3.663-1.448c0.612-0.191,1.337-0.287,2.032-0.395c0.748-0.102,1.05-0.087,1.878-0.143
			c1.316,0.039,2.64,0.152,3.92,0.496c1.292,0.29,2.52,0.812,3.692,1.415c1.144,0.657,2.243,1.4,3.195,2.311
			c0.993,0.867,1.797,1.922,2.536,3c0.669,1.125,1.301,2.281,1.675,3.536c0.425,1.227,0.636,2.514,0.761,3.908l0.002,0.856
			l-0.001,0.425l-0.001,0.313l-0.022,0.24c-0.064,0.64-0.095,1.28-0.25,1.904c-0.211,1.264-0.683,2.461-1.202,3.604l-0.142,0.313
			c-0.324,0.713-1.165,1.028-1.877,0.704c-0.43-0.195-0.717-0.587-0.805-1.018c-0.12-0.609-0.277-1.229-0.451-1.857
			c-0.257-0.581-0.542-1.165-0.833-1.762c-0.379-0.525-0.758-1.068-1.166-1.6l-0.708-0.702c-0.244-0.228-0.471-0.484-0.736-0.689
			l-0.829-0.576c-0.283-0.185-0.555-0.396-0.854-0.553l-0.923-0.431c-0.313-0.132-0.617-0.3-0.94-0.404l-0.988-0.265
			c-0.332-0.081-0.661-0.188-0.999-0.247L561.462,770.282z"/>
	</g>
	<path fill="#E0E0E0" d="M561.462,781.807c4.01,0,7.441-2.168,8.858-5.239c0.448,0.971,0.698,2.031,0.698,3.143
		c0,4.63-4.279,8.383-9.556,8.383c-5.278,0-9.556-3.753-9.556-8.383c0-1.111,0.25-2.172,0.697-3.143
		C554.021,779.639,557.452,781.807,561.462,781.807z"/>
	<g>
		<path fill="#FFFFFF" d="M561.462,910.18c5.836,0,10.83,3.597,12.893,8.692c0.652-1.61,1.015-3.37,1.015-5.215
			c0-7.681-6.227-13.908-13.908-13.908s-13.908,6.228-13.908,13.908c0,1.845,0.363,3.604,1.015,5.215
			C550.632,913.776,555.625,910.18,561.462,910.18z"/>
		<path fill="#3F3F3F" d="M561.462,910.18l2.056,0.138c0.339,0.042,0.674,0.131,1.012,0.194l1.018,0.204
			c0.337,0.077,0.655,0.218,0.985,0.324l0.99,0.335c0.327,0.122,0.625,0.306,0.942,0.453l0.951,0.462
			c0.6,0.364,1.176,0.776,1.791,1.157c0.559,0.442,1.096,0.926,1.661,1.397c0.509,0.519,0.994,1.075,1.523,1.62
			c0.44,0.599,0.887,1.214,1.377,1.835h-2.824c0.252-0.982,0.488-1.956,0.526-2.951c0.058-0.491,0.026-0.988,0.027-1.478
			l-0.001-0.185v-0.022c-0.002-0.089,0.003,0.107,0.002,0.082l-0.001-0.013l-0.005-0.053l-0.011-0.106l-0.043-0.423l-0.09-0.84
			c-0.184-0.846-0.384-1.804-0.787-2.69c-0.344-0.9-0.848-1.724-1.375-2.517c-0.594-0.748-1.201-1.487-1.936-2.095
			c-0.702-0.643-1.514-1.146-2.34-1.599c-0.853-0.398-1.715-0.801-2.642-0.993c-0.911-0.251-1.859-0.318-2.805-0.356
			c-0.301,0.025-1.138,0.018-1.51,0.084c-0.423,0.074-0.83,0.092-1.304,0.232c-0.934,0.179-1.806,0.569-2.671,0.96
			c-0.839,0.443-1.667,0.939-2.385,1.579c-0.751,0.604-1.377,1.343-1.991,2.094c-0.546,0.797-1.07,1.628-1.433,2.539
			c-0.417,0.892-0.646,1.856-0.848,2.832c-0.053,0.471-0.145,1.041-0.166,1.443c-0.006,0.56-0.033,1.174,0.016,1.605
			c0.019,0.238,0.019,0.474,0.048,0.722l0.121,0.757c0.053,0.517,0.227,1.003,0.333,1.517h-2.205
			c0.443-0.623,0.868-1.234,1.276-1.838c0.499-0.55,0.961-1.108,1.447-1.636c0.545-0.478,1.064-0.968,1.607-1.419l0.876-0.602
			c0.293-0.195,0.568-0.414,0.872-0.588l0.941-0.47c0.314-0.15,0.607-0.342,0.93-0.469l0.982-0.348
			c0.329-0.107,0.646-0.249,0.982-0.327c0.68-0.125,1.346-0.305,2.023-0.421L561.462,910.18z M561.462,910.18l-2.051,0.186
			c-0.337,0.055-0.667,0.157-1,0.233c-0.332,0.084-0.666,0.161-0.994,0.256c-0.325,0.104-0.629,0.271-0.943,0.401l-0.931,0.418
			c-0.303,0.151-0.58,0.355-0.866,0.536l-0.839,0.569c-0.267,0.205-0.503,0.452-0.754,0.674l-0.732,0.687
			c-0.424,0.521-0.821,1.058-1.22,1.577c-0.314,0.588-0.621,1.169-0.908,1.746c-0.207,0.625-0.386,1.247-0.553,1.855
			c-0.166,0.604-0.79,0.96-1.394,0.794c-0.333-0.091-0.59-0.322-0.727-0.612l-0.084-0.182c-0.524-1.13-0.995-2.239-1.227-3.559
			c-0.165-0.686-0.19-1.207-0.262-1.778c-0.06-0.729-0.032-1.291-0.038-1.95c0.106-1.264,0.29-2.544,0.7-3.766
			c0.355-1.243,0.967-2.393,1.618-3.514c0.719-1.075,1.505-2.13,2.481-3c0.935-0.914,2.019-1.665,3.15-2.33
			c1.16-0.613,2.378-1.146,3.663-1.448c0.612-0.191,1.337-0.287,2.032-0.395c0.748-0.102,1.05-0.087,1.878-0.143
			c1.316,0.039,2.64,0.152,3.92,0.496c1.292,0.29,2.52,0.812,3.692,1.415c1.144,0.657,2.243,1.4,3.195,2.311
			c0.993,0.867,1.797,1.922,2.536,3c0.669,1.125,1.301,2.281,1.675,3.536c0.425,1.227,0.636,2.514,0.761,3.908l0.002,0.856
			l-0.001,0.425l-0.001,0.313l-0.022,0.24c-0.064,0.64-0.095,1.28-0.25,1.904c-0.211,1.264-0.683,2.461-1.202,3.604l-0.142,0.313
			c-0.324,0.713-1.165,1.028-1.877,0.704c-0.43-0.195-0.717-0.587-0.805-1.018c-0.12-0.609-0.277-1.229-0.451-1.857
			c-0.257-0.581-0.542-1.165-0.833-1.762c-0.379-0.525-0.758-1.068-1.166-1.6l-0.708-0.702c-0.244-0.228-0.471-0.484-0.736-0.689
			l-0.829-0.576c-0.283-0.185-0.555-0.396-0.854-0.553l-0.923-0.431c-0.313-0.132-0.617-0.3-0.94-0.404l-0.988-0.265
			c-0.332-0.081-0.661-0.188-0.999-0.247L561.462,910.18z"/>
	</g>
	<path fill="#E0E0E0" d="M561.462,921.704c4.01,0,7.441-2.168,8.858-5.239c0.448,0.971,0.698,2.031,0.698,3.143
		c0,4.63-4.279,8.383-9.556,8.383c-5.278,0-9.556-3.753-9.556-8.383c0-1.111,0.25-2.172,0.697-3.143
		C554.021,919.536,557.452,921.704,561.462,921.704z"/>
	<path fill="#E0E0E0" d="M1279.724,482.06c0,6.782-5.471,12.28-12.218,12.28H980.375c-6.748,0-12.219-5.498-12.219-12.28V265
		c0-6.782,5.471-12.28,12.219-12.28h287.131c6.747,0,12.218,5.498,12.218,12.28V482.06z"/>
	<path fill="#E0E0E0" d="M960.156,368.332c0,5.639-5.373,10.21-12,10.21h-92.061c-6.627,0-12-4.571-12-10.21V336.81
		c0-5.639,5.373-10.21,12-10.21h92.061c6.627,0,12,4.571,12,10.21V368.332z"/>
	<path fill="#EAEAEA" d="M960,407.375c0,6.627-5.373,12-12,12h-91.904c-6.627,0-12-5.373-12-12v-7.499c0-6.627,5.373-12,12-12H948
		c6.627,0,12,5.373,12,12V407.375z"/>
	<path fill="#E0E0E0" d="M960,444.042c0,6.627-5.373,12-12,12h-91.904c-6.627,0-12-5.373-12-12v-7.499c0-6.627,5.373-12,12-12H948
		c6.627,0,12,5.373,12,12V444.042z"/>
	<path fill="#EAEAEA" d="M960,480.708c0,6.627-5.373,12-12,12h-91.904c-6.627,0-12-5.373-12-12v-7.499c0-6.627,5.373-12,12-12H948
		c6.627,0,12,5.373,12,12V480.708z"/>
	<path fill="#EAEAEA" d="M960,256.564c0,1.474-3.636,2.668-8.122,2.668H889.68c-4.485,0-8.121-1.195-8.121-2.668v-1.667
		c0-1.474,3.636-2.668,8.121-2.668h62.198c4.485,0,8.122,1.195,8.122,2.668V256.564z"/>
	<path fill="#E0E0E0" d="M960,268.718c0,1.474-3.636,2.668-8.122,2.668H889.68c-4.485,0-8.121-1.194-8.121-2.668v-1.667
		c0-1.474,3.636-2.668,8.121-2.668h62.198c4.485,0,8.122,1.194,8.122,2.668V268.718z"/>
	<path fill="#EAEAEA" d="M960,281.871c0,1.474-3.636,2.668-8.122,2.668H889.68c-4.485,0-8.121-1.195-8.121-2.668v-1.667
		c0-1.474,3.636-2.668,8.121-2.668h62.198c4.485,0,8.122,1.195,8.122,2.668V281.871z"/>
	<path fill="#E0E0E0" d="M960,295.999c0,1.474-5.274,2.668-11.78,2.668h-90.215c-6.506,0-11.779-1.194-11.779-2.668v-1.667
		c0-1.474,5.273-2.668,11.779-2.668h90.215c6.505,0,11.78,1.194,11.78,2.668V295.999z"/>
	<path fill="#EAEAEA" d="M960,309.152c0,1.474-5.274,2.668-11.78,2.668h-90.215c-6.506,0-11.779-1.195-11.779-2.668v-1.667
		c0-1.474,5.273-2.668,11.779-2.668h90.215c6.505,0,11.78,1.195,11.78,2.668V309.152z"/>
	<circle fill="#E0E0E0" cx="857.269" cy="265.893" r="13.173"/>
	<circle fill="#EAEAEA" cx="990.216" cy="330.914" r="9.216"/>
	<path fill="#EAEAEA" d="M1139,336.477c0,4.028,5.372,7.293,12,7.293h106.482c6.627,0,12-3.266,12-7.293v-64.72
		c0-4.028-5.373-7.293-12-7.293H1151c-6.628,0-12,3.266-12,7.293V336.477z"/>
	<path fill="#EAEAEA" d="M981,420.359c0,3.841,5.992,6.954,13.385,6.954h118.772c7.392,0,13.386-3.113,13.386-6.954v-61.708
		c0-3.841-5.994-6.954-13.386-6.954H994.385c-7.393,0-13.385,3.113-13.385,6.954V420.359z"/>
	<path fill="#DBDBDB" d="M1147.354,282.363c0,1.474,5.274,2.668,11.779,2.668h90.216c6.506,0,11.779-1.194,11.779-2.668v-1.667
		c0-1.474-5.273-2.668-11.779-2.668h-90.216c-6.505,0-11.779,1.194-11.779,2.668V282.363z"/>
	<path fill="#DBDBDB" d="M1147.354,296.92c0,1.474,5.274,2.668,11.779,2.668h90.216c6.506,0,11.779-1.194,11.779-2.668v-1.667
		c0-1.474-5.273-2.668-11.779-2.668h-90.216c-6.505,0-11.779,1.194-11.779,2.668V296.92z"/>
	<path fill="#DBDBDB" d="M1147.354,311.477c0,1.474,5.274,2.668,11.779,2.668h90.216c6.506,0,11.779-1.194,11.779-2.668v-1.667
		c0-1.474-5.273-2.668-11.779-2.668h-90.216c-6.505,0-11.779,1.194-11.779,2.668V311.477z"/>
	<path fill="#DBDBDB" d="M1147.354,326.034c0,1.474,5.274,2.668,11.779,2.668h90.216c6.506,0,11.779-1.194,11.779-2.668v-1.667
		c0-1.474-5.273-2.668-11.779-2.668h-90.216c-6.505,0-11.779,1.194-11.779,2.668V326.034z"/>
	<path fill="#F2F2F2" d="M1139,478.311c0,2.573,5.372,4.659,12,4.659h106.482c6.627,0,12-2.086,12-4.659v-41.338
		c0-2.573-5.373-4.659-12-4.659H1151c-6.628,0-12,2.086-12,4.659V478.311z"/>
	<path fill="#DBDBDB" d="M1147.354,450.676c0,1.474,5.274,2.668,11.779,2.668h90.216c6.506,0,11.779-1.194,11.779-2.668v-1.667
		c0-1.474-5.273-2.668-11.779-2.668h-90.216c-6.505,0-11.779,1.194-11.779,2.668V450.676z"/>
	<path fill="#DBDBDB" d="M1147.354,465.233c0,1.474,5.274,2.668,11.779,2.668h90.216c6.506,0,11.779-1.194,11.779-2.668v-1.667
		c0-1.474-5.273-2.668-11.779-2.668h-90.216c-6.505,0-11.779,1.194-11.779,2.668V465.233z"/>
	<path fill="#DBDBDB" d="M996.884,368.504c0,1.474,5.274,2.668,11.779,2.668h90.216c6.506,0,11.779-1.194,11.779-2.668v-1.667
		c0-1.474-5.273-2.668-11.779-2.668h-90.216c-6.505,0-11.779,1.194-11.779,2.668V368.504z"/>
	<path fill="#DBDBDB" d="M996.884,383.061c0,1.474,5.274,2.668,11.779,2.668h90.216c6.506,0,11.779-1.194,11.779-2.668v-1.667
		c0-1.474-5.273-2.668-11.779-2.668h-90.216c-6.505,0-11.779,1.194-11.779,2.668V383.061z"/>
	<path fill="#DBDBDB" d="M996.884,397.618c0,1.474,5.274,2.668,11.779,2.668h90.216c6.506,0,11.779-1.194,11.779-2.668v-1.667
		c0-1.474-5.273-2.668-11.779-2.668h-90.216c-6.505,0-11.779,1.194-11.779,2.668V397.618z"/>
	<path fill="#DBDBDB" d="M996.884,412.175c0,1.474,5.274,2.668,11.779,2.668h90.216c6.506,0,11.779-1.194,11.779-2.668v-1.667
		c0-1.474-5.273-2.668-11.779-2.668h-90.216c-6.505,0-11.779,1.194-11.779,2.668V412.175z"/>
	
		<line fill="none" stroke="#3F3F3F" stroke-width="4" stroke-linecap="round" stroke-linejoin="round" stroke-miterlimit="10" x1="1249.049" y1="568.049" x2="1249.049" y2="583.664"/>
	
		<rect x="1195.849" y="722.778" fill="#FFFFFF" stroke="#3F3F3F" stroke-width="4" stroke-linecap="round" stroke-linejoin="round" stroke-miterlimit="10" width="133.752" height="267.987"/>
	
		<path fill="#FFFFFF" stroke="#3F3F3F" stroke-width="4" stroke-linecap="round" stroke-linejoin="round" stroke-miterlimit="10" d="
		M1313.725,835.632c0-6.628-5.373-12-12-12h-78c-6.627,0-12,5.372-12,12v128.234c0,6.628,5.373,12,12,12h78c6.627,0,12-5.372,12-12
		V835.632z"/>
	
		<circle fill="none" stroke="#3F3F3F" stroke-width="4" stroke-linecap="round" stroke-linejoin="round" stroke-miterlimit="10" cx="1262.725" cy="940" r="16"/>
	
		<line fill="none" stroke="#3F3F3F" stroke-width="4" stroke-linecap="round" stroke-linejoin="round" stroke-miterlimit="10" x1="1211.725" y1="749.579" x2="1287" y2="749.579"/>
	
		<line fill="none" stroke="#3F3F3F" stroke-width="4" stroke-linecap="round" stroke-linejoin="round" stroke-miterlimit="10" x1="1299.036" y1="749.579" x2="1308.109" y2="749.579"/>
	
		<line fill="none" stroke="#3F3F3F" stroke-width="4" stroke-linecap="round" stroke-linejoin="round" stroke-miterlimit="10" x1="1211.725" y1="771" x2="1287" y2="771"/>
	
		<line fill="none" stroke="#3F3F3F" stroke-width="4" stroke-linecap="round" stroke-linejoin="round" stroke-miterlimit="10" x1="1299.036" y1="771" x2="1308.109" y2="771"/>
	<circle fill="#DBDBDB" cx="1262.725" cy="940" r="10.333"/>
	
		<rect x="97.157" y="662.021" fill="#FFFFFF" stroke="#969596" stroke-width="4" stroke-linecap="round" stroke-linejoin="round" stroke-miterlimit="10" width="67.292" height="25.909"/>
	
		<rect x="127.45" y="636.111" fill="#FFFFFF" stroke="#969596" stroke-width="4" stroke-linecap="round" stroke-linejoin="round" stroke-miterlimit="10" width="67.292" height="25.909"/>
	
		<rect x="808.476" y="832.255" fill="#E0DFDF" stroke="#969596" stroke-width="4" stroke-linecap="round" stroke-linejoin="round" stroke-miterlimit="10" width="67.292" height="25.909"/>
	
		<rect x="838.769" y="806.346" fill="#E0DFDF" stroke="#969596" stroke-width="4" stroke-linecap="round" stroke-linejoin="round" stroke-miterlimit="10" width="67.292" height="25.909"/>
	
		<rect x="1012.596" y="937.379" fill="#E0DFDF" stroke="#969596" stroke-width="4" stroke-linecap="round" stroke-linejoin="round" stroke-miterlimit="10" width="67.293" height="25.909"/>
	
		<rect x="1706.245" y="709.824" fill="#F1E8F3" stroke="#969596" stroke-width="4" stroke-linecap="round" stroke-linejoin="round" stroke-miterlimit="10" width="67.293" height="25.909"/>
	
		<rect x="1757.54" y="735.733" fill="#F1E8F3" stroke="#969596" stroke-width="4" stroke-linecap="round" stroke-linejoin="round" stroke-miterlimit="10" width="67.293" height="25.909"/>
	
		<rect x="1739.892" y="683.915" fill="#F1E8F3" stroke="#969596" stroke-width="4" stroke-linecap="round" stroke-linejoin="round" stroke-miterlimit="10" width="67.293" height="25.909"/>
	
		<line fill="none" stroke="#3F3F3F" stroke-width="4" stroke-linecap="round" stroke-linejoin="round" stroke-miterlimit="10" x1="1313.725" y1="192.033" x2="1365.412" y2="131.123"/>
	
		<line fill="none" stroke="#3F3F3F" stroke-width="4" stroke-linecap="round" stroke-linejoin="round" stroke-miterlimit="10" x1="1276.816" y1="172.314" x2="1287" y2="112.923"/>
	
		<line fill="none" stroke="#3F3F3F" stroke-width="4" stroke-linecap="round" stroke-linejoin="round" stroke-miterlimit="10" x1="1337.791" y1="224.1" x2="1397.937" y2="207.238"/>
	
		<circle fill="#FFFFFF" stroke="#3F3F3F" stroke-width="4" stroke-linecap="round" stroke-linejoin="round" stroke-miterlimit="10" cx="1538.878" cy="301.853" r="75.109"/>
	<circle fill="#DBDBDB" cx="1538.878" cy="301.853" r="10.122"/>
	
		<line fill="none" stroke="#3F3F3F" stroke-width="4" stroke-linecap="round" stroke-linejoin="round" stroke-miterlimit="10" x1="1538.878" y1="301.853" x2="1538.878" y2="239.111"/>
	
		<line fill="none" stroke="#3F3F3F" stroke-width="4" stroke-linecap="round" stroke-linejoin="round" stroke-miterlimit="10" x1="1538.878" y1="301.853" x2="1567" y2="316.766"/>
	<rect x="360.753" y="601.709" fill="#EAEAEA" width="1002.666" height="9.312"/>
	<rect x="401.793" y="624.929" fill="#E0E0E0" width="319.27" height="14.405"/>
	<rect x="572.554" y="530.224" fill="#E0E0E0" width="109.321" height="6.134"/>
	<rect x="592.429" y="547.438" fill="#E0E0E0" width="117.634" height="9.893"/>
	<rect x="551.797" y="571.203" fill="#E0E0E0" width="135.87" height="9.893"/>
	<path fill="#E0E0E0" d="M1006.678,556.367h107.386c-0.312-7.408-0.012-13.904,1.572-16.808H1005.5
		C1006.687,542.463,1006.912,548.959,1006.678,556.367z"/>
	<rect x="388.5" y="255.934" fill="#E0E0E0" width="279.5" height="9.312"/>
	<rect x="380.161" y="624.176" fill="#E0E0E0" width="9.312" height="364.491"/>
	<rect x="413.146" y="141.296" fill="#E0E0E0" width="6.156" height="109.371"/>
	<rect x="429.606" y="115.083" fill="#E0E0E0" width="12.865" height="135.584"/>
	<rect x="459.736" y="133.25" fill="#E0E0E0" width="9.312" height="117.417"/>
	<rect x="482.652" y="148.25" fill="#E0E0E0" width="7.186" height="102.417"/>
	<rect x="501.819" y="123.666" fill="#E0E0E0" width="9.312" height="127.001"/>
	<rect x="526.736" y="141.296" fill="#E0E0E0" width="13.264" height="109.371"/>
	<rect x="567.402" y="173.417" fill="#E0E0E0" width="6.217" height="77.25"/>
	<rect x="612.403" y="217.167" fill="#E0E0E0" width="13.021" height="32.917"/>
	<rect x="725.39" y="624.176" fill="#E0E0E0" width="9.312" height="364.491"/>
	<rect x="1332.596" y="624.176" fill="#E0E0E0" width="9.312" height="364.491"/>
	<rect x="401.793" y="725.427" fill="#E0E0E0" width="319.27" height="16.082"/>
	<rect x="401.793" y="826.425" fill="#E0E0E0" width="319.27" height="18.143"/>
	
		<path fill="#FFFFFF" stroke="#3F3F3F" stroke-width="4" stroke-linecap="round" stroke-linejoin="round" stroke-miterlimit="10" d="
		M1497.195,886.465c-0.825-2.601-1.523-5.207-1.976-7.82c-0.054-3.206-0.284-6.33-0.723-9.274c-0.684-3.14-1.416-6.468-2.574-9.488
		c-1.82-2.48-3.671-4.992-5.496-7.549c-1.825-2.558-3.624-5.16-5.344-7.823c-13.85-18.306-15.069-39.668-14.456-61.301
		c0.104-3.605,0.256-7.219,0.41-10.826C1467,759,1469,745,1465,732c-1-3-2.389-5.861-4.077-8.51C1449,703,1420,701,1403.297,715.922
		c-2.508,1.93-4.848,4.059-6.975,6.354c-10.635,11.475-15.947,27.1-10.322,42.725c5,13,18,18,30,23c4,2,8,5,10.488,8.764
		c2.338,2.329,4.34,4.854,5.842,7.573c3.003,5.44,4.003,11.663,1.67,18.663c-6,18,0,36,13.148,49.162
		c1.598,2.21,3.137,4.479,4.529,6.799c4.177,6.961,7.031,14.384,6.74,22.729c0.508,2.537,1.092,5.05,1.8,7.517
		c1.418,4.934,3.334,9.684,6.141,14.094c1.467,2.344,3.147,4.55,5.089,6.581c1.941,2.032,4.144,3.891,6.653,5.538
		c6.405,3.851,13.649,1.843,18.647-2.353c1.248-1.05,2.508-2.248,3.667-3.573c1.16-1.324,2.221-2.775,3.073-4.33
		C1508.587,912.376,1501.319,899.472,1497.195,886.465z"/>
	
		<path fill="#FFFFFF" stroke="#3F3F3F" stroke-width="4" stroke-linecap="round" stroke-linejoin="round" stroke-miterlimit="10" d="
		M1539.683,782.431c-0.822-2.148-1.759-4.293-2.814-6.431c-8.967-12.248-12.444-25.029-12.438-38.023l0.617-9.648
		c1.362-11.093,4.875-22.282,9.333-33.373c0.892-2.219,1.82-4.433,2.778-6.642C1543,665,1544,637,1522,621c-15-11-39-9-47,10
		c-4,12-2,25,0.247,36.916c0.501,3.117,0.95,6.236,1.213,9.352c0.265,3.114,0.343,6.224,0.104,9.322
		c-0.267,3.417-0.705,6.793-1.297,10.154c-0.445,2.521-0.976,5.034-1.574,7.56C1468,725,1457,748,1466.882,769.984
		c1.208,2.623,2.435,5.246,3.594,7.889c4.636,10.571,8.191,21.46,5.524,34.127c-3,10-6,19-5.329,28.675
		c0.068,3.232,0.312,6.462,0.704,9.683c1.568,12.883,5.512,25.623,10.398,37.604c1.041,3.261,3.04,6.168,5.036,8.98
		c3.993,5.625,9.401,10.321,16.937,13.591c1.938,1.063,3.945,2.007,6.021,2.803c2.8,0.157,5.644-0.109,8.487-0.8
		c2.214-1.017,4.558-1.798,4.558-2.579c0.781-5.663,1.465-11.277,2.235-16.836c0.386-2.779,0.793-5.544,1.246-8.295
		c0.463-3.229,1.087-6.412,1.825-9.563s1.591-6.268,2.511-9.361C1535,851,1541,836,1543.651,819.917
		c0.428-3.126,0.688-6.28,0.737-9.476c0.089-2.88,0.015-5.75-0.233-8.626C1543.596,795.361,1542.15,788.877,1539.683,782.431z"/>
	
		<path fill="#FFFFFF" stroke="#969596" stroke-width="4" stroke-linecap="round" stroke-linejoin="round" stroke-miterlimit="10" d="
		M807.932,133.614c-1.197-5.868-5.691-10.362-11.819-12.405c5.72-1.634,10.214-6.128,11.848-11.848
		c2.043,6.128,6.537,10.623,12.666,11.848c-4.085,0.817-8.171,3.269-10.354,7.146C809.133,130.77,807.932,133.614,807.932,133.614z"
		/>
	
		<path fill="#FFFFFF" stroke="#969596" stroke-width="4" stroke-linecap="round" stroke-linejoin="round" stroke-miterlimit="10" d="
		M1406.959,113.005c1.671-7.661-1.334-15.422-7.592-21.111c7.715,1.069,15.475-1.936,20.459-7.921
		c-0.797,8.421,2.208,16.182,8.898,20.892c-5.324-1.183-11.514-0.408-16.182,3.08
		C1409.901,110.234,1406.959,113.005,1406.959,113.005z"/>
	
		<path fill="#FFFFFF" stroke="#969596" stroke-width="4" stroke-linecap="round" stroke-linejoin="round" stroke-miterlimit="10" d="
		M219.406,383.298c-1.197-5.868-5.691-10.362-11.819-12.405c5.72-1.634,10.214-6.128,11.848-11.848
		c2.043,6.128,6.537,10.623,12.666,11.848c-4.085,0.817-8.171,3.269-10.354,7.146C220.607,380.455,219.406,383.298,219.406,383.298z
		"/>
	
		<path fill="#FFFFFF" stroke="#969596" stroke-width="4" stroke-linecap="round" stroke-linejoin="round" stroke-miterlimit="10" d="
		M317.502,870.641c-1.197-5.867-5.691-10.361-11.819-12.404c5.72-1.635,10.214-6.129,11.848-11.848
		c2.043,6.128,6.537,10.622,12.666,11.848c-4.085,0.817-8.171,3.269-10.354,7.146C318.703,867.797,317.502,870.641,317.502,870.641z
		"/>
	
		<path fill="#FFFFFF" stroke="#969596" stroke-width="4" stroke-linecap="round" stroke-linejoin="round" stroke-miterlimit="10" d="
		M670.782,443.571c-1.669-5.751-6.513-9.866-12.787-11.404c5.568-2.094,9.683-6.938,10.847-12.77
		c2.534,5.942,7.378,10.057,13.585,10.781c-4.006,1.146-7.879,3.921-9.741,7.963C671.748,440.639,670.782,443.571,670.782,443.571z"
		/>
	
		<path fill="#FFFFFF" stroke="#969596" stroke-width="4" stroke-linecap="round" stroke-linejoin="round" stroke-miterlimit="10" d="
		M1451.328,473.336c-1.197-5.867-5.691-10.361-11.819-12.404c5.72-1.635,10.214-6.129,11.848-11.848
		c2.043,6.128,6.537,10.622,12.665,11.848c-4.085,0.817-8.17,3.269-10.354,7.146
		C1452.529,470.492,1451.328,473.336,1451.328,473.336z"/>
	
		<path fill="#FFFFFF" stroke="#969596" stroke-width="4" stroke-linecap="round" stroke-linejoin="round" stroke-miterlimit="10" d="
		M1625.553,921.437c-1.197-5.867-5.691-10.361-11.819-12.404c5.72-1.635,10.214-6.129,11.848-11.848
		c2.043,6.128,6.537,10.622,12.665,11.848c-4.085,0.817-8.17,3.269-10.354,7.146
		C1626.754,918.593,1625.553,921.437,1625.553,921.437z"/>
	<path fill="none" stroke="#3F3F3F" stroke-width="3" stroke-linecap="round" stroke-linejoin="round" stroke-miterlimit="10" d="
		M1503.67,913.38c0,0-7.022-35.851-2.97-58.851s15.3-35.625,15.3-47.625c0-24.5-20.978-40.381-21-61.404
		c-0.033-30.5,23.5-60,10.483-96"/>
	<path fill="none" stroke="#3F3F3F" stroke-width="3" stroke-linecap="round" stroke-linejoin="round" stroke-miterlimit="10" d="
		M1495,899.749c0,0-38-22.458-42-60.249c-1.604-15.157,4.5-48.5-8.52-68.5c-12.581-19.326-26.98-25-26.98-25"/>
	<path fill="none" stroke="#3F3F3F" stroke-width="3" stroke-linecap="round" stroke-linejoin="round" stroke-miterlimit="10" d="
		M1505.237,891.333c0,0,39.958-62.333,47.096-84.987c6.742-21.4,14.334-42.508,24-56.767c10.646-15.705,22.667-18.912,31-39.246"/>
	
		<polygon fill="#FFFFFF" stroke="#3F3F3F" stroke-width="4" stroke-linecap="round" stroke-linejoin="round" stroke-miterlimit="10" points="
		1546.674,991.883 1455.418,991.883 1443.303,883 1560.592,883 	"/>
	<polygon fill="#DBDBDB" points="1502.67,989.883 1457.64,989.883 1445.64,884.917 	"/>
	<polygon fill="#DBDBDB" points="1344.667,596.418 1319.863,596.418 1316.021,561.042 	"/>
	<path fill="#EAEAEA" d="M434.292,459.5l5.513,90.902l-15.638-89.236C424.167,461.167,428.958,462.093,434.292,459.5z"/>
	<path fill="#EAEAEA" d="M434.469,427.373l69.448-60.123l-62.142,67.447C441.775,434.697,439.754,430.062,434.469,427.373z"/>
	<polygon fill="#EAEAEA" points="505.542,336.667 492.75,348 512.333,370.333 	"/>
</g>
</svg>
