<?xml version="1.0" encoding="utf-8"?>
<!-- Generator: Adobe Illustrator 16.0.0, SVG Export Plug-In . SVG Version: 6.00 Build 0)  -->
<!DOCTYPE svg PUBLIC "-//W3C//DTD SVG 1.1//EN" "http://www.w3.org/Graphics/SVG/1.1/DTD/svg11.dtd">
<svg version="1.1" id="圖層_1" xmlns="http://www.w3.org/2000/svg" xmlns:xlink="http://www.w3.org/1999/xlink" x="0px" y="0px"
	 width="100px" height="100px" viewBox="0 0 100 100" enable-background="new 0 0 100 100" xml:space="preserve">
<path fill="#ECF5E9" d="M94.573,53.469c3.604,12.416-0.396,25.416-10.397,33.416c-1.873,1.406-3.772,2.689-5.7,3.844
	c-5.783,3.465-11.819,5.76-18.214,6.684c-2.842,0.41-5.754,0.549-8.746,0.398c-11.002-0.348-21.112-4.643-29.189-11.404
	c-2.691-2.256-5.158-4.783-7.356-7.531C-4.822,56.885,0.178,17.884,28.178,4.884c2.8-1.2,5.699-2.119,8.638-2.751
	c6.841-0.062,12.908,1.579,18.427,4.335c2.759,1.378,5.38,3.035,7.884,4.901c12.052,9.515,18.052,23.515,27.987,35.175
	C92.517,48.722,93.688,51.033,94.573,53.469z"/>
<g>
	<g>
		<path fill="#3F3F3F" d="M41.945,25.771c1.346,0,2.502,0.43,3.473,1.29c0.969,0.86,1.454,1.881,1.454,3.062v2.164
			c0,1.181-0.485,2.202-1.454,3.061c-0.971,0.86-2.127,1.291-3.473,1.291h-4.959v8.678h-4.957V25.771H41.945 M36.986,34.449h2.465
			c0.691,0,1.281-0.213,1.766-0.639c0.484-0.425,0.729-0.934,0.729-1.523v-2.164c0-0.608-0.244-1.124-0.729-1.551
			c-0.484-0.425-1.074-0.638-1.766-0.638h-2.465V34.449 M41.945,23.771h-9.916c-1.104,0-2,0.896-2,2v19.545c0,1.104,0.896,2,2,2
			h4.957c1.104,0,2-0.896,2-2v-6.678h2.959c1.841,0,3.456-0.604,4.799-1.794c1.392-1.235,2.127-2.812,2.127-4.558v-2.164
			c0-1.746-0.735-3.322-2.126-4.558C45.4,24.374,43.786,23.771,41.945,23.771L41.945,23.771z M38.986,29.934h0.465
			c0.264,0,0.369,0.073,0.446,0.141c0.044,0.039,0.059,0.062,0.059,0.062l-0.011,2.124c-0.01,0.011-0.026,0.027-0.048,0.047
			c-0.079,0.069-0.183,0.142-0.446,0.142h-0.465V29.934L38.986,29.934z"/>
	</g>
	<g>
		<path fill="#3F3F3F" d="M62.646,25.771c3.323,0,5.091,1.551,5.304,4.654h-2.637c-0.232-1.561-1.07-2.341-2.508-2.341
			c-0.934,0-1.631,0.195-2.097,0.585c-0.465,0.389-0.696,0.975-0.696,1.755c0,0.577,0.253,1.125,0.761,1.644l5.62,5.519
			c1.035,1.022,1.557,2.118,1.557,3.29v1.142c0,1.265-0.521,2.356-1.557,3.275c-1.039,0.92-2.286,1.379-3.747,1.379h-2.634
			c-1.759,0-3.082-0.385-3.971-1.156c-0.889-0.77-1.332-1.936-1.332-3.498h2.665c0,0.168,0,0.297,0,0.391
			c0,0.632,0.274,1.115,0.827,1.449c0.55,0.334,1.153,0.502,1.811,0.502c0.93,0,1.603-0.199,2.015-0.6
			c0.412-0.399,0.619-0.98,0.619-1.742c0-0.595-0.254-1.142-0.761-1.644l-5.622-5.519c-1.036-1.004-1.554-2.099-1.554-3.29v-1.142
			c0-1.264,0.518-2.355,1.554-3.275c1.037-0.919,2.288-1.379,3.749-1.379H62.646 M62.646,23.771h-2.634
			c-1.958,0-3.666,0.633-5.075,1.882c-1.458,1.294-2.228,2.944-2.228,4.772v1.142c0,1.746,0.728,3.336,2.162,4.727l5.612,5.51
			c0.116,0.114,0.157,0.194,0.162,0.213c0,0.139-0.013,0.229-0.024,0.284c-0.096,0.025-0.285,0.061-0.609,0.061
			c-0.235,0-0.441-0.044-0.638-0.139v-0.203c0-1.104-0.896-2-2-2h-2.665c-1.104,0-2,0.896-2,2c0,2.162,0.681,3.848,2.023,5.01
			c1.256,1.091,3.033,1.645,5.279,1.645h2.634c1.956,0,3.663-0.633,5.073-1.882c1.46-1.296,2.23-2.945,2.23-4.772v-1.142
			c0-1.718-0.724-3.303-2.151-4.713l-5.624-5.523c-0.136-0.139-0.163-0.229-0.164-0.229c0.001-0.112,0.013-0.186,0.021-0.229
			c0.096-0.038,0.34-0.1,0.773-0.1c0.217,0,0.324,0.037,0.345,0.05c0.027,0.026,0.127,0.195,0.185,0.585
			c0.146,0.98,0.987,1.706,1.979,1.706h2.637c0.555,0,1.084-0.23,1.462-0.635c0.378-0.405,0.571-0.949,0.533-1.501
			C69.66,26.146,67,23.771,62.646,23.771L62.646,23.771z"/>
	</g>
</g>
<g>
	<g>
		<path fill="#3F3F3F" d="M88.382,29.341c0.423,0,0.853,0.1,1.253,0.311c1.317,0.693,1.822,2.324,1.13,3.641l0.027,0.014
			L76.199,64.449c-0.763-1.174-1.824-2.178-3.152-2.879c-1.257-0.664-2.607-0.975-3.937-0.975c-0.073,0-0.146,0-0.22,0.002
			l17.076-29.835l0.029,0.015C86.479,29.863,87.414,29.34,88.382,29.341 M88.382,27.341L88.382,27.341
			c-1.593,0-3.055,0.795-3.919,2.104c-0.087,0.098-0.164,0.206-0.231,0.324L67.155,59.605c-0.359,0.627-0.353,1.398,0.019,2.018
			c0.361,0.605,1.014,0.975,1.717,0.975c0.018,0,0.034,0,0.052,0l0.168-0.002c1.057,0,2.067,0.25,3.004,0.744
			c0.975,0.514,1.808,1.275,2.407,2.199c0.37,0.57,1.004,0.91,1.678,0.91c0.046,0,0.092-0.002,0.138-0.004
			c0.725-0.051,1.365-0.488,1.674-1.146l14.593-31.144c0.053-0.113,0.095-0.23,0.125-0.348c0.9-2.209-0.009-4.791-2.162-5.925
			C89.896,27.528,89.14,27.341,88.382,27.341L88.382,27.341L88.382,27.341z"/>
	</g>
	<g>
		<path fill="#3F3F3F" d="M66.122,67.279c1.518,0,3.037,0.57,4.208,1.715c2.375,2.324,2.417,6.133,0.094,8.51
			c-3.663,3.539-7.605,4.307-10.336,4.307c-2.09,0-3.471-0.449-3.471-0.449c2.77-0.488,4.488-1.574,3.686-3.957
			c-1.673-4.967,0.924-7.609,0.924-7.609l0.018,0.016c0.178-0.248,0.356-0.498,0.576-0.723
			C62.999,67.883,64.56,67.279,66.122,67.279 M66.122,65.279c-2.176,0-4.211,0.855-5.731,2.41c-0.233,0.238-0.425,0.482-0.588,0.701
			c-0.001,0.002-0.002,0.002-0.003,0.002c-0.141,0.145-3.435,3.588-1.393,9.65c0.117,0.346,0.095,0.508,0.085,0.523
			c-0.002,0.004-0.309,0.488-2.223,0.824c-0.903,0.16-1.583,0.914-1.647,1.83s0.503,1.758,1.376,2.041
			c0.172,0.057,1.75,0.549,4.09,0.549c3.051,0,7.562-0.844,11.726-4.869c0.014-0.014,0.027-0.027,0.041-0.039
			c3.089-3.162,3.033-8.248-0.126-11.338C70.221,66.092,68.23,65.279,66.122,65.279L66.122,65.279z"/>
	</g>
</g>
<g>
	<path fill="#3F3F3F" d="M15.318,56.299c0,0,0.186-0.102,0.533-0.293c0.33-0.195,0.828-0.438,1.456-0.775
		c0.634-0.322,1.4-0.697,2.367-1.086c0.97-0.363,2.167-0.781,3.758-0.813c1.584-0.043,3.506,0.561,4.902,1.643
		c0.72,0.518,1.339,1.125,1.899,1.758l0.207,0.238l0.104,0.119l0.133,0.166l0.04,0.057c0.123,0.18,0.17,0.211,0.388,0.57
		c0.188,0.303,0.346,0.602,0.446,0.854c0.125,0.266,0.21,0.535,0.295,0.809c0.615,2.23,0.237,4.084-0.025,5.68
		c-0.293,1.604-0.598,3.049-0.663,4.381c-0.061,1.332,0.115,2.51,0.629,3.592c0.248,0.535,0.607,1.076,0.983,1.533l0.181,0.213
		l0.11,0.107c0.064,0.074,0.141,0.156,0.249,0.236c0.191,0.17,0.395,0.309,0.613,0.426c0.854,0.49,2.075,0.588,3.358,0.523
		c1.282-0.059,2.599-0.285,3.861-0.33c1.265-0.057,2.48-0.008,3.521,0.273c1.039,0.275,1.868,0.729,2.453,1.186
		c0.58,0.469,0.955,0.898,1.192,1.199c0.225,0.309,0.345,0.475,0.345,0.475s-0.167-0.115-0.479-0.328
		c-0.309-0.211-0.782-0.494-1.408-0.736c-0.618-0.256-1.402-0.439-2.298-0.43c-0.893-0.01-1.896,0.156-3.002,0.465
		c-1.111,0.316-2.326,0.707-3.763,1.063c-1.409,0.334-3.215,0.621-5.159-0.064c-0.476-0.162-0.941-0.393-1.366-0.668
		c-0.214-0.125-0.435-0.285-0.654-0.467l-0.327-0.268l-0.223-0.203c-0.693-0.652-1.284-1.371-1.789-2.221
		c-1.028-1.678-1.512-3.738-1.53-5.602c-0.049-1.875,0.244-3.59,0.441-5.096c0.2-1.492,0.273-2.814,0.017-3.492
		c0.042-0.285-1.109-1.535-1.788-2.102c-0.765-0.631-1.39-0.959-2.203-1.146c-0.813-0.182-1.805-0.191-2.741-0.17
		c-0.942,0.012-1.827,0.037-2.563,0.01c-0.74-0.039-1.323-0.076-1.732-0.143c-0.393-0.057-0.602-0.105-0.602-0.105l-0.029-0.008
		c-0.299-0.072-0.483-0.371-0.412-0.67C15.083,56.5,15.187,56.371,15.318,56.299z"/>
</g>
</svg>
