<?xml version="1.0" encoding="utf-8"?>
<!-- Generator: Adobe Illustrator 16.0.0, SVG Export Plug-In . SVG Version: 6.00 Build 0)  -->
<!DOCTYPE svg PUBLIC "-//W3C//DTD SVG 1.1//EN" "http://www.w3.org/Graphics/SVG/1.1/DTD/svg11.dtd">
<svg version="1.1" id="圖層_1" xmlns="http://www.w3.org/2000/svg" xmlns:xlink="http://www.w3.org/1999/xlink" x="0px" y="0px"
	 width="100px" height="100px" viewBox="0 0 100 100" enable-background="new 0 0 100 100" xml:space="preserve">
<path fill="#F8EEF6" d="M98.726,51.771c-0.612,3.264-1.523,6.385-2.693,9.361s-2.602,5.807-4.25,8.488
	C80.367,86.879,60.174,90.879,41.905,93.879c-19.231,4-36.54-10-39.026-29.645c-0.458-2.59-0.675-5.227-0.621-7.863
	c0.045-2.328,0.226-4.641,0.466-6.891c4.808-24,25.001-42,47.117-44c2.645-0.125,5.259,0.016,7.82,0.401
	c18.859,2.998,35.206,18.998,40.603,38.038C98.714,46.541,98.896,49.188,98.726,51.771z"/>
<g>
	<g>
		<path fill="#3F3F3F" d="M36.753,29.47c1.325,0,2.466,0.482,3.421,1.447c0.954,0.965,1.432,2.11,1.432,3.435v17.046h-4.853v-9.737
			h-4.883v9.737h-4.882V34.353c0-1.345,0.482-2.495,1.446-3.45c0.965-0.955,2.11-1.433,3.436-1.433H36.753 M31.871,39.206h4.883
			v-4.853c0-0.682-0.238-1.261-0.717-1.739c-0.478-0.478-1.057-0.717-1.739-0.717c-0.663,0-1.233,0.239-1.71,0.717
			c-0.479,0.478-0.717,1.058-0.717,1.739V39.206 M36.753,27.47h-4.883c-1.864,0-3.494,0.677-4.842,2.011
			c-1.354,1.342-2.04,2.98-2.04,4.872v17.046c0,1.104,0.896,2,2,2h4.882c1.104,0,2-0.896,2-2v-7.737h0.883v7.737
			c0,1.104,0.896,2,2,2h4.853c1.104,0,2-0.896,2-2V34.353c0-1.864-0.676-3.493-2.01-4.841C40.274,28.176,38.6,27.47,36.753,27.47
			L36.753,27.47z M33.871,37.206v-2.853c0-0.152,0.028-0.222,0.13-0.324c0.113-0.114,0.18-0.132,0.296-0.132
			c0.152,0,0.222,0.028,0.325,0.131c0.103,0.103,0.131,0.173,0.131,0.325v2.853H33.871L33.871,37.206z"/>
	</g>
	<g>
		<path fill="#3F3F3F" d="M55.394,29.47v21.928h-4.852V29.47H55.394 M55.394,27.47h-4.852c-1.104,0-2,0.896-2,2v21.928
			c0,1.104,0.896,2,2,2h4.852c1.105,0,2-0.896,2-2V29.47C57.394,28.366,56.499,27.47,55.394,27.47L55.394,27.47z"/>
	</g>
</g>
<rect x="15.044" y="14.447" fill="none" stroke="#3F3F3F" stroke-width="2" stroke-linecap="round" stroke-linejoin="round" stroke-miterlimit="10" width="52.294" height="51.973"/>
<rect x="9.762" y="10.815" fill="#3F3F3F" width="10.564" height="10.564"/>
<rect x="62.056" y="10.815" fill="#3F3F3F" width="10.566" height="10.564"/>
<rect x="9.762" y="61.139" fill="#3F3F3F" width="10.564" height="10.564"/>
<rect x="62.056" y="61.137" fill="#3F3F3F" width="10.566" height="10.566"/>
</svg>
