<?xml version="1.0" encoding="utf-8"?>
<!-- Generator: Adobe Illustrator 16.0.0, SVG Export Plug-In . SVG Version: 6.00 Build 0)  -->
<!DOCTYPE svg PUBLIC "-//W3C//DTD SVG 1.1//EN" "http://www.w3.org/Graphics/SVG/1.1/DTD/svg11.dtd">
<svg version="1.1" id="圖層_1" xmlns="http://www.w3.org/2000/svg" xmlns:xlink="http://www.w3.org/1999/xlink" x="0px" y="0px"
	 width="100px" height="100px" viewBox="0 0 100 100" enable-background="new 0 0 100 100" xml:space="preserve">
<path fill="#FEF4EF" d="M99.291,49.243C98.42,67.93,91.42,90.706,70.42,96.4c-3.333,0.949-6.723,1.608-10.121,1.98
	c-16.995,1.865-34.244-3.424-46.07-15.389c-1.741-1.761-3.334-3.651-4.762-5.657c-1.713-2.405-3.188-4.977-4.395-7.683
	C-5.58,46.101,3.42,14.783,30.42,6.241c2.625-0.727,5.31-1.226,8.026-1.51c24.974-2.286,55.974,8.154,59.88,34.438
	C98.957,42.326,99.28,45.714,99.291,49.243z"/>
<polygon fill="none" stroke="#3F3F3F" stroke-width="2" stroke-linecap="round" stroke-linejoin="round" stroke-miterlimit="10" points="
	29.44,2.074 29.44,75.936 92.397,75.936 92.397,17.401 77.069,2.074 "/>
<polygon fill="none" stroke="#3F3F3F" stroke-width="2" stroke-linecap="round" stroke-linejoin="round" stroke-miterlimit="10" points="
	92.397,17.401 77.069,2.075 77.069,17.401 "/>
<g>
	<g>
		<path fill="#3F3F3F" d="M49.503,46.522l-7.518-7.759l7.477-7.236c0.7-0.676,0.718-1.791,0.042-2.491
			c-0.677-0.699-1.793-0.717-2.492-0.04l-8.705,8.427c-0.361,0.349-0.537,0.814-0.533,1.28c-0.017,0.461,0.146,0.928,0.492,1.285
			l8.707,8.986c0.345,0.357,0.804,0.535,1.266,0.535c0.44,0,0.883-0.164,1.225-0.496C50.162,48.336,50.18,47.221,49.503,46.522z"/>
	</g>
	<g>
		<path fill="#3F3F3F" d="M73.077,46.522l7.515-7.759l-7.476-7.236c-0.698-0.676-0.718-1.791-0.04-2.491
			c0.676-0.699,1.792-0.717,2.491-0.04l8.705,8.427c0.361,0.349,0.537,0.814,0.534,1.28c0.016,0.461-0.146,0.928-0.494,1.285
			l-8.706,8.986c-0.344,0.357-0.806,0.535-1.266,0.535c-0.441,0-0.883-0.164-1.225-0.496C72.418,48.336,72.398,47.221,73.077,46.522
			z"/>
	</g>
	<g>
		<circle fill="#3F3F3F" cx="52.825" cy="39.005" r="2.747"/>
	</g>
	<g>
		<circle fill="#3F3F3F" cx="61.691" cy="39.005" r="2.747"/>
	</g>
	<g>
		<circle fill="#3F3F3F" cx="70.71" cy="39.005" r="2.746"/>
	</g>
</g>
</svg>
