<?xml version="1.0" encoding="utf-8"?>
<!-- Generator: Adobe Illustrator 16.0.0, SVG Export Plug-In . SVG Version: 6.00 Build 0)  -->
<!DOCTYPE svg PUBLIC "-//W3C//DTD SVG 1.1//EN" "http://www.w3.org/Graphics/SVG/1.1/DTD/svg11.dtd">
<svg version="1.1" id="圖層_1" xmlns="http://www.w3.org/2000/svg" xmlns:xlink="http://www.w3.org/1999/xlink" x="0px" y="0px"
	 width="100px" height="100px" viewBox="0 0 100 100" enable-background="new 0 0 100 100" xml:space="preserve">
<path fill="#EFF6FC" d="M99.653,49.664C95,68.9,84,89.9,64.382,96.965c-2.737,1.064-5.553,1.854-8.403,2.375
	C38.875,102.463,20.5,95.9,10,80.9c-12-18-10-40,1.832-55.799c1.584-1.989,3.376-3.79,5.396-5.343C19.25,18.206,21.5,16.9,24,15.9
	c22-8,55-13,70.725,8.92c1.138,3.04,2.707,5.81,3.883,8.619c1.177,2.809,1.96,5.656,1.491,8.851
	C100.186,44.69,100.037,47.154,99.653,49.664z"/>
<rect x="2.527" y="6.191" fill="none" stroke="#3F3F3F" stroke-width="2" stroke-linecap="round" stroke-linejoin="round" stroke-miterlimit="10" width="86.354" height="64.012"/>
<g>
	<path fill="#3F3F3F" d="M32.485,45.348l-6.887-7.108l6.85-6.631c0.641-0.619,0.657-1.642,0.038-2.282
		c-0.62-0.641-1.643-0.657-2.283-0.036l-7.976,7.72c-0.331,0.319-0.492,0.747-0.489,1.174c-0.015,0.422,0.134,0.85,0.452,1.176
		l7.978,8.233c0.315,0.327,0.737,0.491,1.159,0.491c0.403,0,0.809-0.15,1.123-0.455C33.09,47.009,33.105,45.988,32.485,45.348z"/>
</g>
<g>
	<path fill="#3F3F3F" d="M57.37,45.348l6.886-7.108l-6.851-6.631c-0.64-0.619-0.657-1.642-0.037-2.282s1.643-0.657,2.283-0.036
		l7.976,7.72c0.332,0.319,0.492,0.747,0.489,1.174c0.014,0.422-0.134,0.85-0.452,1.176l-7.979,8.233
		c-0.314,0.327-0.734,0.491-1.157,0.491c-0.404,0-0.812-0.15-1.123-0.455C56.765,47.009,56.749,45.988,57.37,45.348z"/>
</g>
<g>
	<g>
		<path fill="#3F3F3F" d="M39.989,53.172c-0.487,0.189-1.046,0.191-1.561-0.037c-1.031-0.457-1.496-1.662-1.039-2.692l11.345-25.619
			c0.456-1.03,1.661-1.496,2.691-1.04s1.497,1.662,1.04,2.692L41.119,52.096C40.893,52.611,40.477,52.984,39.989,53.172z"/>
	</g>
</g>
<rect x="2.527" y="6.487" fill="none" stroke="#3F3F3F" stroke-width="2" stroke-linecap="round" stroke-linejoin="round" stroke-miterlimit="10" width="86.354" height="8.129"/>
<circle fill="#3F3F3F" cx="12.767" cy="10.468" r="1.377"/>
<circle fill="#3F3F3F" cx="7.3" cy="10.468" r="1.377"/>
<circle fill="#3F3F3F" cx="17.786" cy="10.468" r="1.378"/>
</svg>
