<?xml version="1.0" encoding="utf-8"?>
<!-- Generator: Adobe Illustrator 16.0.0, SVG Export Plug-In . SVG Version: 6.00 Build 0)  -->
<!DOCTYPE svg PUBLIC "-//W3C//DTD SVG 1.1//EN" "http://www.w3.org/Graphics/SVG/1.1/DTD/svg11.dtd">
<svg version="1.1" id="圖層_1" xmlns="http://www.w3.org/2000/svg" xmlns:xlink="http://www.w3.org/1999/xlink" x="0px" y="0px"
	 width="100px" height="100px" viewBox="0 0 100 100" enable-background="new 0 0 100 100" xml:space="preserve">
<path fill="#EDEDED" d="M98.981,59.193c-2.542,16.465-16.114,28.994-31.255,33.426c-2.903,0.974-5.909,1.729-8.979,2.273
	c-16.601,1.647-37.483,3.736-47.924-10.881C-4.837,61.041-0.66,31.807,20.222,14.057c5.22-4.525,11.369-7.541,17.83-9.031
	c3.231-0.744,6.547-1.104,9.886-1.079C74.515,4.66,95.396,26.586,99.65,51.434C99.717,53.916,99.492,56.511,98.981,59.193z"/>
<g>
	<path fill-rule="evenodd" clip-rule="evenodd" fill="#3F3F3F" d="M78.563,47.728c-3.396,7.117-12.143,11.75-20.623,11.156
		c-11.584-0.815-21.252-8.152-24.596-18.664c-2.427-7.64-0.604-16.893,4.118-20.775c-3.591,13.329,1.472,23.091,12.714,29.972
		C59.475,55.106,69.459,54.383,78.563,47.728z"/>
</g>
<path fill-rule="evenodd" clip-rule="evenodd" fill="#3F3F3F" d="M49.492,15.869c-1.81,9.302,1.826,15.846,9.168,20.333
	c7.071,4.321,14.312,4.717,21.224-0.827c-4.707,7.98-16.475,10.331-24.746,4.96C45.794,34.269,45.089,22.518,49.492,15.869z"/>
<path fill-rule="evenodd" clip-rule="evenodd" fill="#3F3F3F" d="M40.122,80.267c-1.173,0-2.353,0.074-3.519-0.015
	c-2.507-0.189-4.008-1.771-4.095-4.29c-0.083-2.362,0.543-4.564,1.813-6.542c1.777-2.767,5.697-3.855,8.699-2.494
	c2.018,0.918,3.144,3.123,2.686,5.479c-0.213,1.095-0.627,2.152-0.953,3.225c-0.267,0.88-0.881,1.687,0.418,2.455
	c0.746,0.44-0.139,2.104-1.226,2.18c-1.267,0.092-2.547,0.023-3.824,0.023C40.122,80.281,40.122,80.274,40.122,80.267z
	 M39.317,77.744c1.288,0.241,2.185-0.358,2.487-1.916c0.193-0.996,0.563-1.957,0.778-2.949c0.385-1.76-0.09-3.011-1.274-3.561
	c-1.377-0.638-3.386-0.212-4.235,1.129c-0.611,0.965-1.055,2.103-1.286,3.222C35.194,76.535,36.143,77.637,39.317,77.744z"/>
<path fill-rule="evenodd" clip-rule="evenodd" fill="#3F3F3F" d="M63.666,80.306c-0.409,0-0.814,0.006-1.223,0
	c-3.823-0.058-4.921-1.477-4.06-5.232c0.941-4.108,2.927-5.715,6.799-5.499c2.831,0.156,4.564,3.26,3.121,5.707
	c-0.22,0.372-0.909,0.624-1.398,0.652c-1.472,0.093-2.958-0.021-4.427,0.095c-0.482,0.038-0.93,0.527-1.394,0.811
	c0.405,0.452,0.746,1.207,1.223,1.306c1.183,0.244,2.435,0.121,3.64,0.285c0.488,0.067,0.926,0.502,1.385,0.768
	c-0.458,0.364-0.868,0.917-1.385,1.048c-0.719,0.182-1.518,0.047-2.281,0.047C63.666,80.296,63.666,80.302,63.666,80.306z
	 M63.824,74.682c0.832-0.521,1.977-0.857,2.063-1.372c0.17-1.013-0.833-1.351-1.771-1.339c-1.061,0.01-2.161,0.233-2.295,1.438
	C61.786,73.719,62.981,74.165,63.824,74.682z"/>
<path fill-rule="evenodd" clip-rule="evenodd" fill="#3F3F3F" d="M52.1,80.279c-4.114,0.275-5.431-0.548-4.606-5.441
	c0.229-1.355,0.525-2.699,0.771-4.053c0.206-1.147,0.994-1.34,1.939-1.153c1.085,0.215,0.736,1.028,0.604,1.709
	c-0.278,1.451-0.6,2.895-0.851,4.351c-0.175,1.018,0.073,1.873,1.269,2.034c1.137,0.151,2.287,0.28,2.596-1.316
	c0.361-1.848,0.812-3.682,1.179-5.532c0.195-0.983,0.763-1.487,1.705-1.24c0.375,0.099,0.927,0.745,0.872,1.044
	c-0.529,2.907-1.131,5.801-1.823,8.673c-0.092,0.383-0.76,0.799-1.217,0.883C53.746,80.384,52.914,80.279,52.1,80.279z"/>
<path fill-rule="evenodd" clip-rule="evenodd" fill="#3F3F3F" d="M80.99,74.496c1.23-1.821,2.333-3.455,3.44-5.086
	c1.248-1.848,1.824-2.056,4.295-1.436c-0.32,0.498-0.577,0.965-0.893,1.388c-1.703,2.285-3.457,4.531-5.115,6.849
	c-0.609,0.853-1.144,1.813-1.462,2.803c-0.458,1.419-1.474,1.398-2.553,1.197c-0.248-0.047-0.511-0.637-0.562-1.004
	c-0.192-1.381-0.337-2.772-0.425-4.164c-0.042-0.677-0.124-1.822,0.172-1.956c0.854-0.389,1.91-0.437,2.494,0.689
	C80.472,73.944,80.63,74.074,80.99,74.496z"/>
<g>
	<path fill-rule="evenodd" clip-rule="evenodd" fill="#3F3F3F" d="M60.091,13.748c-1.057,10.431,11.38,17.334,18.989,11.744
		c-3.131,4.653-10.186,5.606-15.224,2.056C59.108,24.198,57.312,17.621,60.091,13.748z"/>
</g>
<path fill-rule="evenodd" clip-rule="evenodd" fill="#3F3F3F" d="M71.3,80.249c-1.447,0.06-1.897-0.41-1.694-1.394
	c0.559-2.693,1.081-5.396,1.767-8.057c0.128-0.499,0.92-1.122,1.451-1.169c1.666-0.146,3.358-0.066,5.037-0.028
	c0.39,0.009,0.907,0.086,1.131,0.339c0.337,0.375,0.553,0.922,0.624,1.425c0.018,0.126-0.703,0.485-1.102,0.517
	c-1.063,0.082-2.138,0.077-3.207,0.038c-1.101-0.04-1.706,0.416-1.912,1.512c-0.353,1.852-0.702,3.709-1.182,5.528
	C72.065,79.523,71.502,79.976,71.3,80.249z"/>
<path fill-rule="evenodd" clip-rule="evenodd" fill="#3F3F3F" d="M24.803,84.915c-0.144-0.105-0.984-0.406-1.091-0.872
	c-0.187-0.827,0.13-1.567,1.224-1.944c0.652-0.224,1.302-1.105,1.521-1.822c0.59-1.944,0.965-3.954,1.393-5.946
	c0.215-1.002,0.76-1.468,1.81-1.446c0.937,0.018,1.331,0.387,1.12,1.316c-0.607,2.68-1.125,5.386-1.858,8.032
	C28.357,84.251,27.262,84.94,24.803,84.915z"/>
<path fill-rule="evenodd" clip-rule="evenodd" fill="#3F3F3F" d="M30.117,72.292c-0.705-0.713-1.335-1.05-1.376-1.446
	c-0.1-0.948,0.602-1.403,1.479-1.236c0.473,0.089,0.877,0.538,1.311,0.826C31.136,70.954,30.74,71.472,30.117,72.292z"/>
</svg>
