<?xml version="1.0" encoding="utf-8"?>
<!-- Generator: Adobe Illustrator 16.0.0, SVG Export Plug-In . SVG Version: 6.00 Build 0)  -->
<!DOCTYPE svg PUBLIC "-//W3C//DTD SVG 1.1//EN" "http://www.w3.org/Graphics/SVG/1.1/DTD/svg11.dtd">
<svg version="1.1" id="圖層_1" xmlns="http://www.w3.org/2000/svg" xmlns:xlink="http://www.w3.org/1999/xlink" x="0px" y="0px"
	 width="100px" height="100px" viewBox="0 0 100 100" enable-background="new 0 0 100 100" xml:space="preserve">
<path fill="#F8EEF6" d="M93.158,24.428c8.347,12.667,8.347,28.667,0.347,41.667c-12,19-31,34-54.002,31.678
	c-2.403-0.251-4.8-0.701-7.181-1.389c-6.136-1.705-10.881-5.178-14.516-9.689c-1.818-2.256-3.357-4.771-4.626-7.428
	c-0.844-1.99-1.607-4.021-2.278-6.083c-0.672-2.062-1.252-4.153-1.729-6.263c-5.667-17.384,1.674-35.988,15.63-45.747
	c2.468-1.714,5.041-3.362,7.701-4.885c2.66-1.523,5.406-2.921,8.22-4.134c14.781-8.06,32.781-6.06,45.421,3.587
	C88.64,18.195,90.995,21.099,93.158,24.428z"/>
<g>
	<g>
		<path fill="#3F3F3F" d="M48.339,54.58l-4.702,8.998l4.917,9.359h-3.963l-1.646-3.557c-0.621-1.268-1.051-2.244-1.504-3.344h-0.072
			c-0.381,1.1-0.811,2.102-1.36,3.367l-1.503,3.533h-3.868l4.75-9.334l-4.583-9.023h3.939l1.646,3.604
			c0.479,1.051,0.835,1.982,1.266,3.008h0.049c0.43-1.145,0.738-1.98,1.191-3.031l1.553-3.58H48.339 M48.339,52.58h-3.891
			c-0.797,0-1.518,0.473-1.835,1.203l-0.991,2.285l-1.06-2.32c-0.326-0.711-1.037-1.168-1.819-1.168h-3.939
			c-0.695,0-1.341,0.361-1.705,0.953c-0.364,0.594-0.394,1.332-0.079,1.951l4.123,8.117l-4.289,8.428
			c-0.315,0.621-0.286,1.359,0.078,1.953s1.009,0.955,1.705,0.955h3.868c0.802,0,1.526-0.48,1.84-1.217l1.151-2.707l1.279,2.764
			c0.327,0.707,1.036,1.16,1.815,1.16h3.963c0.7,0,1.35-0.367,1.712-0.967c0.362-0.6,0.384-1.344,0.059-1.965l-4.43-8.43l4.217-8.07
			c0.324-0.619,0.301-1.363-0.062-1.963C49.687,52.945,49.039,52.58,48.339,52.58L48.339,52.58z"/>
	</g>
	<g>
		<path fill="#3F3F3F" d="M65.507,53.744v15.396c0,1.338,0.048,2.818,0.096,3.797h-3.104l-0.166-1.887h-0.07
			c-0.693,1.313-2.127,2.148-3.75,2.148c-3.008,0-5.157-2.77-5.157-6.803c0-4.535,2.508-7.018,5.372-7.018
			c1.553,0,2.673,0.645,3.199,1.551h0.049v-7.186H65.507 M59.588,70.357c1.049,0,2.388-0.762,2.388-2.863v-2.436
			c0-1.934-1.171-2.889-2.34-2.889c-1.815,0-2.722,1.863-2.722,4.178C56.914,68.758,57.917,70.357,59.588,70.357 M65.507,51.744
			h-3.531c-1.104,0-2,0.895-2,2v3.744c-0.4-0.072-0.817-0.109-1.248-0.109c-3.551,0-7.372,2.822-7.372,9.018
			c0,5.1,3.01,8.803,7.157,8.803c1.006,0,1.968-0.225,2.821-0.637c0.329,0.236,0.732,0.375,1.165,0.375h3.104
			c0.548,0,1.071-0.225,1.448-0.621c0.378-0.396,0.576-0.93,0.55-1.477c-0.046-0.924-0.094-2.379-0.094-3.699V53.744
			C67.507,52.639,66.611,51.744,65.507,51.744L65.507,51.744z M59.588,68.357c-0.371,0-0.674-0.902-0.674-2.01
			c0-1.303,0.373-2.178,0.722-2.178c0.167,0,0.34,0.332,0.34,0.889v2.436C59.976,67.754,59.938,68.357,59.588,68.357L59.588,68.357z
			"/>
	</g>
</g>
<rect x="23.898" y="7.145" fill="none" stroke="#3F3F3F" stroke-width="2" stroke-linecap="round" stroke-linejoin="round" stroke-miterlimit="10" width="51.782" height="72.423"/>
<rect x="31.555" y="14.424" fill="none" stroke="#3F3F3F" stroke-width="2" stroke-linecap="round" stroke-linejoin="round" stroke-miterlimit="10" width="36.52" height="26.436"/>
<line fill="none" stroke="#3F3F3F" stroke-width="2" stroke-linecap="round" stroke-linejoin="round" stroke-miterlimit="10" x1="31.555" y1="14.424" x2="68.074" y2="40.86"/>
<line fill="none" stroke="#3F3F3F" stroke-width="2" stroke-linecap="round" stroke-linejoin="round" stroke-miterlimit="10" x1="68.074" y1="14.424" x2="31.555" y2="40.86"/>
<path fill="none" stroke="#3F3F3F" stroke-width="2" stroke-linecap="round" stroke-linejoin="round" stroke-miterlimit="10" d="
	M77.787,29.777c0,0,6.272,0.055,7.959,2.409c3.452,4.819-1.215,7.469,2.158,11.083c2.631,2.818,7.71,2.891,7.71,2.891"/>
<path fill="#3F3F3F" d="M75.698,29.317c0-1.077,0.935-1.949,2.089-1.949l0,0c1.151,0,2.087,0.873,2.087,1.949v0.919
	c0,1.077-0.936,1.95-2.087,1.95l0,0c-1.154,0-2.089-0.874-2.089-1.95V29.317z"/>
<path fill="#3F3F3F" d="M93.526,45.701c0-1.076,0.972-1.95,2.168-1.95l0,0c1.197,0,2.169,0.874,2.169,1.95v0.918
	c0,1.077-0.972,1.951-2.169,1.951l0,0c-1.196,0-2.168-0.874-2.168-1.951V45.701z"/>
<path fill="none" stroke="#3F3F3F" stroke-width="2" stroke-linecap="round" stroke-linejoin="round" stroke-miterlimit="10" d="
	M3.3,35.165c0,0,6.273,0.056,7.96,2.41c3.452,4.818-1.215,7.468,2.158,11.083c2.63,2.817,7.709,2.891,7.709,2.891"/>
<path fill="#3F3F3F" d="M1.212,34.706c0-1.077,0.935-1.95,2.088-1.95l0,0c1.153,0,2.089,0.873,2.089,1.95v0.918
	c0,1.077-0.936,1.951-2.089,1.951l0,0c-1.153,0-2.088-0.875-2.088-1.951V34.706z"/>
<path fill="#3F3F3F" d="M19.04,51.09c0-1.077,0.971-1.952,2.168-1.952l0,0c1.197,0,2.168,0.875,2.168,1.952v0.918
	c0,1.076-0.971,1.949-2.168,1.949l0,0c-1.197,0-2.168-0.873-2.168-1.949V51.09z"/>
</svg>
