<?xml version="1.0" encoding="utf-8"?>
<!-- Generator: Adobe Illustrator 16.0.0, SVG Export Plug-In . SVG Version: 6.00 Build 0)  -->
<!DOCTYPE svg PUBLIC "-//W3C//DTD SVG 1.1//EN" "http://www.w3.org/Graphics/SVG/1.1/DTD/svg11.dtd">
<svg version="1.1" id="圖層_1" xmlns="http://www.w3.org/2000/svg" xmlns:xlink="http://www.w3.org/1999/xlink" x="0px" y="0px"
	 width="200px" height="200px" viewBox="0 0 200 200" enable-background="new 0 0 200 200" xml:space="preserve">
<circle fill="#EDEDED" cx="99.642" cy="100.177" r="97.324"/>
<g>
	<g>
		<linearGradient id="SVGID_1_" gradientUnits="userSpaceOnUse" x1="72.4229" y1="68.6753" x2="98.6533" y2="68.6753">
			<stop  offset="0" style="stop-color:#C2CAE7"/>
			<stop  offset="1" style="stop-color:#CAB3D5"/>
		</linearGradient>
		<path fill="url(#SVGID_1_)" d="M72.423,85.786V51.564h17.354c2.402,0,4.5,0.78,6.235,2.318c1.752,1.554,2.641,3.431,2.641,5.579
			v3.677c0,2.147-0.889,4.023-2.641,5.578c-1.737,1.539-3.834,2.319-6.235,2.319H81.85v14.75H72.423z M85.537,66.314
			c1.063,0,1.937-0.314,2.674-0.96c0.717-0.631,1.066-1.355,1.066-2.215v-3.677c0-0.889-0.349-1.628-1.067-2.261
			c-0.736-0.646-1.611-0.96-2.673-0.96H81.85v10.074H85.537z"/>
		<path fill="#FFFFFF" d="M89.777,52.064c2.288,0,4.254,0.731,5.903,2.192c1.648,1.461,2.473,3.197,2.473,5.205v3.677
			c0,2.008-0.824,3.742-2.473,5.204c-1.649,1.461-3.616,2.193-5.903,2.193H81.35v14.75h-8.427V52.064H89.777 M81.35,66.814h4.187
			c1.178,0,2.179-0.361,3.003-1.084c0.823-0.724,1.237-1.587,1.237-2.591v-3.677c0-1.034-0.414-1.911-1.237-2.636
			c-0.824-0.723-1.826-1.085-3.003-1.085H81.35V66.814 M89.777,51.064H72.923h-1v1v33.222v1h1h8.427h1v-1v-13.75h7.427
			c2.527,0,4.736-0.823,6.566-2.445c1.864-1.654,2.81-3.657,2.81-5.953v-3.677c0-2.298-0.945-4.301-2.809-5.953
			C94.514,51.887,92.305,51.064,89.777,51.064L89.777,51.064z M82.35,56.741h3.187c0.935,0,1.702,0.274,2.344,0.837
			c0.611,0.538,0.896,1.137,0.896,1.884v3.677c0,0.717-0.285,1.302-0.897,1.84c-0.641,0.562-1.407,0.835-2.343,0.835H82.35V56.741
			L82.35,56.741z"/>
	</g>
	<g>
		<linearGradient id="SVGID_2_" gradientUnits="userSpaceOnUse" x1="106.0791" y1="68.6753" x2="128.1592" y2="68.6753">
			<stop  offset="0" style="stop-color:#C2CAE7"/>
			<stop  offset="1" style="stop-color:#CAB3D5"/>
		</linearGradient>
		<path fill="url(#SVGID_2_)" d="M115.008,85.786c-2.904,0-5.137-0.66-6.636-1.96c-1.521-1.32-2.293-3.318-2.293-5.938v-0.5h5.238
			v1.121c0,0.824,0.351,1.438,1.073,1.877c0.791,0.48,1.671,0.724,2.617,0.724c1.339,0,2.3-0.273,2.856-0.811
			c0.56-0.542,0.831-1.33,0.831-2.41c0-0.813-0.348-1.551-1.063-2.256l-8.929-8.771c-1.741-1.683-2.625-3.562-2.625-5.584v-1.816
			c0-2.148,0.89-4.026,2.645-5.58c1.731-1.538,3.846-2.318,6.284-2.318h4.188c5.565,0,8.569,2.646,8.928,7.863l0.036,0.534h-5.158
			l-0.063-0.427c-0.334-2.248-1.443-3.294-3.492-3.294c-1.354,0-2.366,0.273-3.009,0.813c-0.626,0.524-0.93,1.312-0.93,2.408
			c0,0.788,0.35,1.528,1.068,2.263l8.923,8.764c1.742,1.718,2.625,3.596,2.625,5.583v1.816c0,2.147-0.89,4.024-2.644,5.579
			c-1.735,1.539-3.851,2.319-6.285,2.319H115.008z"/>
		<path fill="#FFFFFF" d="M119.195,52.064c5.28,0,8.09,2.465,8.429,7.397h-4.191c-0.368-2.481-1.698-3.721-3.986-3.721
			c-1.48,0-2.592,0.31-3.33,0.931c-0.739,0.619-1.108,1.551-1.108,2.791c0,0.916,0.403,1.787,1.211,2.613l8.93,8.771
			c1.648,1.625,2.476,3.367,2.476,5.227v1.816c0,2.009-0.827,3.744-2.476,5.205c-1.648,1.461-3.632,2.193-5.953,2.193h-4.188
			c-2.795,0-4.896-0.612-6.309-1.838c-1.412-1.225-2.12-3.079-2.12-5.56h4.238c0,0.267,0,0.474,0,0.621
			c0,1.004,0.438,1.772,1.313,2.304c0.874,0.531,1.833,0.796,2.877,0.796c1.479,0,2.548-0.317,3.204-0.952
			c0.655-0.635,0.983-1.558,0.983-2.77c0-0.945-0.404-1.816-1.211-2.612l-8.93-8.771c-1.65-1.595-2.476-3.336-2.476-5.227v-1.816
			c0-2.008,0.825-3.744,2.476-5.205c1.646-1.461,3.632-2.192,5.953-2.192H119.195 M119.195,51.064h-4.188
			c-2.564,0-4.791,0.822-6.617,2.445c-1.865,1.651-2.812,3.655-2.812,5.953v1.816c0,2.163,0.936,4.163,2.78,5.946l8.924,8.766
			c0.613,0.605,0.912,1.226,0.912,1.898c0,0.938-0.222,1.608-0.679,2.051c-0.453,0.438-1.321,0.67-2.509,0.67
			c-0.865,0-1.637-0.213-2.357-0.651c-0.576-0.35-0.833-0.796-0.833-1.449v-0.621v-1h-1h-4.238h-1v1
			c0,2.771,0.829,4.896,2.465,6.315c1.594,1.382,3.937,2.083,6.964,2.083h4.188c2.561,0,4.787-0.822,6.616-2.445
			c1.866-1.653,2.813-3.657,2.813-5.953v-1.816c0-2.126-0.934-4.125-2.773-5.938l-8.931-8.772c-0.609-0.623-0.912-1.249-0.912-1.899
			c0-0.939,0.245-1.601,0.75-2.024c0.552-0.463,1.455-0.697,2.688-0.697c1.778,0,2.703,0.884,2.997,2.868l0.127,0.853h0.862h4.191
			h1.071l-0.073-1.068C128.247,53.944,124.987,51.064,119.195,51.064L119.195,51.064z"/>
	</g>
</g>
<g>
	<g>
		<linearGradient id="SVGID_3_" gradientUnits="userSpaceOnUse" x1="123.4268" y1="90.5977" x2="167.2402" y2="90.5977">
			<stop  offset="0" style="stop-color:#C2CAE7"/>
			<stop  offset="1" style="stop-color:#CAB3D5"/>
		</linearGradient>
		<path fill="url(#SVGID_3_)" d="M137.863,124.189c-1.454-2.244-3.476-4.09-5.843-5.34c-2.246-1.183-4.773-1.808-7.309-1.808
			c-0.133,0-0.266,0.001-0.397,0.005l-0.888,0.022l33.351-58.269l0.06,0.032c1.036-1.604,2.814-2.582,4.753-2.582
			c0.911,0,1.821,0.226,2.631,0.653c2.61,1.374,3.702,4.517,2.581,7.19l-0.148,0.456l-28.3,60.395L137.863,124.189z"/>
		<path fill="#FFFFFF" d="M161.59,56.75c0.81,0,1.632,0.192,2.397,0.596c2.521,1.326,3.484,4.447,2.16,6.964l0.053,0.027
			l-27.917,59.579c-1.458-2.248-3.489-4.169-6.029-5.51c-2.41-1.269-4.995-1.865-7.542-1.865c-0.137,0-0.273,0.001-0.41,0.005
			l32.668-57.076l0.055,0.029C157.948,57.75,159.738,56.75,161.59,56.75 M161.59,55.75L161.59,55.75
			c-1.952,0-3.756,0.912-4.908,2.432l-0.097-0.052l-0.483,0.844l-32.668,57.075l-0.882,1.541l1.775-0.044
			c0.128-0.004,0.257-0.005,0.385-0.005c2.454,0,4.901,0.604,7.076,1.75c2.291,1.21,4.247,2.997,5.656,5.169l0.98,1.512l0.764-1.632
			l27.917-59.579l0.408-0.87l-0.086-0.044c0.934-2.807-0.274-5.966-2.975-7.387C163.572,55.997,162.582,55.75,161.59,55.75
			L161.59,55.75z"/>
	</g>
	<g>
		<linearGradient id="SVGID_4_" gradientUnits="userSpaceOnUse" x1="102.0254" y1="138.3398" x2="134.2695" y2="138.3398">
			<stop  offset="0" style="stop-color:#C2CAE7"/>
			<stop  offset="1" style="stop-color:#CAB3D5"/>
		</linearGradient>
		<path fill="url(#SVGID_4_)" d="M110.725,152.74c-4.032-0.001-6.685-0.85-6.796-0.886l-1.903-0.62l1.972-0.348
			c3.502-0.617,5.639-1.649,6.533-3.155c0.599-1.009,0.641-2.239,0.129-3.762c-3.26-9.683,1.673-14.852,1.885-15.067l0.177-0.18
			c0.279-0.386,0.592-0.797,0.957-1.171c2.28-2.33,5.33-3.612,8.589-3.612c3.158,0,6.141,1.216,8.398,3.424
			c4.731,4.631,4.816,12.251,0.188,16.985C123.678,151.285,115.948,152.74,110.725,152.74L110.725,152.74z"/>
		<path fill="#FFFFFF" d="M122.267,124.439c2.903,0,5.81,1.092,8.049,3.281c4.543,4.446,4.625,11.731,0.181,16.278
			c-7.007,6.773-14.548,8.241-19.771,8.241c-3.999,0-6.641-0.861-6.641-0.861c5.298-0.934,8.584-3.009,7.049-7.568
			c-3.199-9.503,1.768-14.558,1.768-14.558l0.034,0.028c0.34-0.475,0.683-0.951,1.102-1.381
			C116.292,125.596,119.277,124.439,122.267,124.439 M122.267,123.439c-3.395,0-6.571,1.336-8.945,3.762
			c-0.394,0.403-0.723,0.837-1.015,1.24l-0.119,0.11c-0.221,0.225-5.359,5.607-2.002,15.578c0.463,1.375,0.435,2.47-0.085,3.347
			c-0.805,1.354-2.887,2.335-6.19,2.918l-3.943,0.694l3.807,1.241c0.113,0.037,2.839,0.91,6.95,0.91
			c5.314,0,13.18-1.479,20.467-8.522c4.84-4.951,4.752-12.888-0.177-17.712C128.663,124.706,125.556,123.439,122.267,123.439
			L122.267,123.439z"/>
	</g>
</g>
<g>
	<linearGradient id="SVGID_5_" gradientUnits="userSpaceOnUse" x1="27.126" y1="119.2852" x2="99.3203" y2="119.2852">
		<stop  offset="0" style="stop-color:#81AADA"/>
		<stop  offset="1" style="stop-color:#E0BBCB"/>
	</linearGradient>
	<path fill="url(#SVGID_5_)" d="M31.336,100.352c0,0,0.355-0.211,1.022-0.554c0.646-0.366,1.601-0.854,2.815-1.473
		c1.22-0.612,2.692-1.33,4.525-2.067c1.84-0.69,4.091-1.478,7.042-1.547c1.465-0.018,3.088,0.195,4.673,0.713
		c1.587,0.521,3.101,1.322,4.427,2.303c1.347,0.961,2.515,2.094,3.576,3.281l0.394,0.447l0.197,0.226l0.049,0.056l0.187,0.239
		l0.077,0.105l0.31,0.424c0.059,0.085,0.086,0.11,0.172,0.245l0.25,0.398c0.164,0.269,0.322,0.541,0.475,0.817
		c0.138,0.264,0.23,0.491,0.344,0.742c0.232,0.49,0.39,0.989,0.549,1.493c0.618,2.029,0.67,3.975,0.597,5.735
		c-0.08,1.769-0.355,3.386-0.619,4.923c-0.542,3.061-1.116,5.852-1.225,8.446c-0.1,2.592,0.269,4.918,1.299,7.033
		c0.504,1.061,1.189,2.06,1.968,3.017c0.131,0.163,0.305,0.353,0.495,0.55c0.187,0.182,0.375,0.356,0.57,0.519
		c0.39,0.321,0.8,0.591,1.234,0.828c1.718,0.947,4.099,1.096,6.561,0.928c2.463-0.161,4.978-0.555,7.383-0.686
		c2.401-0.157,4.725-0.04,6.702,0.469c1.981,0.514,3.562,1.366,4.685,2.221c1.123,0.871,1.833,1.7,2.298,2.264
		c0.453,0.578,0.662,0.903,0.662,0.903s-0.305-0.244-0.904-0.642c-0.591-0.401-1.479-0.971-2.681-1.439
		c-1.184-0.496-2.684-0.867-4.405-0.874c-1.722-0.026-3.649,0.291-5.78,0.849c-2.138,0.554-4.463,1.349-7.203,1.985
		c-1.372,0.306-2.859,0.578-4.504,0.625c-1.635,0.041-3.454-0.155-5.237-0.803c-0.89-0.316-1.754-0.75-2.559-1.264
		c-0.402-0.257-0.788-0.534-1.164-0.824c-0.36-0.29-0.727-0.6-1.109-0.968c-1.234-1.198-2.392-2.587-3.319-4.183
		c-0.939-1.582-1.67-3.339-2.137-5.143c-0.473-1.805-0.661-3.644-0.699-5.408c-0.077-3.542,0.493-6.799,0.888-9.686
		c0.397-2.863,0.577-5.439,0.06-6.888c-0.066-0.178-0.116-0.363-0.204-0.511c-0.037-0.072-0.075-0.176-0.104-0.224
		c-0.026-0.03-0.046-0.062-0.061-0.098l-0.018-0.057c-0.002-0.018-0.092-0.125-0.134-0.184l-0.317-0.418l-0.439-0.517
		c-0.77-0.881-1.547-1.642-2.285-2.286c-1.515-1.271-2.842-1.958-4.491-2.325c-1.648-0.356-3.586-0.359-5.392-0.318
		c-1.818,0.028-3.507,0.081-4.907,0.032c-1.403-0.046-2.517-0.145-3.284-0.262c-0.749-0.105-1.149-0.197-1.149-0.197l-0.006-0.001
		c-0.286-0.066-0.464-0.351-0.398-0.637C31.124,100.542,31.216,100.423,31.336,100.352z"/>
</g>
</svg>
