<?xml version="1.0" encoding="utf-8"?>
<!-- Generator: Adobe Illustrator 16.0.0, SVG Export Plug-In . SVG Version: 6.00 Build 0)  -->
<!DOCTYPE svg PUBLIC "-//W3C//DTD SVG 1.1//EN" "http://www.w3.org/Graphics/SVG/1.1/DTD/svg11.dtd">
<svg version="1.1" id="圖層_1" xmlns="http://www.w3.org/2000/svg" xmlns:xlink="http://www.w3.org/1999/xlink" x="0px" y="0px"
	 width="85.04px" height="85.04px" viewBox="0 0 85.04 85.04" enable-background="new 0 0 85.04 85.04" xml:space="preserve">
<circle fill="#E5E5E4" cx="42.541" cy="42.463" r="41.577"/>
<g>
	<g>
		<linearGradient id="SVGID_1_" gradientUnits="userSpaceOnUse" x1="29.7476" y1="31.832" x2="42.0874" y2="31.832">
			<stop  offset="0" style="stop-color:#81AADA"/>
			<stop  offset="1" style="stop-color:#E0BBCB"/>
		</linearGradient>
		<path fill="url(#SVGID_1_)" d="M29.748,39.798V23.866h8.075c1.149,0,2.153,0.374,2.985,1.111c0.849,0.753,1.28,1.666,1.28,2.714
			v1.653c0,1.047-0.431,1.959-1.28,2.712c-0.832,0.738-1.836,1.112-2.985,1.112h-3.287v6.629H29.748z M35.917,30.496
			c0.408,0,0.742-0.119,1.021-0.363c0.262-0.231,0.385-0.481,0.385-0.789v-1.653c0-0.321-0.123-0.579-0.386-0.811
			c-0.278-0.243-0.612-0.362-1.02-0.362h-1.381v3.978H35.917z"/>
		<path fill="#FFFFFF" d="M37.823,24.366c1.028,0,1.912,0.328,2.653,0.985c0.741,0.657,1.111,1.437,1.111,2.34v1.653
			c0,0.902-0.371,1.682-1.111,2.338c-0.741,0.658-1.625,0.986-2.653,0.986h-3.787v6.629h-3.788V24.366H37.823 M34.036,30.996h1.881
			c0.529,0,0.979-0.162,1.351-0.487c0.37-0.326,0.555-0.714,0.555-1.165v-1.653c0-0.465-0.185-0.859-0.555-1.186
			c-0.371-0.325-0.822-0.487-1.351-0.487h-1.881V30.996 M37.823,23.366h-7.575h-1v1v14.932v1h1h3.788h1v-1v-5.629h2.787
			c1.275,0,2.391-0.417,3.317-1.238c0.96-0.852,1.448-1.89,1.448-3.086v-1.653c0-1.197-0.487-2.236-1.448-3.088
			C40.213,23.782,39.098,23.366,37.823,23.366L37.823,23.366z M35.036,27.018h0.881c0.285,0,0.505,0.076,0.692,0.24
			c0.177,0.156,0.214,0.286,0.214,0.433v1.653c0,0.116-0.026,0.247-0.216,0.414c-0.185,0.162-0.404,0.238-0.69,0.238h-0.881V27.018
			L35.036,27.018z"/>
	</g>
	<g>
		<linearGradient id="SVGID_2_" gradientUnits="userSpaceOnUse" x1="44.875" y1="31.832" x2="55.3682" y2="31.832">
			<stop  offset="0" style="stop-color:#81AADA"/>
			<stop  offset="1" style="stop-color:#E0BBCB"/>
		</linearGradient>
		<path fill="url(#SVGID_2_)" d="M49.163,39.798c-1.372,0-2.436-0.319-3.163-0.948c-0.747-0.647-1.125-1.615-1.125-2.877v-0.5h2.905
			v0.779c0,0.278,0.104,0.46,0.349,0.608c0.317,0.193,0.654,0.286,1.034,0.286c0.521,0,0.897-0.099,1.091-0.287
			c0.196-0.189,0.291-0.479,0.291-0.886c0-0.288-0.129-0.556-0.395-0.818l-4.014-3.942c-0.836-0.807-1.261-1.719-1.261-2.707v-0.815
			c0-1.049,0.431-1.962,1.28-2.714c0.83-0.736,1.842-1.11,3.008-1.11h1.882c2.636,0,4.118,1.311,4.287,3.791l0.036,0.534h-2.849
			l-0.063-0.426c-0.13-0.874-0.518-1.247-1.297-1.247c-0.542,0-0.937,0.102-1.175,0.301c-0.216,0.181-0.321,0.466-0.321,0.872
			c0,0.278,0.131,0.548,0.402,0.824l4.007,3.935c0.837,0.826,1.261,1.736,1.261,2.707v0.816c0,1.047-0.431,1.96-1.279,2.714
			c-0.832,0.737-1.844,1.111-3.009,1.111H49.163z"/>
		<path fill="#FFFFFF" d="M51.045,24.366c2.374,0,3.637,1.108,3.788,3.325H52.95c-0.166-1.115-0.763-1.673-1.792-1.673
			c-0.665,0-1.165,0.14-1.497,0.418c-0.333,0.278-0.499,0.696-0.499,1.254c0,0.412,0.181,0.803,0.544,1.174l4.014,3.942
			c0.741,0.731,1.111,1.514,1.111,2.35v0.816c0,0.903-0.371,1.683-1.111,2.34c-0.741,0.657-1.634,0.985-2.677,0.985h-1.882
			c-1.256,0-2.2-0.276-2.835-0.826c-0.635-0.55-0.953-1.384-0.953-2.499h1.905c0,0.12,0,0.213,0,0.279
			c0,0.451,0.196,0.797,0.59,1.036c0.393,0.239,0.823,0.358,1.292,0.358c0.665,0,1.145-0.143,1.439-0.428
			c0.295-0.285,0.442-0.7,0.442-1.245c0-0.425-0.181-0.816-0.543-1.174l-4.015-3.943c-0.742-0.716-1.112-1.499-1.112-2.35v-0.815
			c0-0.903,0.37-1.683,1.112-2.34c0.74-0.657,1.633-0.985,2.676-0.985H51.045 M51.045,23.366h-1.882
			c-1.292,0-2.416,0.416-3.34,1.237c-0.96,0.851-1.448,1.89-1.448,3.088v0.815c0,1.129,0.477,2.162,1.417,3.069l4.008,3.937
			c0.244,0.241,0.244,0.4,0.244,0.46c0,0.179-0.024,0.416-0.137,0.525c-0.058,0.056-0.277,0.148-0.745,0.148
			c-0.285,0-0.538-0.069-0.772-0.212c-0.106-0.064-0.11-0.091-0.11-0.182v-0.279v-1h-1h-1.905h-1v1c0,1.414,0.437,2.509,1.298,3.255
			c0.821,0.71,1.995,1.07,3.49,1.07h1.882c1.29,0,2.414-0.416,3.34-1.236c0.961-0.854,1.448-1.893,1.448-3.089v-0.816
			c0-1.109-0.474-2.139-1.409-3.062l-4.016-3.944c-0.245-0.251-0.245-0.409-0.245-0.46c0-0.245,0.047-0.409,0.141-0.488
			c0.067-0.056,0.283-0.185,0.855-0.185c0.398,0,0.689,0.059,0.802,0.82l0.127,0.853h0.862h1.883h1.07l-0.073-1.068
			C55.644,24.878,53.944,23.366,51.045,23.366L51.045,23.366z"/>
	</g>
</g>
<g>
	<g>
		<linearGradient id="SVGID_3_" gradientUnits="userSpaceOnUse" x1="52.8408" y1="41.5664" x2="72.917" y2="41.5664">
			<stop  offset="0" style="stop-color:#81AADA"/>
			<stop  offset="1" style="stop-color:#E0BBCB"/>
		</linearGradient>
		<path fill="url(#SVGID_3_)" d="M59.625,57.161c-0.168,0-0.327-0.085-0.419-0.228c-0.629-0.969-1.502-1.766-2.524-2.306
			c-0.983-0.518-2.043-0.78-3.151-0.78c0,0-0.185,0.002-0.189,0.002c-0.176,0-0.339-0.092-0.429-0.244
			c-0.093-0.155-0.094-0.348-0.005-0.505l14.683-25.653c0.028-0.049,0.063-0.091,0.104-0.127c0.511-0.836,1.417-1.348,2.407-1.348
			c0.455,0,0.908,0.113,1.312,0.326c0.666,0.349,1.155,0.938,1.378,1.657c0.206,0.665,0.162,1.367-0.124,1.996
			c-0.005,0.049-0.019,0.097-0.04,0.143L60.078,56.873C60,57.037,59.841,57.147,59.66,57.16
			C59.648,57.16,59.636,57.161,59.625,57.161z"/>
		<path fill="#FFFFFF" d="M70.1,26.472c0.364,0,0.734,0.086,1.078,0.268c1.133,0.595,1.566,1.998,0.971,3.129l0.023,0.013
			L59.625,56.661c-0.656-1.01-1.569-1.873-2.71-2.476c-1.082-0.57-2.241-0.838-3.385-0.838c-0.063,0-0.126,0.001-0.189,0.002
			l14.683-25.653l0.024,0.012C68.463,26.921,69.268,26.472,70.1,26.472 M70.1,25.472L70.1,25.472c-1.146,0-2.197,0.583-2.803,1.539
			c-0.054,0.056-0.102,0.118-0.141,0.188L52.473,52.853c-0.18,0.313-0.176,0.699,0.009,1.009c0.181,0.303,0.507,0.487,0.858,0.487
			c0.009,0,0.017,0,0.026,0l0.164-0.002c1.026,0,2.008,0.243,2.918,0.723c0.946,0.5,1.754,1.238,2.338,2.136
			c0.185,0.285,0.501,0.455,0.838,0.455c0.023,0,0.046-0.001,0.069-0.002c0.362-0.025,0.683-0.245,0.836-0.573l12.548-26.778
			c0.033-0.071,0.057-0.144,0.073-0.217c0.309-0.723,0.351-1.523,0.116-2.282c-0.262-0.847-0.839-1.541-1.624-1.953
			C71.169,25.605,70.635,25.472,70.1,25.472L70.1,25.472L70.1,25.472z"/>
	</g>
	<g>
		<linearGradient id="SVGID_4_" gradientUnits="userSpaceOnUse" x1="43.7534" y1="63.1436" x2="58.0962" y2="63.1436">
			<stop  offset="0" style="stop-color:#81AADA"/>
			<stop  offset="1" style="stop-color:#E0BBCB"/>
		</linearGradient>
		<path fill="url(#SVGID_4_)" d="M47.238,69.891c-1.856,0-3.088-0.395-3.14-0.412c-0.218-0.071-0.36-0.282-0.344-0.511
			c0.016-0.229,0.186-0.417,0.412-0.458c1.469-0.258,2.393-0.691,2.747-1.287c0.226-0.38,0.237-0.859,0.034-1.462
			c-1.52-4.51,0.813-6.952,0.913-7.053c0.015-0.015,0.03-0.029,0.047-0.042c0.146-0.202,0.291-0.39,0.461-0.564
			c1.077-1.101,2.518-1.707,4.057-1.707c1.492,0,2.901,0.575,3.968,1.618c2.236,2.188,2.275,5.787,0.088,8.023
			C53.185,69.224,49.637,69.891,47.238,69.891C47.238,69.891,47.238,69.891,47.238,69.891z"/>
		<path fill="#FFFFFF" d="M52.425,56.896c1.305,0,2.611,0.491,3.618,1.476c2.043,1.999,2.079,5.272,0.081,7.316
			c-3.148,3.043-6.538,3.704-8.886,3.704c-1.798,0-2.985-0.387-2.985-0.387c2.382-0.419,3.858-1.353,3.168-3.402
			c-1.439-4.271,0.795-6.543,0.795-6.543l0.014,0.013c0.154-0.213,0.307-0.427,0.495-0.62C49.74,57.416,51.082,56.896,52.425,56.896
			 M52.425,55.896c-1.675,0-3.243,0.66-4.414,1.857c-0.187,0.191-0.34,0.39-0.476,0.575c-0.011,0.01-0.021,0.02-0.032,0.031
			c-0.109,0.111-2.647,2.766-1.03,7.563c0.229,0.679,0.064,0.957,0.01,1.047c-0.155,0.262-0.674,0.746-2.404,1.05
			c-0.452,0.08-0.792,0.457-0.824,0.915c-0.032,0.458,0.251,0.879,0.688,1.021c0.055,0.018,1.36,0.437,3.295,0.437
			c2.49,0,6.174-0.691,9.581-3.985c2.4-2.454,2.357-6.37-0.076-8.75C55.582,56.521,54.049,55.896,52.425,55.896L52.425,55.896z"/>
	</g>
</g>
<linearGradient id="SVGID_5_" gradientUnits="userSpaceOnUse" x1="8.5918" y1="55.5566" x2="43.1841" y2="55.5566">
	<stop  offset="0" style="stop-color:#81AADA"/>
	<stop  offset="1" style="stop-color:#E0BBCB"/>
</linearGradient>
<path fill="none" stroke="url(#SVGID_5_)" stroke-width="6" stroke-linecap="round" stroke-miterlimit="10" d="M11.592,46.288
	c4.802-0.732,9.474-1.637,12.129,3.474c2.654,5.111-3.103,7.68,1.367,12.83c4.128,4.755,10.312-2.27,15.096,2.804"/>
</svg>
