<?xml version="1.0" encoding="utf-8"?>
<!-- Generator: Adobe Illustrator 16.0.0, SVG Export Plug-In . SVG Version: 6.00 Build 0)  -->
<!DOCTYPE svg PUBLIC "-//W3C//DTD SVG 1.1//EN" "http://www.w3.org/Graphics/SVG/1.1/DTD/svg11.dtd">
<svg version="1.1" id="圖層_1" xmlns="http://www.w3.org/2000/svg" xmlns:xlink="http://www.w3.org/1999/xlink" x="0px" y="0px"
	 width="200px" height="200px" viewBox="0 0 200 200" enable-background="new 0 0 200 200" xml:space="preserve">
<circle fill="#EDEDED" cx="99.718" cy="99.82" r="98.449"/>
<g>
	<g>
		<linearGradient id="SVGID_1_" gradientUnits="userSpaceOnUse" x1="76.9541" y1="99.8193" x2="102.2324" y2="99.8193">
			<stop  offset="0" style="stop-color:#C2CAE7"/>
			<stop  offset="1" style="stop-color:#CAB3D5"/>
		</linearGradient>
		<path fill="url(#SVGID_1_)" d="M93.172,118.529v-16.17h-7.11v16.17h-9.108V89.719c0-2.362,0.858-4.409,2.55-6.084
			c1.694-1.676,3.732-2.525,6.058-2.525h8.11c2.329,0,4.359,0.859,6.037,2.553c1.674,1.692,2.524,3.729,2.524,6.057v28.811H93.172z
			 M93.172,97.279v-7.561c0-1.004-0.341-1.833-1.044-2.535c-0.704-0.703-1.533-1.044-2.535-1.044c-0.971,0-1.785,0.341-2.487,1.044
			c-0.702,0.702-1.043,1.531-1.043,2.535v7.561H93.172z"/>
		<path fill="#FFFFFF" d="M93.672,81.609c2.201,0,4.095,0.802,5.681,2.405s2.379,3.504,2.379,5.705v28.311h-8.061v-16.17h-8.11
			v16.17h-8.108V89.719c0-2.234,0.801-4.144,2.402-5.729c1.604-1.586,3.505-2.381,5.706-2.381H93.672 M85.562,97.779h8.11v-8.061
			c0-1.132-0.396-2.095-1.191-2.889c-0.793-0.793-1.754-1.19-2.888-1.19c-1.1,0-2.048,0.397-2.841,1.19
			c-0.793,0.793-1.19,1.756-1.19,2.889V97.779 M93.672,80.609h-8.11c-2.462,0-4.619,0.898-6.409,2.67
			c-1.791,1.773-2.699,3.94-2.699,6.44v28.311v1h1h8.108h1v-1v-15.17h6.11v15.17v1h1h8.061h1v-1V89.719
			c0-2.463-0.897-4.62-2.669-6.409C98.289,81.518,96.139,80.609,93.672,80.609L93.672,80.609z M86.562,96.779v-7.061
			c0-0.864,0.293-1.578,0.897-2.182c0.604-0.604,1.302-0.897,2.134-0.897c0.863,0,1.577,0.293,2.181,0.898
			c0.604,0.603,0.898,1.316,0.898,2.181v7.061H86.562L86.562,96.779z"/>
	</g>
	<g>
		<linearGradient id="SVGID_2_" gradientUnits="userSpaceOnUse" x1="113.4209" y1="99.8193" x2="122.4814" y2="99.8193">
			<stop  offset="0" style="stop-color:#C2CAE7"/>
			<stop  offset="1" style="stop-color:#CAB3D5"/>
		</linearGradient>
		<rect x="113.421" y="81.109" fill="url(#SVGID_2_)" width="9.061" height="37.42"/>
		<path fill="#FFFFFF" d="M121.981,81.609v36.42h-8.061v-36.42H121.981 M122.981,80.609h-1h-8.061h-1v1v36.42v1h1h8.061h1v-1v-36.42
			V80.609L122.981,80.609z"/>
	</g>
</g>
<linearGradient id="SVGID_3_" gradientUnits="userSpaceOnUse" x1="55.2896" y1="99.8193" x2="144.1475" y2="99.8193">
	<stop  offset="0" style="stop-color:#81AADA"/>
	<stop  offset="1" style="stop-color:#E0BBCB"/>
</linearGradient>
<rect x="56.29" y="56.657" fill="none" stroke="url(#SVGID_3_)" stroke-width="2" stroke-linecap="round" stroke-miterlimit="10" width="86.858" height="86.325"/>
<linearGradient id="SVGID_4_" gradientUnits="userSpaceOnUse" x1="44.5967" y1="59.3975" x2="67.9829" y2="59.3975">
	<stop  offset="0" style="stop-color:#C2CAE7"/>
	<stop  offset="1" style="stop-color:#CAB3D5"/>
</linearGradient>
<rect x="44.597" y="47.705" fill="url(#SVGID_4_)" stroke="#FFFFFF" stroke-linecap="round" stroke-miterlimit="10" width="23.386" height="23.385"/>
<linearGradient id="SVGID_5_" gradientUnits="userSpaceOnUse" x1="131.4531" y1="59.3975" x2="154.8398" y2="59.3975">
	<stop  offset="0" style="stop-color:#C2CAE7"/>
	<stop  offset="1" style="stop-color:#CAB3D5"/>
</linearGradient>
<rect x="131.453" y="47.705" fill="url(#SVGID_5_)" stroke="#FFFFFF" stroke-linecap="round" stroke-miterlimit="10" width="23.387" height="23.385"/>
<linearGradient id="SVGID_6_" gradientUnits="userSpaceOnUse" x1="44.5967" y1="142.9805" x2="67.9829" y2="142.9805">
	<stop  offset="0" style="stop-color:#C2CAE7"/>
	<stop  offset="1" style="stop-color:#CAB3D5"/>
</linearGradient>
<rect x="44.597" y="131.288" fill="url(#SVGID_6_)" stroke="#FFFFFF" stroke-linecap="round" stroke-miterlimit="10" width="23.386" height="23.386"/>
<linearGradient id="SVGID_7_" gradientUnits="userSpaceOnUse" x1="131.4541" y1="142.9805" x2="154.8389" y2="142.9805">
	<stop  offset="0" style="stop-color:#C2CAE7"/>
	<stop  offset="1" style="stop-color:#CAB3D5"/>
</linearGradient>
<rect x="131.454" y="131.288" fill="url(#SVGID_7_)" stroke="#FFFFFF" stroke-linecap="round" stroke-miterlimit="10" width="23.385" height="23.386"/>
</svg>
