<?xml version="1.0" encoding="utf-8"?>
<!-- Generator: Adobe Illustrator 16.0.0, SVG Export Plug-In . SVG Version: 6.00 Build 0)  -->
<!DOCTYPE svg PUBLIC "-//W3C//DTD SVG 1.1//EN" "http://www.w3.org/Graphics/SVG/1.1/DTD/svg11.dtd">
<svg version="1.1" id="圖層_1" xmlns="http://www.w3.org/2000/svg" xmlns:xlink="http://www.w3.org/1999/xlink" x="0px" y="0px"
	 width="85.04px" height="85.04px" viewBox="0 0 85.04 85.04" enable-background="new 0 0 85.04 85.04" xml:space="preserve">
<circle fill="#E5E5E4" cx="42.535" cy="42.535" r="41.535"/>
<g>
	<g>
		<linearGradient id="SVGID_1_" gradientUnits="userSpaceOnUse" x1="32.1523" y1="42.5347" x2="43.9287" y2="42.5347">
			<stop  offset="0" style="stop-color:#81AADA"/>
			<stop  offset="1" style="stop-color:#E0BBCB"/>
		</linearGradient>
		<path fill="url(#SVGID_1_)" d="M39.351,51.118V43.94h-2.6v7.178h-4.599V38.051c0-1.125,0.409-2.101,1.214-2.898
			c0.807-0.797,1.777-1.201,2.885-1.201h3.6c1.112,0,2.08,0.409,2.877,1.216c0.796,0.804,1.201,1.774,1.201,2.883v13.067H39.351z
			 M39.351,41.129v-3.078c0-0.368-0.125-0.672-0.382-0.928c-0.257-0.257-0.561-0.382-0.928-0.382c-0.354,0-0.651,0.125-0.908,0.382
			c-0.256,0.257-0.381,0.561-0.381,0.929v3.078H39.351z"/>
		<path fill="#FFFFFF" d="M39.851,34.452c0.977,0,1.818,0.355,2.521,1.067c0.704,0.71,1.056,1.555,1.056,2.532v12.567h-3.578V43.44
			h-3.6v7.178h-3.599V38.051c0-0.991,0.355-1.839,1.066-2.543c0.712-0.704,1.556-1.056,2.533-1.056H39.851 M36.251,41.629h3.6
			v-3.578c0-0.502-0.176-0.93-0.529-1.282c-0.352-0.352-0.779-0.528-1.282-0.528c-0.489,0-0.909,0.176-1.261,0.528
			c-0.352,0.353-0.528,0.78-0.528,1.282V41.629 M39.851,33.452h-3.6c-1.245,0-2.333,0.453-3.236,1.345
			c-0.904,0.896-1.363,1.991-1.363,3.254v12.567v1h1h3.599h1v-1V44.44h1.6v6.178v1h1h3.578h1v-1V38.051
			c0-1.246-0.453-2.334-1.346-3.236C42.189,33.911,41.102,33.452,39.851,33.452L39.851,33.452z M37.251,40.629v-2.578
			c0-0.238,0.07-0.41,0.235-0.576c0.165-0.165,0.331-0.235,0.554-0.235c0.238,0,0.41,0.07,0.575,0.235
			c0.166,0.166,0.236,0.337,0.236,0.575v2.578H37.251L37.251,40.629z"/>
	</g>
	<g>
		<linearGradient id="SVGID_2_" gradientUnits="userSpaceOnUse" x1="48.3398" y1="42.5347" x2="52.917" y2="42.5347">
			<stop  offset="0" style="stop-color:#81AADA"/>
			<stop  offset="1" style="stop-color:#E0BBCB"/>
		</linearGradient>
		<rect x="48.34" y="33.952" fill="url(#SVGID_2_)" width="4.577" height="17.166"/>
		<path fill="#FFFFFF" d="M52.417,34.452v16.166H48.84V34.452H52.417 M53.417,33.452h-1H48.84h-1v1v16.166v1h1h3.577h1v-1V34.452
			V33.452L53.417,33.452z"/>
	</g>
</g>
<linearGradient id="SVGID_3_" gradientUnits="userSpaceOnUse" x1="22.2578" y1="42.5342" x2="62.8115" y2="42.5342">
	<stop  offset="0" style="stop-color:#81AADA"/>
	<stop  offset="1" style="stop-color:#E0BBCB"/>
</linearGradient>
<rect x="23.258" y="23.375" fill="none" stroke="url(#SVGID_3_)" stroke-width="2" stroke-linecap="round" stroke-miterlimit="10" width="38.554" height="38.318"/>
<linearGradient id="SVGID_4_" gradientUnits="userSpaceOnUse" x1="18.0674" y1="24.5928" x2="28.4473" y2="24.5928">
	<stop  offset="0" style="stop-color:#81AADA"/>
	<stop  offset="1" style="stop-color:#E0BBCB"/>
</linearGradient>
<rect x="18.067" y="19.402" fill="url(#SVGID_4_)" stroke="#FFFFFF" stroke-linecap="round" stroke-miterlimit="10" width="10.38" height="10.38"/>
<linearGradient id="SVGID_5_" gradientUnits="userSpaceOnUse" x1="56.6216" y1="24.5928" x2="67.002" y2="24.5928">
	<stop  offset="0" style="stop-color:#81AADA"/>
	<stop  offset="1" style="stop-color:#E0BBCB"/>
</linearGradient>
<rect x="56.622" y="19.402" fill="url(#SVGID_5_)" stroke="#FFFFFF" stroke-linecap="round" stroke-miterlimit="10" width="10.38" height="10.38"/>
<linearGradient id="SVGID_6_" gradientUnits="userSpaceOnUse" x1="18.0674" y1="61.6934" x2="28.4473" y2="61.6934">
	<stop  offset="0" style="stop-color:#81AADA"/>
	<stop  offset="1" style="stop-color:#E0BBCB"/>
</linearGradient>
<rect x="18.067" y="56.503" fill="url(#SVGID_6_)" stroke="#FFFFFF" stroke-linecap="round" stroke-miterlimit="10" width="10.38" height="10.38"/>
<linearGradient id="SVGID_7_" gradientUnits="userSpaceOnUse" x1="56.6221" y1="61.6934" x2="67.0015" y2="61.6934">
	<stop  offset="0" style="stop-color:#81AADA"/>
	<stop  offset="1" style="stop-color:#E0BBCB"/>
</linearGradient>
<rect x="56.622" y="56.503" fill="url(#SVGID_7_)" stroke="#FFFFFF" stroke-linecap="round" stroke-miterlimit="10" width="10.379" height="10.38"/>
</svg>
