<?xml version="1.0" encoding="utf-8"?>
<!-- Generator: Adobe Illustrator 16.0.0, SVG Export Plug-In . SVG Version: 6.00 Build 0)  -->
<!DOCTYPE svg PUBLIC "-//W3C//DTD SVG 1.1//EN" "http://www.w3.org/Graphics/SVG/1.1/DTD/svg11.dtd">
<svg version="1.1" id="圖層_1" xmlns="http://www.w3.org/2000/svg" xmlns:xlink="http://www.w3.org/1999/xlink" x="0px" y="0px"
	 width="108.727px" height="85.04px" viewBox="0 0 108.727 85.04" enable-background="new 0 0 108.727 85.04" xml:space="preserve">
<rect x="2" y="5.98" fill="#E5E5E4" width="104.727" height="77.633"/>
<g>
	<linearGradient id="SVGID_1_" gradientUnits="userSpaceOnUse" x1="26.2944" y1="47.1152" x2="40.1572" y2="47.1152">
		<stop  offset="0" style="stop-color:#81AADA"/>
		<stop  offset="1" style="stop-color:#E0BBCB"/>
	</linearGradient>
	<path fill="url(#SVGID_1_)" d="M37.804,58.667c-0.643,0-1.243-0.254-1.69-0.717l-9.159-9.453c-0.448-0.461-0.682-1.071-0.659-1.716
		c-0.006-0.633,0.247-1.241,0.713-1.69l9.158-8.863c0.441-0.428,1.022-0.663,1.637-0.663c0.643,0,1.244,0.254,1.69,0.717
		c0.437,0.451,0.672,1.045,0.662,1.674s-0.265,1.216-0.717,1.653l-7.505,7.265l7.56,7.802c0.438,0.452,0.673,1.047,0.663,1.676
		c-0.01,0.628-0.265,1.215-0.716,1.651C38.999,58.431,38.417,58.667,37.804,58.667z"/>
	<path fill="#FFFFFF" d="M37.804,36.064c0.484,0,0.968,0.189,1.331,0.564c0.712,0.735,0.693,1.909-0.043,2.62l-7.865,7.613
		l7.908,8.161c0.712,0.735,0.694,1.908-0.042,2.62c-0.359,0.349-0.824,0.523-1.289,0.523c-0.484,0-0.968-0.189-1.331-0.564
		l-9.16-9.454c-0.365-0.376-0.535-0.867-0.518-1.351c-0.004-0.49,0.18-0.981,0.561-1.347l9.159-8.864
		C36.875,36.238,37.34,36.064,37.804,36.064 M37.804,35.064c-0.745,0-1.45,0.286-1.985,0.805l-9.158,8.863
		c-0.564,0.543-0.872,1.281-0.865,2.075c-0.027,0.739,0.257,1.478,0.8,2.038l9.159,9.453c0.542,0.56,1.27,0.869,2.049,0.869
		c0.745,0,1.45-0.286,1.985-0.806c0.546-0.528,0.855-1.24,0.868-2.001c0.012-0.762-0.273-1.484-0.804-2.032l-7.211-7.443
		l7.146-6.917c0.548-0.529,0.857-1.241,0.87-2.003c0.012-0.763-0.273-1.484-0.804-2.031C39.312,35.373,38.584,35.064,37.804,35.064
		L37.804,35.064z"/>
</g>
<g>
	<linearGradient id="SVGID_2_" gradientUnits="userSpaceOnUse" x1="66.6831" y1="47.1152" x2="80.5464" y2="47.1152">
		<stop  offset="0" style="stop-color:#81AADA"/>
		<stop  offset="1" style="stop-color:#E0BBCB"/>
	</linearGradient>
	<path fill="url(#SVGID_2_)" d="M69.037,58.667c-0.615,0-1.196-0.236-1.638-0.665c-0.451-0.436-0.705-1.022-0.715-1.65
		c-0.01-0.629,0.226-1.224,0.664-1.676l7.558-7.802L67.4,39.608c-0.452-0.437-0.707-1.024-0.716-1.653
		c-0.01-0.628,0.225-1.223,0.663-1.674c0.446-0.462,1.047-0.716,1.69-0.716c0.614,0,1.196,0.235,1.638,0.664l9.157,8.863
		c0.465,0.448,0.719,1.056,0.713,1.71c0.022,0.624-0.211,1.233-0.659,1.695l-9.16,9.454C70.279,58.412,69.679,58.667,69.037,58.667z
		"/>
	<path fill="#FFFFFF" d="M69.037,36.064c0.464,0,0.929,0.173,1.29,0.522l9.158,8.864c0.38,0.366,0.565,0.857,0.561,1.347
		c0.017,0.484-0.153,0.975-0.518,1.351l-9.16,9.454c-0.363,0.375-0.846,0.564-1.331,0.564c-0.465,0-0.93-0.175-1.289-0.523
		c-0.736-0.711-0.754-1.885-0.041-2.62l7.906-8.161l-7.865-7.613c-0.735-0.711-0.755-1.885-0.042-2.62
		C68.068,36.253,68.552,36.064,69.037,36.064 M69.037,35.064L69.037,35.064c-0.78,0-1.508,0.309-2.05,0.869
		c-0.53,0.546-0.815,1.268-0.803,2.03s0.321,1.474,0.869,2.004l7.146,6.917l-7.21,7.442c-0.531,0.547-0.816,1.269-0.804,2.031
		c0.012,0.762,0.32,1.474,0.868,2.003c0.534,0.519,1.239,0.805,1.984,0.805c0.779,0,1.507-0.309,2.049-0.869l9.159-9.453
		c0.543-0.56,0.827-1.299,0.799-2.082c0.007-0.75-0.301-1.487-0.867-2.032l-9.156-8.863C70.487,35.35,69.782,35.064,69.037,35.064
		L69.037,35.064z"/>
</g>
<g>
	<g>
		<linearGradient id="SVGID_3_" gradientUnits="userSpaceOnUse" x1="44.0645" y1="47.1152" x2="62.7764" y2="47.1152">
			<stop  offset="0" style="stop-color:#81AADA"/>
			<stop  offset="1" style="stop-color:#E0BBCB"/>
		</linearGradient>
		<path fill="url(#SVGID_3_)" d="M46.906,64.666c-0.397,0-0.784-0.082-1.149-0.244c-1.433-0.634-2.083-2.317-1.449-3.751
			l13.026-29.415c0.455-1.028,1.475-1.692,2.601-1.692c0.397,0,0.784,0.082,1.15,0.244c1.433,0.635,2.083,2.317,1.448,3.75
			L49.506,62.974c-0.308,0.694-0.867,1.228-1.576,1.5C47.603,64.602,47.257,64.666,46.906,64.666z"/>
		<path fill="#FFFFFF" d="M59.935,30.064c0.317,0,0.639,0.064,0.947,0.201c1.183,0.524,1.718,1.908,1.194,3.091L49.049,62.771
			c-0.262,0.591-0.739,1.021-1.298,1.236c-0.268,0.104-0.554,0.158-0.845,0.158c-0.317,0-0.639-0.065-0.947-0.201
			c-1.185-0.524-1.718-1.908-1.194-3.092l13.026-29.415C58.178,30.584,59.036,30.064,59.935,30.064 M59.935,29.064L59.935,29.064
			c-1.323,0-2.523,0.781-3.058,1.99L43.85,60.468c-0.746,1.686,0.019,3.665,1.704,4.411c0.429,0.19,0.884,0.287,1.352,0.287
			c0.414,0,0.819-0.076,1.206-0.226c0.832-0.32,1.49-0.947,1.852-1.764L62.99,33.761c0.746-1.685-0.018-3.663-1.703-4.41
			C60.857,29.161,60.402,29.064,59.935,29.064L59.935,29.064z"/>
	</g>
</g>
<rect x="2" y="5.98" fill="#F4F4F4" width="104.727" height="9.914"/>
<linearGradient id="SVGID_4_" gradientUnits="userSpaceOnUse" x1="4.1494" y1="10.9365" x2="8.2017" y2="10.9365">
	<stop  offset="0" style="stop-color:#81AADA"/>
	<stop  offset="1" style="stop-color:#E0BBCB"/>
</linearGradient>
<circle fill="url(#SVGID_4_)" stroke="#FFFFFF" stroke-linecap="round" stroke-linejoin="round" stroke-miterlimit="10" cx="6.176" cy="10.937" r="2.026"/>
<linearGradient id="SVGID_5_" gradientUnits="userSpaceOnUse" x1="10.3848" y1="10.9365" x2="14.4385" y2="10.9365">
	<stop  offset="0" style="stop-color:#81AADA"/>
	<stop  offset="1" style="stop-color:#E0BBCB"/>
</linearGradient>
<circle fill="url(#SVGID_5_)" stroke="#FFFFFF" stroke-linecap="round" stroke-linejoin="round" stroke-miterlimit="10" cx="12.412" cy="10.937" r="2.027"/>
<linearGradient id="SVGID_6_" gradientUnits="userSpaceOnUse" x1="17.7661" y1="10.9365" x2="21.8184" y2="10.9365">
	<stop  offset="0" style="stop-color:#81AADA"/>
	<stop  offset="1" style="stop-color:#E0BBCB"/>
</linearGradient>
<circle fill="url(#SVGID_6_)" stroke="#FFFFFF" stroke-linecap="round" stroke-linejoin="round" stroke-miterlimit="10" cx="19.792" cy="10.937" r="2.026"/>
</svg>
