<?xml version="1.0" encoding="utf-8"?>
<!-- Generator: Adobe Illustrator 16.0.0, SVG Export Plug-In . SVG Version: 6.00 Build 0)  -->
<!DOCTYPE svg PUBLIC "-//W3C//DTD SVG 1.1//EN" "http://www.w3.org/Graphics/SVG/1.1/DTD/svg11.dtd">
<svg version="1.1" id="圖層_1" xmlns="http://www.w3.org/2000/svg" xmlns:xlink="http://www.w3.org/1999/xlink" x="0px" y="0px"
	 width="236px" height="200px" viewBox="0 0 236 200" enable-background="new 0 0 236 200" xml:space="preserve">
<rect x="4.512" y="15.75" fill="#EDEDED" width="226.969" height="168.25"/>
<g>
	<linearGradient id="SVGID_1_" gradientUnits="userSpaceOnUse" x1="54.501" y1="100.5659" x2="84.9463" y2="100.5659">
		<stop  offset="0" style="stop-color:#C2CAE7"/>
		<stop  offset="1" style="stop-color:#CAB3D5"/>
	</linearGradient>
	<path fill="url(#SVGID_1_)" d="M80.206,126.363c-1.299,0-2.51-0.514-3.408-1.446l-20.965-21.638
		c-0.901-0.928-1.373-2.155-1.329-3.457c-0.011-1.299,0.5-2.524,1.437-3.427l20.964-20.29c0.89-0.861,2.061-1.336,3.299-1.336
		c1.296,0,2.506,0.513,3.408,1.444c0.88,0.911,1.354,2.109,1.333,3.376s-0.534,2.449-1.444,3.329L65.856,99.998l17.752,18.323
		c0.882,0.909,1.357,2.107,1.337,3.373c-0.02,1.267-0.532,2.45-1.442,3.332C82.613,125.889,81.442,126.363,80.206,126.363z"/>
	<path fill="#FFFFFF" d="M80.204,75.269c1.109,0,2.216,0.433,3.049,1.292c1.627,1.683,1.583,4.371-0.1,5.998L65.149,99.987
		l18.101,18.682c1.631,1.682,1.59,4.367-0.094,5.998c-0.824,0.798-1.889,1.196-2.951,1.196c-1.109,0-2.217-0.431-3.048-1.293
		l-20.966-21.639c-0.835-0.86-1.226-1.984-1.188-3.092c-0.009-1.123,0.414-2.246,1.285-3.084l20.965-20.291
		C78.077,75.666,79.141,75.269,80.204,75.269 M80.204,74.269c-1.368,0-2.664,0.525-3.647,1.478l-20.964,20.29
		c-1.036,0.998-1.601,2.352-1.589,3.811c-0.048,1.397,0.474,2.754,1.471,3.781l20.965,21.639c0.991,1.028,2.33,1.597,3.766,1.597
		c1.367,0,2.662-0.524,3.646-1.478c1.006-0.975,1.572-2.283,1.595-3.684c0.021-1.399-0.503-2.725-1.479-3.729l-17.404-17.963
		l17.285-16.733c1.006-0.971,1.573-2.278,1.597-3.679c0.022-1.401-0.5-2.726-1.473-3.732C82.975,74.835,81.636,74.269,80.204,74.269
		L80.204,74.269z"/>
</g>
<g>
	<linearGradient id="SVGID_2_" gradientUnits="userSpaceOnUse" x1="146.958" y1="100.5659" x2="177.4023" y2="100.5659">
		<stop  offset="0" style="stop-color:#C2CAE7"/>
		<stop  offset="1" style="stop-color:#CAB3D5"/>
	</linearGradient>
	<path fill="url(#SVGID_2_)" d="M151.7,126.363c-1.239,0-2.411-0.475-3.299-1.338c-0.91-0.881-1.423-2.063-1.442-3.33
		s0.455-2.465,1.339-3.375l17.75-18.322l-17.646-17.081c-0.91-0.88-1.423-2.063-1.443-3.33c-0.021-1.267,0.452-2.466,1.333-3.375
		c0.902-0.931,2.112-1.444,3.409-1.444c1.238,0,2.41,0.475,3.3,1.336l20.963,20.291c0.938,0.903,1.448,2.128,1.436,3.449
		c0.045,1.281-0.427,2.509-1.327,3.436l-20.968,21.638C154.208,125.85,152.998,126.363,151.7,126.363z"/>
	<path fill="#FFFFFF" d="M151.701,75.269c1.063,0,2.128,0.397,2.952,1.196l20.963,20.291c0.871,0.839,1.294,1.962,1.283,3.084
		c0.038,1.108-0.35,2.232-1.186,3.092l-20.969,21.639c-0.83,0.862-1.935,1.293-3.045,1.293c-1.063,0-2.129-0.398-2.95-1.196
		c-1.686-1.631-1.727-4.316-0.094-5.998l18.099-18.682L148.75,82.558c-1.683-1.626-1.729-4.315-0.099-5.998
		C149.484,75.701,150.592,75.269,151.701,75.269 M151.701,74.269L151.701,74.269c-1.433,0-2.771,0.567-3.768,1.596
		c-0.975,1.005-1.498,2.331-1.475,3.731c0.022,1.401,0.59,2.708,1.596,3.681l17.286,16.732l-17.402,17.963
		c-0.976,1.005-1.501,2.33-1.479,3.73s0.589,2.708,1.596,3.683c0.98,0.952,2.275,1.478,3.646,1.478c1.436,0,2.772-0.568,3.766-1.6
		l20.966-21.636c0.995-1.024,1.517-2.383,1.467-3.823c0.015-1.416-0.55-2.77-1.589-3.771l-20.961-20.289
		C154.365,74.793,153.07,74.269,151.701,74.269L151.701,74.269z"/>
</g>
<g>
	<g>
		<linearGradient id="SVGID_3_" gradientUnits="userSpaceOnUse" x1="95.1758" y1="100.5654" x2="136.7256" y2="100.5654">
			<stop  offset="0" style="stop-color:#C2CAE7"/>
			<stop  offset="1" style="stop-color:#CAB3D5"/>
		</linearGradient>
		<path fill="url(#SVGID_3_)" d="M101.041,140.098c-0.819,0-1.617-0.17-2.372-0.505c-1.432-0.634-2.531-1.787-3.096-3.249
			c-0.564-1.46-0.526-3.053,0.108-4.484L125.5,64.522c0.94-2.12,3.047-3.49,5.366-3.49c0.819,0,1.616,0.169,2.371,0.502
			c2.957,1.312,4.296,4.783,2.985,7.737l-29.82,67.335c-0.633,1.434-1.786,2.532-3.248,3.096
			C102.477,139.965,101.766,140.098,101.041,140.098z"/>
		<path fill="#FFFFFF" d="M130.866,61.533c0.726,0,1.463,0.147,2.169,0.46c2.706,1.201,3.932,4.369,2.73,7.077l-29.82,67.335
			c-0.598,1.353-1.69,2.338-2.971,2.831c-0.612,0.236-1.268,0.361-1.934,0.361c-0.726,0-1.463-0.148-2.169-0.462
			c-2.71-1.199-3.933-4.367-2.733-7.074l29.818-67.336C126.845,62.724,128.808,61.533,130.866,61.533 M130.867,60.533
			L130.867,60.533c-2.519,0-4.805,1.487-5.824,3.787l-29.818,67.336c-0.688,1.554-0.73,3.283-0.118,4.868
			c0.612,1.586,1.807,2.838,3.361,3.525c0.817,0.363,1.684,0.548,2.573,0.548c0.786,0,1.558-0.145,2.294-0.429
			c1.585-0.61,2.838-1.804,3.525-3.359l29.819-67.335c1.422-3.206-0.031-6.973-3.239-8.396
			C132.621,60.716,131.755,60.533,130.867,60.533L130.867,60.533z"/>
	</g>
</g>
<rect x="4.512" y="16.529" fill="#F2F2F2" width="226.969" height="15.9"/>
<linearGradient id="SVGID_4_" gradientUnits="userSpaceOnUse" x1="9.1694" y1="23.373" x2="16.4116" y2="23.373">
	<stop  offset="0" style="stop-color:#81AADA"/>
	<stop  offset="1" style="stop-color:#E0BBCB"/>
</linearGradient>
<circle fill="url(#SVGID_4_)" stroke="#FFFFFF" stroke-linecap="round" stroke-linejoin="round" stroke-miterlimit="10" cx="12.791" cy="23.372" r="3.621"/>
<linearGradient id="SVGID_5_" gradientUnits="userSpaceOnUse" x1="22.1021" y1="23.373" x2="29.3442" y2="23.373">
	<stop  offset="0" style="stop-color:#81AADA"/>
	<stop  offset="1" style="stop-color:#E0BBCB"/>
</linearGradient>
<circle fill="url(#SVGID_5_)" stroke="#FFFFFF" stroke-linecap="round" stroke-linejoin="round" stroke-miterlimit="10" cx="25.723" cy="23.372" r="3.621"/>
<linearGradient id="SVGID_6_" gradientUnits="userSpaceOnUse" x1="35.293" y1="23.373" x2="42.5347" y2="23.373">
	<stop  offset="0" style="stop-color:#81AADA"/>
	<stop  offset="1" style="stop-color:#E0BBCB"/>
</linearGradient>
<circle fill="url(#SVGID_6_)" stroke="#FFFFFF" stroke-linecap="round" stroke-linejoin="round" stroke-miterlimit="10" cx="38.914" cy="23.372" r="3.621"/>
</svg>
