<?xml version="1.0" encoding="utf-8"?>
<!-- Generator: Adobe Illustrator 16.0.0, SVG Export Plug-In . SVG Version: 6.00 Build 0)  -->
<!DOCTYPE svg PUBLIC "-//W3C//DTD SVG 1.1//EN" "http://www.w3.org/Graphics/SVG/1.1/DTD/svg11.dtd">
<svg version="1.1" id="圖層_1" xmlns="http://www.w3.org/2000/svg" xmlns:xlink="http://www.w3.org/1999/xlink" x="0px" y="0px"
	 width="85.04px" height="85.04px" viewBox="0 0 85.04 85.04" enable-background="new 0 0 85.04 85.04" xml:space="preserve">
<polygon fill="#E5E5E4" points="8.139,1.886 8.139,83.92 78.061,83.92 78.061,18.909 61.037,1.886 "/>
<polygon fill="#F4F4F4" points="78.061,18.909 61.037,1.887 61.037,18.909 "/>
<g>
	<g>
		<linearGradient id="SVGID_1_" gradientUnits="userSpaceOnUse" x1="18.9146" y1="42.9028" x2="32.4424" y2="42.9028">
			<stop  offset="0" style="stop-color:#81AADA"/>
			<stop  offset="1" style="stop-color:#E0BBCB"/>
		</linearGradient>
		<path fill="url(#SVGID_1_)" d="M30.138,54.167c-0.63,0-1.218-0.249-1.656-0.7l-8.92-9.208c-0.438-0.452-0.668-1.049-0.646-1.682
			c-0.006-0.619,0.243-1.213,0.698-1.654l8.92-8.634c0.432-0.418,1.001-0.649,1.603-0.649c0.63,0,1.219,0.25,1.657,0.702
			c0.428,0.443,0.658,1.026,0.647,1.642c-0.01,0.616-0.26,1.19-0.703,1.618l-7.3,7.066l7.354,7.59
			c0.884,0.914,0.861,2.375-0.052,3.259C31.31,53.936,30.741,54.167,30.138,54.167z"/>
		<path fill="#FFFFFF" d="M30.138,32.139c0.472,0,0.943,0.184,1.297,0.55c0.692,0.717,0.674,1.86-0.043,2.552l-7.66,7.415
			l7.703,7.949c0.693,0.716,0.675,1.858-0.041,2.552c-0.351,0.341-0.804,0.509-1.256,0.509c-0.472,0-0.943-0.183-1.297-0.548
			l-8.92-9.208c-0.355-0.366-0.521-0.844-0.505-1.316c-0.004-0.477,0.177-0.955,0.546-1.312l8.92-8.634
			C29.233,32.308,29.686,32.139,30.138,32.139 M30.138,31.139c-0.732,0-1.425,0.281-1.951,0.79l-8.92,8.634
			c-0.555,0.537-0.857,1.261-0.851,2.039c-0.026,0.728,0.254,1.455,0.788,2.004l8.92,9.208c0.533,0.55,1.249,0.853,2.015,0.853
			c0.733,0,1.426-0.281,1.953-0.792c1.109-1.075,1.138-2.854,0.063-3.964l-7.007-7.231l6.941-6.719
			c1.111-1.073,1.142-2.852,0.067-3.965C31.621,31.443,30.905,31.139,30.138,31.139L30.138,31.139z"/>
	</g>
	<g>
		<linearGradient id="SVGID_2_" gradientUnits="userSpaceOnUse" x1="54.5791" y1="42.9028" x2="68.1084" y2="42.9028">
			<stop  offset="0" style="stop-color:#81AADA"/>
			<stop  offset="1" style="stop-color:#E0BBCB"/>
		</linearGradient>
		<path fill="url(#SVGID_2_)" d="M56.884,54.167c-0.603,0-1.173-0.231-1.604-0.651c-0.442-0.428-0.69-1.003-0.7-1.619
			c-0.009-0.616,0.222-1.198,0.65-1.64l7.352-7.59l-7.301-7.067c-0.913-0.883-0.937-2.345-0.053-3.259
			c0.438-0.453,1.026-0.702,1.657-0.702c0.602,0,1.171,0.23,1.603,0.649l8.92,8.634c0.455,0.439,0.703,1.034,0.699,1.674
			c0.021,0.613-0.208,1.211-0.647,1.662l-8.92,9.208C58.103,53.917,57.515,54.167,56.884,54.167z"/>
		<path fill="#FFFFFF" d="M56.885,32.139c0.452,0,0.905,0.169,1.255,0.508l8.92,8.634c0.37,0.357,0.55,0.835,0.547,1.312
			c0.016,0.472-0.15,0.951-0.505,1.316l-8.921,9.208c-0.354,0.365-0.825,0.548-1.296,0.548c-0.453,0-0.905-0.168-1.256-0.509
			c-0.716-0.693-0.734-1.836-0.04-2.552l7.7-7.949l-7.66-7.415c-0.716-0.692-0.734-1.835-0.041-2.552
			C55.941,32.323,56.413,32.139,56.885,32.139 M56.885,31.139L56.885,31.139c-0.767,0-1.483,0.304-2.016,0.854
			c-1.076,1.113-1.046,2.892,0.064,3.966l6.941,6.719l-7.004,7.23c-0.521,0.537-0.802,1.246-0.791,1.995
			c0.012,0.749,0.314,1.449,0.853,1.971c0.524,0.51,1.218,0.791,1.952,0.791c0.767,0,1.482-0.303,2.015-0.853l8.92-9.208
			c0.533-0.548,0.813-1.275,0.787-2.046c0.005-0.738-0.297-1.462-0.852-1.997l-8.919-8.634C58.31,31.42,57.617,31.139,56.885,31.139
			L56.885,31.139z"/>
	</g>
	<g>
		<linearGradient id="SVGID_3_" gradientUnits="userSpaceOnUse" x1="31.5239" y1="42.9033" x2="38.1519" y2="42.9033">
			<stop  offset="0" style="stop-color:#81AADA"/>
			<stop  offset="1" style="stop-color:#E0BBCB"/>
		</linearGradient>
		<path fill="url(#SVGID_3_)" d="M34.838,46.218c-1.828,0-3.314-1.487-3.314-3.315c0-1.827,1.487-3.314,3.314-3.314
			c1.827,0,3.313,1.487,3.313,3.314C38.152,44.73,36.666,46.218,34.838,46.218z"/>
		<path fill="#FFFFFF" d="M34.838,40.089c1.555,0,2.813,1.259,2.813,2.814c0,1.555-1.258,2.815-2.813,2.815
			c-1.554,0-2.814-1.26-2.814-2.815C32.024,41.348,33.284,40.089,34.838,40.089 M34.838,39.089c-2.104,0-3.814,1.711-3.814,3.814
			c0,2.104,1.711,3.815,3.814,3.815c2.103,0,3.813-1.711,3.813-3.815C38.652,40.8,36.941,39.089,34.838,39.089L34.838,39.089z"/>
	</g>
	<g>
		<linearGradient id="SVGID_4_" gradientUnits="userSpaceOnUse" x1="40.6079" y1="42.9033" x2="47.2373" y2="42.9033">
			<stop  offset="0" style="stop-color:#81AADA"/>
			<stop  offset="1" style="stop-color:#E0BBCB"/>
		</linearGradient>
		<path fill="url(#SVGID_4_)" d="M43.923,46.218c-1.828,0-3.315-1.487-3.315-3.315c0-1.827,1.487-3.314,3.315-3.314
			s3.314,1.487,3.314,3.314C47.237,44.73,45.75,46.218,43.923,46.218z"/>
		<path fill="#FFFFFF" d="M43.923,40.089c1.555,0,2.814,1.259,2.814,2.814c0,1.555-1.259,2.815-2.814,2.815s-2.815-1.26-2.815-2.815
			C41.108,41.348,42.368,40.089,43.923,40.089 M43.923,39.089c-2.104,0-3.815,1.711-3.815,3.814c0,2.104,1.711,3.815,3.815,3.815
			s3.814-1.711,3.814-3.815C47.737,40.8,46.026,39.089,43.923,39.089L43.923,39.089z"/>
	</g>
	<g>
		<linearGradient id="SVGID_5_" gradientUnits="userSpaceOnUse" x1="49.8496" y1="42.9033" x2="56.4775" y2="42.9033">
			<stop  offset="0" style="stop-color:#81AADA"/>
			<stop  offset="1" style="stop-color:#E0BBCB"/>
		</linearGradient>
		<path fill="url(#SVGID_5_)" d="M53.164,46.218c-1.827,0-3.314-1.487-3.314-3.315c0-1.827,1.487-3.314,3.314-3.314
			s3.314,1.487,3.314,3.314C56.478,44.73,54.991,46.218,53.164,46.218z"/>
		<path fill="#FFFFFF" d="M53.164,40.089c1.555,0,2.814,1.259,2.814,2.814c0,1.555-1.259,2.815-2.814,2.815
			c-1.555,0-2.814-1.26-2.814-2.815C50.35,41.348,51.608,40.089,53.164,40.089 M53.164,39.089c-2.103,0-3.814,1.711-3.814,3.814
			c0,2.104,1.711,3.815,3.814,3.815s3.814-1.711,3.814-3.815C56.978,40.8,55.267,39.089,53.164,39.089L53.164,39.089z"/>
	</g>
</g>
</svg>
