<?xml version="1.0" encoding="utf-8"?>
<!-- Generator: Adobe Illustrator 16.0.0, SVG Export Plug-In . SVG Version: 6.00 Build 0)  -->
<!DOCTYPE svg PUBLIC "-//W3C//DTD SVG 1.1//EN" "http://www.w3.org/Graphics/SVG/1.1/DTD/svg11.dtd">
<svg version="1.1" id="圖層_1" xmlns="http://www.w3.org/2000/svg" xmlns:xlink="http://www.w3.org/1999/xlink" x="0px" y="0px"
	 width="200px" height="200px" viewBox="0 0 200 200" enable-background="new 0 0 200 200" xml:space="preserve">
<polygon fill="#EDEDED" points="15.708,2.666 15.708,199 183.054,199 183.054,43.408 142.311,2.666 "/>
<polygon fill="#F4F4F4" points="183.054,43.408 142.311,2.668 142.311,43.408 "/>
<g>
	<g>
		<linearGradient id="SVGID_1_" gradientUnits="userSpaceOnUse" x1="37.3535" y1="100.8335" x2="70.8545" y2="100.8335">
			<stop  offset="0" style="stop-color:#C2CAE7"/>
			<stop  offset="1" style="stop-color:#CAB3D5"/>
		</linearGradient>
		<path fill="url(#SVGID_1_)" d="M65.673,129.258c-1.417,0-2.74-0.561-3.724-1.577l-23.143-23.887
			c-0.984-1.016-1.499-2.358-1.45-3.781c-0.013-1.416,0.544-2.753,1.569-3.744L62.067,73.87c0.972-0.941,2.252-1.46,3.605-1.46
			c1.417,0,2.739,0.561,3.725,1.579c0.963,0.996,1.48,2.308,1.456,3.693c-0.024,1.384-0.586,2.675-1.582,3.636l-19.511,18.888
			l19.632,20.262c1.988,2.052,1.937,5.34-0.115,7.329C68.308,128.738,67.027,129.258,65.673,129.258z"/>
		<path fill="#FFFFFF" d="M65.673,72.909c1.224,0,2.447,0.478,3.365,1.426c1.797,1.858,1.749,4.825-0.113,6.621l-19.871,19.236
			l19.98,20.621c1.8,1.858,1.752,4.822-0.104,6.622c-0.909,0.884-2.083,1.322-3.257,1.322c-1.226,0-2.447-0.477-3.365-1.425
			l-23.143-23.887c-0.919-0.948-1.352-2.191-1.309-3.416c-0.011-1.237,0.458-2.475,1.417-3.402l23.142-22.399
			C63.325,73.348,64.5,72.909,65.673,72.909 M65.673,71.909c-1.483,0-2.888,0.569-3.954,1.602L38.578,95.909
			c-1.124,1.087-1.735,2.554-1.722,4.13c-0.054,1.517,0.511,2.989,1.591,4.104l23.143,23.887c1.079,1.114,2.529,1.729,4.083,1.729
			c1.485,0,2.889-0.57,3.954-1.605c2.249-2.18,2.306-5.784,0.126-8.034l-19.284-19.903l19.151-18.54
			c1.091-1.052,1.707-2.468,1.733-3.985c0.026-1.519-0.541-2.957-1.597-4.049C68.676,72.524,67.226,71.909,65.673,71.909
			L65.673,71.909z"/>
	</g>
	<g>
		<linearGradient id="SVGID_2_" gradientUnits="userSpaceOnUse" x1="129.877" y1="100.8335" x2="163.3799" y2="100.8335">
			<stop  offset="0" style="stop-color:#C2CAE7"/>
			<stop  offset="1" style="stop-color:#CAB3D5"/>
		</linearGradient>
		<path fill="url(#SVGID_2_)" d="M135.06,129.258c-1.354,0-2.635-0.52-3.605-1.464c-0.993-0.963-1.553-2.256-1.575-3.64
			s0.496-2.694,1.46-3.688l19.628-20.262l-19.512-18.888c-0.994-0.962-1.554-2.254-1.577-3.639
			c-0.022-1.385,0.495-2.695,1.458-3.689c0.983-1.018,2.307-1.579,3.724-1.579c1.353,0,2.634,0.519,3.606,1.46l23.14,22.399
			c1.022,0.987,1.58,2.325,1.571,3.765c0.047,1.408-0.47,2.751-1.453,3.762l-23.142,23.886
			C137.8,128.697,136.478,129.258,135.06,129.258z"/>
		<path fill="#FFFFFF" d="M135.06,72.909c1.174,0,2.349,0.438,3.259,1.32l23.14,22.399c0.96,0.927,1.427,2.165,1.419,3.402
			c0.04,1.225-0.389,2.468-1.312,3.416l-23.143,23.887c-0.916,0.948-2.141,1.425-3.363,1.425c-1.176,0-2.348-0.438-3.257-1.322
			c-1.856-1.8-1.906-4.764-0.104-6.622l19.976-20.621l-19.871-19.236c-1.856-1.796-1.906-4.763-0.107-6.621
			C132.612,73.387,133.835,72.91,135.06,72.909 M135.06,71.909L135.06,71.909c-1.555,0-3.004,0.615-4.083,1.731
			c-1.056,1.09-1.623,2.527-1.598,4.045c0.024,1.518,0.639,2.935,1.729,3.99l19.152,18.54l-19.279,19.903
			c-1.058,1.09-1.626,2.526-1.602,4.044s0.638,2.935,1.728,3.991c1.064,1.034,2.469,1.604,3.953,1.604
			c1.555,0,3.005-0.614,4.082-1.73l23.142-23.885c1.078-1.107,1.645-2.58,1.593-4.145c0.011-1.54-0.602-3.005-1.724-4.089
			L139.014,73.51C137.947,72.478,136.543,71.909,135.06,71.909L135.06,71.909z"/>
	</g>
	<g>
		<linearGradient id="SVGID_3_" gradientUnits="userSpaceOnUse" x1="70.0645" y1="100.8325" x2="85.666" y2="100.8325">
			<stop  offset="0" style="stop-color:#C2CAE7"/>
			<stop  offset="1" style="stop-color:#CAB3D5"/>
		</linearGradient>
		<path fill="url(#SVGID_3_)" d="M77.865,108.635c-4.301,0-7.801-3.5-7.801-7.802c0-4.302,3.5-7.803,7.801-7.803
			s7.801,3.5,7.801,7.803C85.666,105.135,82.167,108.635,77.865,108.635z"/>
		<path fill="#FFFFFF" d="M77.865,93.53c4.036,0,7.301,3.269,7.301,7.303c0,4.033-3.265,7.302-7.301,7.302
			c-4.032,0-7.301-3.269-7.301-7.302C70.564,96.799,73.833,93.53,77.865,93.53 M77.865,92.53c-4.577,0-8.301,3.725-8.301,8.303
			c0,4.577,3.724,8.302,8.301,8.302s8.301-3.725,8.301-8.302C86.166,96.255,82.442,92.53,77.865,92.53L77.865,92.53z"/>
	</g>
	<g>
		<linearGradient id="SVGID_4_" gradientUnits="userSpaceOnUse" x1="93.6318" y1="100.8325" x2="109.2354" y2="100.8325">
			<stop  offset="0" style="stop-color:#C2CAE7"/>
			<stop  offset="1" style="stop-color:#CAB3D5"/>
		</linearGradient>
		<path fill="url(#SVGID_4_)" d="M101.435,108.635c-4.302,0-7.803-3.5-7.803-7.802c0-4.302,3.5-7.803,7.803-7.803
			c4.302,0,7.801,3.5,7.801,7.803C109.235,105.135,105.736,108.635,101.435,108.635z"/>
		<path fill="#FFFFFF" d="M101.435,93.53c4.032,0,7.301,3.269,7.301,7.303c0,4.033-3.269,7.302-7.301,7.302
			c-4.036,0-7.303-3.269-7.303-7.302C94.132,96.799,97.399,93.53,101.435,93.53 M101.435,92.53c-4.578,0-8.303,3.725-8.303,8.303
			c0,4.577,3.725,8.302,8.303,8.302c4.577,0,8.301-3.725,8.301-8.302C109.735,96.255,106.012,92.53,101.435,92.53L101.435,92.53z"/>
	</g>
	<g>
		<linearGradient id="SVGID_5_" gradientUnits="userSpaceOnUse" x1="117.6064" y1="100.8325" x2="133.207" y2="100.8325">
			<stop  offset="0" style="stop-color:#C2CAE7"/>
			<stop  offset="1" style="stop-color:#CAB3D5"/>
		</linearGradient>
		<path fill="url(#SVGID_5_)" d="M125.407,108.635c-4.302,0-7.801-3.5-7.801-7.802c0-4.302,3.499-7.803,7.801-7.803
			c4.301,0,7.8,3.5,7.8,7.803C133.207,105.135,129.708,108.635,125.407,108.635z"/>
		<path fill="#FFFFFF" d="M125.407,93.53c4.032,0,7.3,3.269,7.3,7.303c0,4.033-3.268,7.302-7.3,7.302
			c-4.035,0-7.301-3.269-7.301-7.302C118.106,96.799,121.372,93.53,125.407,93.53 M125.407,92.53c-4.577,0-8.301,3.725-8.301,8.303
			c0,4.577,3.724,8.302,8.301,8.302c4.576,0,8.3-3.725,8.3-8.302C133.707,96.255,129.983,92.53,125.407,92.53L125.407,92.53z"/>
	</g>
</g>
</svg>
