<?xml version="1.0" encoding="utf-8"?>
<!-- Generator: Adobe Illustrator 16.0.0, SVG Export Plug-In . SVG Version: 6.00 Build 0)  -->
<!DOCTYPE svg PUBLIC "-//W3C//DTD SVG 1.1//EN" "http://www.w3.org/Graphics/SVG/1.1/DTD/svg11.dtd">
<svg version="1.1" id="圖層_1" xmlns="http://www.w3.org/2000/svg" xmlns:xlink="http://www.w3.org/1999/xlink" x="0px" y="0px"
	 width="200px" height="200px" viewBox="0 0 200 200" enable-background="new 0 0 200 200" xml:space="preserve">
<circle fill="#EDEDED" cx="100.637" cy="100.636" r="98.637"/>
<g>
	<linearGradient id="SVGID_1_" gradientUnits="userSpaceOnUse" x1="59.7334" y1="81.833" x2="147.1729" y2="81.833">
		<stop  offset="0" style="stop-color:#C2CAE7"/>
		<stop  offset="1" style="stop-color:#CAB3D5"/>
	</linearGradient>
	<path fill-rule="evenodd" clip-rule="evenodd" fill="url(#SVGID_1_)" d="M110.429,119.311c-0.921,0-1.849-0.032-2.759-0.096
		c-21.663-1.523-39.7-15.216-45.954-34.884c-4.527-14.247-1.038-31.735,7.778-38.983l1.207-0.992l-0.406,1.508
		c-6.237,23.152,1.604,41.625,23.306,54.908c7.601,4.652,15.521,7.011,23.538,7.011c0.001,0,0.003,0,0.003,0
		c9.684,0,19.248-3.402,28.432-10.114l1.6-1.169l-0.854,1.788C140.412,110.666,125.653,119.311,110.429,119.311z"/>
	<path fill="#FFFFFF" d="M69.812,45.734c-6.645,24.666,2.723,42.73,23.528,55.464c7.762,4.75,15.785,7.085,23.799,7.085
		c9.748,0,19.482-3.452,28.729-10.21c-5.922,12.408-20.633,20.738-35.439,20.738c-0.908,0-1.816-0.031-2.724-0.095
		c-21.436-1.507-39.328-15.085-45.512-34.537C57.7,70.041,61.073,52.919,69.812,45.734 M145.868,98.073h0.005 M71.59,42.978
		l-2.414,1.984c-9.112,7.492-12.599,24.851-7.937,39.521c6.316,19.866,24.527,33.694,46.395,35.231
		c0.922,0.065,1.861,0.098,2.794,0.098c15.41,0,30.354-8.762,36.342-21.307l1.707-3.576l-3.199,2.338
		c-9.096,6.646-18.563,10.018-28.14,10.018c-7.923,0-15.754-2.334-23.277-6.938c-21.49-13.153-29.256-31.439-23.084-54.351
		L71.59,42.978L71.59,42.978z"/>
</g>
<linearGradient id="SVGID_2_" gradientUnits="userSpaceOnUse" x1="87.2368" y1="64.4365" x2="148.3125" y2="64.4365">
	<stop  offset="0" style="stop-color:#C2CAE7"/>
	<stop  offset="1" style="stop-color:#CAB3D5"/>
</linearGradient>
<path fill-rule="evenodd" clip-rule="evenodd" fill="url(#SVGID_2_)" stroke="#FFFFFF" stroke-linecap="round" stroke-miterlimit="10" d="
	M92.072,39.119c-3.347,17.213,3.379,29.322,16.964,37.625c13.086,7.997,26.487,8.73,39.276-1.53
	c-8.711,14.767-30.485,19.117-45.794,9.179C85.23,73.167,83.923,51.422,92.072,39.119z"/>
<linearGradient id="SVGID_3_" gradientUnits="userSpaceOnUse" x1="60.6304" y1="145.4434" x2="85.2549" y2="145.4434">
	<stop  offset="0" style="stop-color:#81AADA"/>
	<stop  offset="1" style="stop-color:#E0BBCB"/>
</linearGradient>
<path fill-rule="evenodd" clip-rule="evenodd" fill="url(#SVGID_3_)" d="M74.733,158.286c-2.172,0-4.355,0.136-6.512-0.028
	c-4.638-0.35-7.416-3.278-7.578-7.939c-0.151-4.37,1.007-8.445,3.356-12.104c3.288-5.122,10.543-7.136,16.096-4.614
	c3.733,1.696,5.818,5.774,4.971,10.136c-0.394,2.027-1.161,3.984-1.764,5.969c-0.497,1.628-1.631,3.12,0.773,4.543
	c1.379,0.817-0.257,3.896-2.267,4.035c-2.348,0.168-4.715,0.041-7.077,0.041C74.733,158.312,74.733,158.3,74.733,158.286z
	 M73.242,153.617c2.383,0.447,4.043-0.663,4.603-3.545c0.358-1.844,1.044-3.621,1.442-5.458c0.709-3.256-0.169-5.571-2.36-6.588
	c-2.547-1.182-6.265-0.394-7.838,2.092c-1.129,1.783-1.951,3.888-2.378,5.958C65.613,151.382,67.369,153.418,73.242,153.617z"/>
<linearGradient id="SVGID_4_" gradientUnits="userSpaceOnUse" x1="108.0146" y1="148.4434" x2="127.8428" y2="148.4434">
	<stop  offset="0" style="stop-color:#81AADA"/>
	<stop  offset="1" style="stop-color:#E0BBCB"/>
</linearGradient>
<path fill-rule="evenodd" clip-rule="evenodd" fill="url(#SVGID_4_)" d="M118.301,158.359c-0.756,0-1.507,0.01-2.263-0.002
	c-7.073-0.107-9.107-2.73-7.512-9.682c1.744-7.603,5.416-10.573,12.58-10.176c5.239,0.288,8.445,6.032,5.775,10.56
	c-0.407,0.688-1.682,1.154-2.587,1.208c-2.724,0.172-5.473-0.037-8.192,0.175c-0.893,0.069-1.721,0.977-2.578,1.5
	c0.746,0.84,1.382,2.233,2.263,2.414c2.188,0.452,4.505,0.227,6.734,0.528c0.903,0.126,1.714,0.931,2.562,1.421
	c-0.845,0.677-1.604,1.699-2.562,1.942c-1.329,0.335-2.807,0.083-4.221,0.083C118.301,158.341,118.301,158.352,118.301,158.359z
	 M118.595,147.949c1.541-0.964,3.659-1.586,3.817-2.537c0.313-1.875-1.543-2.498-3.279-2.479c-1.962,0.02-3.998,0.434-4.246,2.662
	C114.822,146.17,117.034,146.995,118.595,147.949z"/>
<linearGradient id="SVGID_5_" gradientUnits="userSpaceOnUse" x1="87.9409" y1="148.4434" x2="107.041" y2="148.4434">
	<stop  offset="0" style="stop-color:#81AADA"/>
	<stop  offset="1" style="stop-color:#E0BBCB"/>
</linearGradient>
<path fill-rule="evenodd" clip-rule="evenodd" fill="url(#SVGID_5_)" d="M96.895,158.308c-7.609,0.512-10.047-1.015-8.521-10.068
	c0.423-2.507,0.971-4.995,1.426-7.501c0.381-2.12,1.839-2.479,3.589-2.132c2.008,0.396,1.361,1.901,1.12,3.162
	c-0.517,2.687-1.112,5.356-1.577,8.05c-0.324,1.884,0.134,3.469,2.348,3.766c2.104,0.28,4.23,0.519,4.805-2.437
	c0.668-3.421,1.503-6.813,2.181-10.236c0.36-1.821,1.41-2.754,3.156-2.295c0.691,0.181,1.715,1.377,1.613,1.931
	c-0.98,5.379-2.095,10.736-3.374,16.048c-0.172,0.708-1.405,1.479-2.254,1.635C99.945,158.502,98.403,158.308,96.895,158.308z"/>
<linearGradient id="SVGID_6_" gradientUnits="userSpaceOnUse" x1="144.2217" y1="146.6611" x2="164.6719" y2="146.6611">
	<stop  offset="0" style="stop-color:#81AADA"/>
	<stop  offset="1" style="stop-color:#E0BBCB"/>
</linearGradient>
<path fill-rule="evenodd" clip-rule="evenodd" fill="url(#SVGID_6_)" d="M150.358,147.607c2.277-3.369,4.318-6.394,6.366-9.413
	c2.311-3.417,3.376-3.804,7.947-2.656c-0.591,0.924-1.068,1.787-1.651,2.569c-3.151,4.228-6.397,8.385-9.465,12.674
	c-1.128,1.576-2.117,3.353-2.705,5.186c-0.847,2.626-2.729,2.588-4.724,2.215c-0.458-0.086-0.943-1.178-1.039-1.858
	c-0.357-2.554-0.624-5.129-0.785-7.706c-0.08-1.251-0.231-3.37,0.316-3.619c1.582-0.719,3.535-0.805,4.615,1.277
	C149.399,146.587,149.693,146.826,150.358,147.607z"/>
<g>
	<linearGradient id="SVGID_7_" gradientUnits="userSpaceOnUse" x1="108.752" y1="49.2939" x2="148.8428" y2="49.2939">
		<stop  offset="0" style="stop-color:#C2CAE7"/>
		<stop  offset="1" style="stop-color:#CAB3D5"/>
	</linearGradient>
	<path fill-rule="evenodd" clip-rule="evenodd" fill="url(#SVGID_7_)" d="M131.216,65.209c-4.626,0-9.069-1.408-12.848-4.072
		c-4.882-3.443-8.377-8.937-9.349-14.696c-0.739-4.381,0.063-8.479,2.259-11.54l1.093-1.523l-0.189,1.865
		c-0.624,6.169,1.372,12.156,5.621,16.857c4.533,5.015,11.092,8.009,17.546,8.009c4.119,0,7.985-1.241,11.18-3.587l2.314-1.701
		l-1.604,2.383C143.864,62.217,137.875,65.209,131.216,65.209z"/>
	<path fill="#FFFFFF" d="M111.685,35.193c-1.475,14.566,11.271,25.416,23.664,25.416c4.029,0,8.021-1.146,11.476-3.685
		c-3.425,5.088-9.384,7.785-15.608,7.785c-4.31,0-8.747-1.293-12.56-3.981C109.868,54.531,106.544,42.359,111.685,35.193
		 M146.824,56.924h0.005 M113.057,31.564l-2.185,3.046c-2.273,3.17-3.106,7.401-2.345,11.915c0.993,5.888,4.564,11.503,9.553,15.021
		c3.863,2.724,8.405,4.164,13.136,4.164c6.825,0,12.971-3.075,16.438-8.227l3.207-4.766l-4.629,3.402
		c-3.108,2.283-6.871,3.49-10.884,3.49c-6.314,0-12.735-2.932-17.175-7.844c-4.153-4.595-6.104-10.444-5.494-16.471L113.057,31.564
		L113.057,31.564z"/>
</g>
<linearGradient id="SVGID_8_" gradientUnits="userSpaceOnUse" x1="129.207" y1="148.3535" x2="147.8154" y2="148.3535">
	<stop  offset="0" style="stop-color:#81AADA"/>
	<stop  offset="1" style="stop-color:#E0BBCB"/>
</linearGradient>
<path fill-rule="evenodd" clip-rule="evenodd" fill="url(#SVGID_8_)" d="M132.428,158.252c-2.679,0.11-3.511-0.758-3.135-2.575
	c1.033-4.985,2-9.987,3.267-14.912c0.238-0.925,1.702-2.074,2.685-2.163c3.087-0.272,6.215-0.123,9.324-0.052
	c0.719,0.016,1.676,0.157,2.093,0.625c0.622,0.695,1.021,1.709,1.153,2.641c0.032,0.231-1.3,0.896-2.038,0.953
	c-1.968,0.151-3.957,0.146-5.936,0.071c-2.036-0.075-3.155,0.771-3.538,2.797c-0.652,3.428-1.3,6.862-2.188,10.232
	C133.843,156.908,132.803,157.747,132.428,158.252z"/>
<linearGradient id="SVGID_9_" gradientUnits="userSpaceOnUse" x1="44.2739" y1="155.7539" x2="57.5454" y2="155.7539">
	<stop  offset="0" style="stop-color:#81AADA"/>
	<stop  offset="1" style="stop-color:#E0BBCB"/>
</linearGradient>
<path fill-rule="evenodd" clip-rule="evenodd" fill="url(#SVGID_9_)" d="M46.385,166.886c-0.264-0.194-1.822-0.748-2.019-1.608
	c-0.345-1.533,0.239-2.902,2.266-3.6c1.207-0.416,2.409-2.046,2.811-3.375c1.094-3.599,1.788-7.316,2.579-11
	c0.396-1.86,1.408-2.72,3.35-2.681c1.732,0.034,2.462,0.717,2.071,2.438c-1.123,4.958-2.08,9.967-3.439,14.861
	C52.96,165.661,50.935,166.934,46.385,166.886z"/>
<linearGradient id="SVGID_10_" gradientUnits="userSpaceOnUse" x1="53.6533" y1="141.0137" x2="58.8335" y2="141.0137">
	<stop  offset="0" style="stop-color:#81AADA"/>
	<stop  offset="1" style="stop-color:#E0BBCB"/>
</linearGradient>
<path fill-rule="evenodd" clip-rule="evenodd" fill="url(#SVGID_10_)" d="M56.216,143.527c-1.304-1.315-2.468-1.942-2.546-2.676
	c-0.184-1.755,1.113-2.598,2.74-2.287c0.874,0.164,1.62,0.995,2.423,1.529C58.104,141.054,57.372,142.01,56.216,143.527z"/>
</svg>
