<?xml version="1.0" encoding="utf-8"?>
<!-- Generator: Adobe Illustrator 16.0.0, SVG Export Plug-In . SVG Version: 6.00 Build 0)  -->
<!DOCTYPE svg PUBLIC "-//W3C//DTD SVG 1.1//EN" "http://www.w3.org/Graphics/SVG/1.1/DTD/svg11.dtd">
<svg version="1.1" id="圖層_1" xmlns="http://www.w3.org/2000/svg" xmlns:xlink="http://www.w3.org/1999/xlink" x="0px" y="0px"
	 width="85.04px" height="85.04px" viewBox="0 0 85.04 85.04" enable-background="new 0 0 85.04 85.04" xml:space="preserve">
<circle fill="#E5E5E4" cx="42.73" cy="42.439" r="41.075"/>
<g>
	<linearGradient id="SVGID_1_" gradientUnits="userSpaceOnUse" x1="23.8423" y1="30.5068" x2="62.3857" y2="30.5068">
		<stop  offset="0" style="stop-color:#81AADA"/>
		<stop  offset="1" style="stop-color:#E0BBCB"/>
	</linearGradient>
	<path fill-rule="evenodd" clip-rule="evenodd" fill="url(#SVGID_1_)" d="M46.357,47.016c-0.41,0-0.818-0.014-1.228-0.043
		c-9.606-0.675-17.606-6.751-20.382-15.479c-2.049-6.449-0.513-14.084,3.497-17.382c0.092-0.075,0.204-0.114,0.317-0.114
		c0.094,0,0.188,0.026,0.271,0.08c0.183,0.118,0.269,0.34,0.212,0.55c-2.696,10.009,0.698,17.998,10.087,23.745
		c3.286,2.011,6.706,3.03,10.166,3.03c4.182,0,8.318-1.473,12.292-4.377c0.088-0.064,0.191-0.096,0.295-0.096
		c0.114,0,0.227,0.039,0.319,0.115c0.176,0.146,0.23,0.394,0.132,0.6c-2.634,5.517-9.205,9.371-15.978,9.371
		C46.358,47.016,46.358,47.016,46.357,47.016z"/>
	<path fill="#FFFFFF" d="M28.563,14.498c-2.911,10.807,1.193,18.722,10.309,24.301c3.401,2.081,6.916,3.104,10.427,3.104
		c4.27,0,8.536-1.513,12.587-4.473c-2.596,5.436-9.04,9.086-15.527,9.086c-0.398,0-0.796-0.014-1.194-0.042
		c-9.391-0.66-17.23-6.609-19.94-15.132C23.257,25.148,24.734,17.646,28.563,14.498 M61.886,37.43h0.005 M28.563,13.498
		c-0.226,0-0.452,0.077-0.635,0.228c-4.156,3.418-5.762,11.289-3.656,17.919c2.838,8.925,11.012,15.137,20.823,15.827
		c0.417,0.029,0.842,0.044,1.264,0.044c6.936,0,13.67-3.943,16.402-9.599c0.081-0.144,0.127-0.31,0.127-0.487
		c0-0.552-0.445-1-0.998-1h-0.003c0,0-0.001,0-0.002,0c-0.008,0-0.017,0-0.025,0c-0.215,0.005-0.413,0.078-0.574,0.198
		c-3.884,2.836-7.917,4.274-11.988,4.274c-3.366,0-6.699-0.995-9.905-2.957c-9.307-5.696-12.534-13.28-9.865-23.188
		c0.113-0.42-0.059-0.865-0.424-1.101C28.939,13.551,28.75,13.498,28.563,13.498L28.563,13.498z"/>
</g>
<linearGradient id="SVGID_2_" gradientUnits="userSpaceOnUse" x1="36.1973" y1="22.6924" x2="62.9556" y2="22.6924">
	<stop  offset="0" style="stop-color:#81AADA"/>
	<stop  offset="1" style="stop-color:#E0BBCB"/>
</linearGradient>
<path fill-rule="evenodd" clip-rule="evenodd" fill="url(#SVGID_2_)" stroke="#FFFFFF" stroke-linecap="round" stroke-linejoin="round" stroke-miterlimit="10" d="
	M38.316,11.6c-1.467,7.541,1.479,12.846,7.433,16.485c5.732,3.503,11.604,3.824,17.207-0.67c-3.816,6.47-13.356,8.375-20.063,4.021
	C35.317,26.517,34.746,16.99,38.316,11.6z"/>
<linearGradient id="SVGID_3_" gradientUnits="userSpaceOnUse" x1="24.54" y1="58.1836" x2="35.3291" y2="58.1836">
	<stop  offset="0" style="stop-color:#81AADA"/>
	<stop  offset="1" style="stop-color:#E0BBCB"/>
</linearGradient>
<path fill-rule="evenodd" clip-rule="evenodd" fill="url(#SVGID_3_)" d="M30.718,63.811c-0.951,0-1.908,0.058-2.853-0.013
	c-2.031-0.153-3.249-1.437-3.32-3.479c-0.065-1.915,0.442-3.7,1.471-5.302c1.44-2.246,4.618-3.127,7.052-2.022
	c1.636,0.743,2.55,2.53,2.178,4.441c-0.172,0.888-0.508,1.746-0.772,2.615c-0.218,0.713-0.715,1.368,0.338,1.991
	c0.605,0.357-0.112,1.707-0.992,1.768c-1.029,0.074-2.066,0.018-3.102,0.018C30.718,63.822,30.718,63.817,30.718,63.811z
	 M30.065,61.765c1.044,0.196,1.772-0.29,2.017-1.553c0.156-0.808,0.458-1.587,0.632-2.391c0.31-1.427-0.075-2.441-1.035-2.887
	c-1.116-0.518-2.746-0.172-3.434,0.917c-0.495,0.782-0.854,1.704-1.042,2.611C26.723,60.786,27.492,61.678,30.065,61.765z"/>
<linearGradient id="SVGID_4_" gradientUnits="userSpaceOnUse" x1="45.3003" y1="59.498" x2="53.9878" y2="59.498">
	<stop  offset="0" style="stop-color:#81AADA"/>
	<stop  offset="1" style="stop-color:#E0BBCB"/>
</linearGradient>
<path fill-rule="evenodd" clip-rule="evenodd" fill="url(#SVGID_4_)" d="M49.807,63.843c-0.331,0-0.661,0.004-0.991,0
	c-3.1-0.047-3.991-1.197-3.292-4.242c0.764-3.331,2.373-4.632,5.512-4.459c2.295,0.127,3.7,2.644,2.53,4.627
	c-0.178,0.302-0.737,0.505-1.133,0.53c-1.193,0.075-2.398-0.016-3.589,0.077c-0.392,0.03-0.754,0.427-1.13,0.657
	c0.328,0.367,0.605,0.978,0.991,1.057c0.959,0.198,1.975,0.099,2.951,0.232c0.396,0.054,0.75,0.407,1.123,0.623
	c-0.371,0.296-0.704,0.744-1.123,0.851c-0.583,0.146-1.23,0.036-1.85,0.036C49.807,63.835,49.807,63.84,49.807,63.843z
	 M49.936,59.282c0.675-0.422,1.603-0.695,1.673-1.111c0.137-0.822-0.677-1.095-1.437-1.087c-0.859,0.009-1.752,0.19-1.861,1.167
	C48.283,58.502,49.252,58.864,49.936,59.282z"/>
<linearGradient id="SVGID_5_" gradientUnits="userSpaceOnUse" x1="36.5059" y1="59.4985" x2="44.874" y2="59.4985">
	<stop  offset="0" style="stop-color:#81AADA"/>
	<stop  offset="1" style="stop-color:#E0BBCB"/>
</linearGradient>
<path fill-rule="evenodd" clip-rule="evenodd" fill="url(#SVGID_5_)" d="M40.428,63.82c-3.333,0.225-4.402-0.444-3.733-4.411
	c0.185-1.099,0.425-2.188,0.625-3.286c0.167-0.929,0.806-1.086,1.573-0.935c0.879,0.173,0.596,0.833,0.49,1.385
	c-0.226,1.177-0.487,2.347-0.69,3.527c-0.142,0.825,0.058,1.519,1.028,1.649c0.922,0.123,1.854,0.227,2.105-1.067
	c0.293-1.499,0.658-2.985,0.955-4.485c0.158-0.798,0.618-1.207,1.384-1.005c0.302,0.079,0.75,0.603,0.706,0.845
	c-0.429,2.357-0.918,4.704-1.479,7.032c-0.075,0.31-0.616,0.648-0.988,0.716C41.766,63.905,41.089,63.82,40.428,63.82z"/>
<linearGradient id="SVGID_6_" gradientUnits="userSpaceOnUse" x1="61.1636" y1="58.7178" x2="70.1235" y2="58.7178">
	<stop  offset="0" style="stop-color:#81AADA"/>
	<stop  offset="1" style="stop-color:#E0BBCB"/>
</linearGradient>
<path fill-rule="evenodd" clip-rule="evenodd" fill="url(#SVGID_6_)" d="M63.852,59.132c0.998-1.476,1.893-2.8,2.79-4.124
	c1.013-1.497,1.479-1.666,3.482-1.164c-0.259,0.404-0.468,0.782-0.724,1.125c-1.38,1.852-2.803,3.674-4.146,5.553
	c-0.495,0.69-0.927,1.469-1.185,2.272c-0.371,1.15-1.196,1.135-2.07,0.971c-0.201-0.039-0.414-0.516-0.455-0.814
	c-0.156-1.12-0.273-2.247-0.345-3.377c-0.035-0.547-0.101-1.477,0.14-1.585c0.693-0.314,1.549-0.353,2.022,0.559
	C63.432,58.685,63.562,58.79,63.852,59.132z"/>
<g>
	<linearGradient id="SVGID_7_" gradientUnits="userSpaceOnUse" x1="45.3423" y1="16.3462" x2="62.8037" y2="16.3462">
		<stop  offset="0" style="stop-color:#81AADA"/>
		<stop  offset="1" style="stop-color:#E0BBCB"/>
	</linearGradient>
	<path fill-rule="evenodd" clip-rule="evenodd" fill="url(#SVGID_7_)" d="M55.466,23.313c-2.085,0-4.088-0.635-5.791-1.836
		c-2.199-1.551-3.774-4.026-4.211-6.623c-0.336-1.994,0.032-3.864,1.039-5.266c0.096-0.134,0.249-0.208,0.406-0.208
		c0.059,0,0.119,0.01,0.177,0.032c0.212,0.08,0.344,0.293,0.321,0.518c-0.266,2.623,0.583,5.168,2.39,7.168
		c1.934,2.139,4.729,3.417,7.479,3.417c1.745,0,3.381-0.525,4.732-1.518c0.088-0.065,0.192-0.097,0.296-0.097
		c0.125,0,0.25,0.047,0.346,0.139c0.175,0.168,0.204,0.438,0.069,0.64C61.188,21.954,58.477,23.313,55.466,23.313z"/>
	<path fill="#FFFFFF" d="M46.909,9.88c-0.647,6.382,4.937,11.135,10.367,11.135c1.766,0,3.515-0.502,5.028-1.615
		c-1.5,2.229-4.111,3.412-6.837,3.412c-1.889,0-3.832-0.566-5.503-1.745C46.112,18.353,44.656,13.019,46.909,9.88 M62.304,19.4
		h0.005 M46.909,8.88c-0.315,0-0.621,0.149-0.813,0.417c-1.084,1.511-1.484,3.514-1.125,5.641c0.459,2.725,2.11,5.322,4.417,6.948
		c1.788,1.261,3.89,1.927,6.079,1.927c3.158,0,6.008-1.423,7.636-3.809c0.128-0.168,0.204-0.377,0.204-0.604
		c0-0.552-0.445-1-0.998-1h-0.001c-0.001,0-0.003,0-0.004,0c-0.02,0-0.039,0-0.059,0.002c-0.203,0.012-0.389,0.083-0.541,0.198
		c-1.263,0.926-2.794,1.415-4.428,1.415c-2.611,0-5.268-1.216-7.108-3.252c-1.711-1.894-2.515-4.302-2.264-6.782
		c0.045-0.451-0.217-0.876-0.641-1.036C47.147,8.901,47.027,8.88,46.909,8.88L46.909,8.88z"/>
</g>
<linearGradient id="SVGID_8_" gradientUnits="userSpaceOnUse" x1="54.5854" y1="59.4585" x2="62.7378" y2="59.4585">
	<stop  offset="0" style="stop-color:#81AADA"/>
	<stop  offset="1" style="stop-color:#E0BBCB"/>
</linearGradient>
<path fill-rule="evenodd" clip-rule="evenodd" fill="url(#SVGID_8_)" d="M55.997,63.796c-1.175,0.048-1.539-0.332-1.374-1.129
	c0.453-2.184,0.876-4.375,1.431-6.533c0.105-0.405,0.746-0.909,1.177-0.947c1.352-0.12,2.723-0.054,4.085-0.023
	c0.315,0.008,0.733,0.07,0.917,0.274c0.272,0.305,0.447,0.749,0.505,1.156c0.014,0.102-0.57,0.393-0.892,0.418
	c-0.863,0.066-1.735,0.063-2.601,0.031c-0.892-0.032-1.383,0.338-1.55,1.227c-0.286,1.501-0.57,3.006-0.958,4.483
	C56.617,63.208,56.161,63.574,55.997,63.796z"/>
<linearGradient id="SVGID_9_" gradientUnits="userSpaceOnUse" x1="17.3735" y1="62.7012" x2="23.188" y2="62.7012">
	<stop  offset="0" style="stop-color:#81AADA"/>
	<stop  offset="1" style="stop-color:#E0BBCB"/>
</linearGradient>
<path fill-rule="evenodd" clip-rule="evenodd" fill="url(#SVGID_9_)" d="M18.299,67.578c-0.116-0.084-0.798-0.328-0.884-0.705
	c-0.151-0.672,0.104-1.272,0.992-1.578c0.529-0.181,1.057-0.896,1.232-1.478c0.479-1.577,0.783-3.206,1.129-4.82
	c0.175-0.814,0.618-1.191,1.468-1.174c0.76,0.015,1.079,0.313,0.908,1.068c-0.492,2.172-0.911,4.366-1.507,6.512
	C21.179,67.042,20.292,67.599,18.299,67.578z"/>
<linearGradient id="SVGID_10_" gradientUnits="userSpaceOnUse" x1="21.4824" y1="56.2432" x2="23.752" y2="56.2432">
	<stop  offset="0" style="stop-color:#81AADA"/>
	<stop  offset="1" style="stop-color:#E0BBCB"/>
</linearGradient>
<path fill-rule="evenodd" clip-rule="evenodd" fill="url(#SVGID_10_)" d="M22.607,57.344c-0.572-0.576-1.083-0.851-1.117-1.172
	c-0.081-0.768,0.487-1.138,1.201-1.002c0.383,0.072,0.71,0.437,1.061,0.67C23.433,56.261,23.112,56.68,22.607,57.344z"/>
</svg>
