<?xml version="1.0" encoding="utf-8"?>
<!-- Generator: Adobe Illustrator 16.0.0, SVG Export Plug-In . SVG Version: 6.00 Build 0)  -->
<!DOCTYPE svg PUBLIC "-//W3C//DTD SVG 1.1//EN" "http://www.w3.org/Graphics/SVG/1.1/DTD/svg11.dtd">
<svg version="1.1" id="圖層_1" xmlns="http://www.w3.org/2000/svg" xmlns:xlink="http://www.w3.org/1999/xlink" x="0px" y="0px"
	 width="95.727px" height="85.04px" viewBox="0 0 95.727 85.04" enable-background="new 0 0 95.727 85.04" xml:space="preserve">
<rect x="17.563" y="1.267" fill-rule="evenodd" clip-rule="evenodd" fill="#E5E5E4" width="60.412" height="82.505"/>
<g>
	<g>
		<linearGradient id="SVGID_1_" gradientUnits="userSpaceOnUse" x1="32.9829" y1="63.1235" x2="48.3486" y2="63.1235">
			<stop  offset="0" style="stop-color:#81AADA"/>
			<stop  offset="1" style="stop-color:#E0BBCB"/>
		</linearGradient>
		<path fill="url(#SVGID_1_)" d="M43.758,73.098c-0.195,0-0.372-0.113-0.454-0.29l-1.7-3.671c-0.406-0.828-0.752-1.574-1.108-2.397
			c-0.292,0.747-0.62,1.509-1.011,2.41l-1.551,3.644c-0.079,0.185-0.259,0.304-0.46,0.304h-3.992c-0.174,0-0.335-0.09-0.426-0.239
			c-0.091-0.148-0.098-0.333-0.02-0.488l4.789-9.408l-4.616-9.088c-0.079-0.155-0.071-0.34,0.02-0.488
			c0.091-0.148,0.252-0.238,0.426-0.238h4.065c0.196,0,0.374,0.114,0.455,0.292l1.7,3.721c0.32,0.703,0.587,1.354,0.857,2.012
			c0.258-0.678,0.506-1.307,0.817-2.027l1.602-3.696c0.08-0.183,0.26-0.301,0.459-0.301h4.017c0.175,0,0.337,0.091,0.428,0.241
			c0.09,0.15,0.096,0.336,0.016,0.491l-4.733,9.059l4.954,9.427c0.082,0.155,0.076,0.341-0.015,0.491
			c-0.09,0.149-0.252,0.241-0.428,0.241H43.758z"/>
		<path fill="#FFFFFF" d="M47.627,53.649l-4.854,9.291l5.076,9.659h-4.09l-1.7-3.671c-0.641-1.307-1.084-2.317-1.553-3.451h-0.074
			c-0.394,1.134-0.837,2.169-1.404,3.475l-1.552,3.647h-3.992l4.904-9.634l-4.731-9.315h4.065l1.7,3.721
			c0.493,1.085,0.862,2.045,1.307,3.105h0.049c0.444-1.183,0.764-2.045,1.232-3.13l1.602-3.696H47.627 M47.627,52.649h-4.017
			c-0.398,0-0.759,0.237-0.917,0.602l-1.602,3.696c-0.134,0.311-0.256,0.603-0.373,0.89c-0.122-0.287-0.25-0.58-0.387-0.881
			l-1.701-3.723c-0.163-0.356-0.518-0.584-0.91-0.584h-4.065c-0.348,0-0.67,0.181-0.853,0.477c-0.182,0.296-0.196,0.666-0.039,0.976
			l4.5,8.862l-4.673,9.181c-0.158,0.31-0.143,0.68,0.039,0.976c0.182,0.297,0.505,0.478,0.853,0.478h3.992
			c0.401,0,0.763-0.239,0.92-0.608l1.552-3.647c0.206-0.474,0.395-0.911,0.57-1.328c0.203,0.443,0.414,0.884,0.643,1.353l1.69,3.651
			c0.164,0.354,0.518,0.58,0.907,0.58h4.09c0.35,0,0.675-0.183,0.856-0.483s0.192-0.672,0.029-0.982l-4.832-9.195l4.612-8.826
			c0.162-0.31,0.15-0.682-0.031-0.981S47.977,52.649,47.627,52.649L47.627,52.649z"/>
	</g>
	<g>
		<linearGradient id="SVGID_2_" gradientUnits="userSpaceOnUse" x1="48.6064" y1="62.8281" x2="62.2466" y2="62.8281">
			<stop  offset="0" style="stop-color:#81AADA"/>
			<stop  offset="1" style="stop-color:#E0BBCB"/>
		</linearGradient>
		<path fill="url(#SVGID_2_)" d="M54.429,73.37c-3.428,0-5.822-3.094-5.822-7.523c0-5.32,3.133-7.744,6.044-7.744
			c1.118,0,2.114,0.311,2.852,0.866v-6.181c0-0.276,0.224-0.5,0.5-0.5h3.646c0.276,0,0.5,0.224,0.5,0.5V68.68
			c0,1.375,0.05,2.914,0.097,3.895c0.006,0.137-0.043,0.27-0.138,0.369c-0.094,0.099-0.225,0.155-0.362,0.155h-3.203
			c-0.259,0-0.475-0.198-0.498-0.456l-0.063-0.719C57.09,72.835,55.815,73.37,54.429,73.37z M55.587,61.985
			c-1.702,0-2.308,1.969-2.308,3.813c0,1.759,0.594,3.639,2.259,3.639c0.906,0,1.964-0.644,1.964-2.457v-2.513
			C57.502,62.752,56.541,61.985,55.587,61.985z"/>
		<path fill="#FFFFFF" d="M61.649,52.787V68.68c0,1.381,0.049,2.908,0.098,3.918h-3.203l-0.172-1.947h-0.074
			c-0.714,1.355-2.193,2.218-3.869,2.218c-3.105,0-5.322-2.859-5.322-7.023c0-4.682,2.587-7.244,5.544-7.244
			c1.602,0,2.76,0.665,3.303,1.601h0.049v-7.417H61.649 M55.538,69.937c1.083,0,2.464-0.788,2.464-2.957v-2.513
			c0-1.996-1.208-2.982-2.416-2.982c-1.872,0-2.808,1.922-2.808,4.313C52.779,68.285,53.813,69.937,55.538,69.937 M61.649,51.787
			h-3.646c-0.552,0-1,0.448-1,1v5.305c-0.686-0.318-1.487-0.49-2.352-0.49c-3.152,0-6.544,2.58-6.544,8.244
			c0,4.724,2.6,8.023,6.322,8.023c1.17,0,2.27-0.348,3.163-0.966c0.13,0.406,0.51,0.694,0.952,0.694h3.203
			c0.273,0,0.535-0.112,0.724-0.31c0.189-0.198,0.288-0.464,0.275-0.738c-0.047-0.975-0.097-2.504-0.097-3.871V52.787
			C62.649,52.235,62.201,51.787,61.649,51.787L61.649,51.787z M55.538,68.937c-1.297,0-1.759-1.622-1.759-3.139
			c0-1.528,0.474-3.313,1.808-3.313c0.705,0,1.416,0.613,1.416,1.982v2.513C57.002,68.842,55.783,68.937,55.538,68.937
			L55.538,68.937z"/>
	</g>
</g>
<linearGradient id="SVGID_3_" gradientUnits="userSpaceOnUse" x1="20.9741" y1="42.0645" x2="75.4263" y2="42.0645">
	<stop  offset="0" style="stop-color:#81AADA"/>
	<stop  offset="1" style="stop-color:#E0BBCB"/>
</linearGradient>
<rect x="21.474" y="4.684" fill="none" stroke="url(#SVGID_3_)" stroke-linecap="round" stroke-linejoin="round" stroke-miterlimit="10" width="53.452" height="74.761"/>
<linearGradient id="SVGID_4_" gradientUnits="userSpaceOnUse" x1="28.876" y1="25.8428" x2="67.5742" y2="25.8428">
	<stop  offset="0" style="stop-color:#81AADA"/>
	<stop  offset="1" style="stop-color:#E0BBCB"/>
</linearGradient>
<rect x="29.376" y="12.198" fill="none" stroke="url(#SVGID_4_)" stroke-linecap="round" stroke-linejoin="round" stroke-miterlimit="10" width="37.698" height="27.289"/>
<linearGradient id="SVGID_5_" gradientUnits="userSpaceOnUse" x1="28.876" y1="25.8428" x2="67.5742" y2="25.8428">
	<stop  offset="0" style="stop-color:#81AADA"/>
	<stop  offset="1" style="stop-color:#E0BBCB"/>
</linearGradient>
<line fill="none" stroke="url(#SVGID_5_)" stroke-linecap="round" stroke-linejoin="round" stroke-miterlimit="10" x1="29.376" y1="12.198" x2="67.074" y2="39.487"/>
<linearGradient id="SVGID_6_" gradientUnits="userSpaceOnUse" x1="28.876" y1="25.8428" x2="67.5742" y2="25.8428">
	<stop  offset="0" style="stop-color:#81AADA"/>
	<stop  offset="1" style="stop-color:#E0BBCB"/>
</linearGradient>
<line fill="none" stroke="url(#SVGID_6_)" stroke-linecap="round" stroke-linejoin="round" stroke-miterlimit="10" x1="67.074" y1="12.198" x2="29.376" y2="39.487"/>
<linearGradient id="SVGID_7_" gradientUnits="userSpaceOnUse" x1="76.7446" y1="34.4395" x2="92.3184" y2="34.4395">
	<stop  offset="0" style="stop-color:#81AADA"/>
	<stop  offset="1" style="stop-color:#E0BBCB"/>
</linearGradient>
<path fill="none" stroke="url(#SVGID_7_)" stroke-miterlimit="10" d="M76.749,27.289c0,0,5.476,0.048,6.949,2.103
	c3.014,4.207-1.061,6.52,1.884,9.674c2.296,2.459,6.729,2.523,6.729,2.523"/>
<linearGradient id="SVGID_8_" gradientUnits="userSpaceOnUse" x1="909.5762" y1="27.2891" x2="914.3428" y2="27.2891" gradientTransform="matrix(-0.7649 0 0 1 774.3151 0)">
	<stop  offset="0" style="stop-color:#81AADA"/>
	<stop  offset="1" style="stop-color:#E0BBCB"/>
</linearGradient>
<path fill="url(#SVGID_8_)" d="M74.926,26.888c0-0.939,0.816-1.702,1.823-1.702l0,0c1.006,0,1.823,0.763,1.823,1.702v0.802
	c0,0.94-0.817,1.702-1.823,1.702l0,0c-1.006,0-1.823-0.762-1.823-1.702V26.888z"/>
<linearGradient id="SVGID_9_" gradientUnits="userSpaceOnUse" x1="889.0488" y1="41.5898" x2="893.998" y2="41.5898" gradientTransform="matrix(-0.7649 0 0 1 774.3151 0)">
	<stop  offset="0" style="stop-color:#81AADA"/>
	<stop  offset="1" style="stop-color:#E0BBCB"/>
</linearGradient>
<path fill="url(#SVGID_9_)" d="M90.488,41.189c0-0.94,0.848-1.702,1.894-1.702l0,0c1.045,0,1.893,0.762,1.893,1.702v0.802
	c0,0.94-0.848,1.702-1.893,1.702l0,0c-1.046,0-1.894-0.762-1.894-1.702V41.189z"/>
<linearGradient id="SVGID_10_" gradientUnits="userSpaceOnUse" x1="3.9448" y1="39.4873" x2="19.5181" y2="39.4873">
	<stop  offset="0" style="stop-color:#81AADA"/>
	<stop  offset="1" style="stop-color:#E0BBCB"/>
</linearGradient>
<path fill="none" stroke="url(#SVGID_10_)" stroke-miterlimit="10" d="M3.949,32.337c0,0,5.476,0.048,6.948,2.103
	c3.014,4.206-1.061,6.52,1.884,9.674c2.296,2.46,6.729,2.524,6.729,2.524"/>
<linearGradient id="SVGID_11_" gradientUnits="userSpaceOnUse" x1="1004.752" y1="32.3364" x2="1009.5186" y2="32.3364" gradientTransform="matrix(-0.7649 0 0 1 774.3151 0)">
	<stop  offset="0" style="stop-color:#81AADA"/>
	<stop  offset="1" style="stop-color:#E0BBCB"/>
</linearGradient>
<path fill="url(#SVGID_11_)" d="M2.126,31.936c0-0.939,0.816-1.702,1.823-1.702l0,0c1.006,0,1.823,0.763,1.823,1.702v0.802
	c0,0.939-0.817,1.702-1.823,1.702l0,0c-1.007,0-1.823-0.763-1.823-1.702V31.936z"/>
<linearGradient id="SVGID_12_" gradientUnits="userSpaceOnUse" x1="984.2236" y1="46.6372" x2="989.1729" y2="46.6372" gradientTransform="matrix(-0.7649 0 0 1 774.3151 0)">
	<stop  offset="0" style="stop-color:#81AADA"/>
	<stop  offset="1" style="stop-color:#E0BBCB"/>
</linearGradient>
<path fill="url(#SVGID_12_)" d="M17.688,46.236c0-0.939,0.848-1.702,1.894-1.702l0,0c1.045,0,1.893,0.763,1.893,1.702v0.802
	c0,0.94-0.848,1.702-1.893,1.702l0,0c-1.046,0-1.894-0.762-1.894-1.702V46.236z"/>
</svg>
