<?xml version="1.0" encoding="utf-8"?>
<!-- Generator: Adobe Illustrator 16.0.0, SVG Export Plug-In . SVG Version: 6.00 Build 0)  -->
<!DOCTYPE svg PUBLIC "-//W3C//DTD SVG 1.1//EN" "http://www.w3.org/Graphics/SVG/1.1/DTD/svg11.dtd">
<svg version="1.1" id="圖層_1" xmlns="http://www.w3.org/2000/svg" xmlns:xlink="http://www.w3.org/1999/xlink" x="0px" y="0px"
	 width="245px" height="200px" viewBox="0 0 245 200" enable-background="new 0 0 245 200" xml:space="preserve">
<rect x="50.015" y="1.587" fill-rule="evenodd" clip-rule="evenodd" fill="#EDEDED" width="144.499" height="197.339"/>
<g>
	<g>
		<linearGradient id="SVGID_1_" gradientUnits="userSpaceOnUse" x1="87.2769" y1="149.5391" x2="123.2813" y2="149.5391">
			<stop  offset="0" style="stop-color:#C2CAE7"/>
			<stop  offset="1" style="stop-color:#CAB3D5"/>
		</linearGradient>
		<path fill="url(#SVGID_1_)" d="M112.349,172.702l-4.198-9.073c-1.227-2.502-2.219-4.683-3.318-7.305
			c-0.83,2.275-1.762,4.453-3.02,7.353l-3.84,9.025H87.277l11.984-23.545L87.69,126.375h10.86l4.202,9.192
			c0.806,1.773,1.459,3.372,2.15,5.064c0.184,0.451,0.368,0.903,0.558,1.362c0.861-2.296,1.584-4.198,2.565-6.475l3.964-9.145
			h10.759l-11.87,22.722l12.403,23.605H112.349z"/>
		<path fill="#FFFFFF" d="M121.923,126.875l-11.609,22.223l12.141,23.104h-9.786l-4.063-8.783c-1.532-3.125-2.593-5.54-3.713-8.254
			h-0.178c-0.941,2.714-2.005,5.188-3.36,8.313l-3.712,8.725h-9.549l11.73-23.045l-11.317-22.282h9.724l4.068,8.9
			c1.18,2.596,2.062,4.893,3.124,7.429h0.119c1.061-2.829,1.825-4.892,2.944-7.486l3.833-8.843H121.923 M123.573,125.875h-1.65
			h-9.605h-0.656l-0.262,0.603l-3.833,8.843c-0.812,1.882-1.446,3.508-2.127,5.307c-0.024-0.062-0.05-0.123-0.074-0.184
			c-0.693-1.697-1.349-3.301-2.158-5.082l-4.068-8.902l-0.267-0.584h-0.643h-9.724h-1.629l0.738,1.453L98.7,149.156l-11.499,22.592
			l-0.74,1.454h1.631h9.549h0.661l0.259-0.608l3.712-8.725c1.043-2.402,1.862-4.313,2.587-6.196c0.918,2.14,1.796,4.043,2.847,6.187
			l4.054,8.763l0.268,0.58h0.64h9.786h1.655l-0.771-1.465l-11.896-22.641l11.367-21.759L123.573,125.875L123.573,125.875z"/>
	</g>
	<g>
		<linearGradient id="SVGID_2_" gradientUnits="userSpaceOnUse" x1="124.96" y1="148.833" x2="156.2227" y2="148.833">
			<stop  offset="0" style="stop-color:#C2CAE7"/>
			<stop  offset="1" style="stop-color:#CAB3D5"/>
		</linearGradient>
		<path fill="url(#SVGID_2_)" d="M138.192,173.35c-7.791,0-13.232-7.112-13.232-17.297c0-12.248,7.135-17.827,13.764-17.827
			c3.197,0,5.859,1.059,7.517,2.947v-16.856h9.722v38.514c0,3.381,0.121,7.045,0.234,9.348l0.026,0.524h-8.648l-0.338-3.855
			C145.269,171.651,141.911,173.35,138.192,173.35z M140.963,146.12c-4.585,0-6.219,5.07-6.219,9.814
			c0,5.799,2.338,9.401,6.102,9.401c2.004,0,5.395-1.384,5.395-6.571v-6.015C146.24,148.195,143.505,146.12,140.963,146.12z"/>
		<path fill="#FFFFFF" d="M155.462,124.816v38.014c0,3.301,0.116,6.955,0.235,9.372h-7.665l-0.408-4.658h-0.177
			c-1.708,3.242-5.247,5.306-9.255,5.306c-7.426,0-12.732-6.837-12.732-16.797c0-11.199,6.188-17.327,13.264-17.327
			c3.832,0,6.597,1.59,7.897,3.829h0.119v-17.738H155.462 M140.846,165.836c2.59,0,5.895-1.885,5.895-7.071v-6.015
			c0-4.771-2.888-7.13-5.777-7.13c-4.479,0-6.719,4.597-6.719,10.314C134.244,161.885,136.719,165.836,140.846,165.836
			 M156.462,123.816h-1h-8.722h-1v1v15.189c-1.757-1.457-4.225-2.28-7.017-2.28c-6.87,0-14.264,5.735-14.264,18.327
			c0,10.479,5.647,17.797,13.732,17.797c3.42,0,6.55-1.379,8.655-3.714l0.188,2.153l0.08,0.913h0.916h7.665h1.051l-0.052-1.049
			c-0.113-2.297-0.234-5.951-0.234-9.323v-38.014V123.816L156.462,123.816z M140.846,164.836c-3.455,0-5.602-3.411-5.602-8.901
			c0-4.503,1.502-9.314,5.719-9.314c2.301,0,4.777,1.918,4.777,6.13v6.015C145.74,163.558,142.664,164.836,140.846,164.836
			L140.846,164.836z"/>
	</g>
</g>
<linearGradient id="SVGID_3_" gradientUnits="userSpaceOnUse" x1="58.8687" y1="99.168" x2="187.7168" y2="99.168">
	<stop  offset="0" style="stop-color:#81AADA"/>
	<stop  offset="1" style="stop-color:#E0BBCB"/>
</linearGradient>
<rect x="59.369" y="9.76" fill="none" stroke="url(#SVGID_3_)" stroke-miterlimit="10" width="127.848" height="178.816"/>
<linearGradient id="SVGID_4_" gradientUnits="userSpaceOnUse" x1="77.7686" y1="60.3682" x2="168.9385" y2="60.3682">
	<stop  offset="0" style="stop-color:#81AADA"/>
	<stop  offset="1" style="stop-color:#E0BBCB"/>
</linearGradient>
<rect x="78.269" y="27.733" fill="none" stroke="url(#SVGID_4_)" stroke-miterlimit="10" width="90.17" height="65.271"/>
<linearGradient id="SVGID_5_" gradientUnits="userSpaceOnUse" x1="77.5615" y1="60.3682" x2="169.1451" y2="60.3682">
	<stop  offset="0" style="stop-color:#81AADA"/>
	<stop  offset="1" style="stop-color:#E0BBCB"/>
</linearGradient>
<line fill="none" stroke="url(#SVGID_5_)" stroke-miterlimit="10" x1="78.269" y1="27.733" x2="168.438" y2="93.004"/>
<linearGradient id="SVGID_6_" gradientUnits="userSpaceOnUse" x1="77.5615" y1="60.3682" x2="169.1451" y2="60.3682">
	<stop  offset="0" style="stop-color:#81AADA"/>
	<stop  offset="1" style="stop-color:#E0BBCB"/>
</linearGradient>
<line fill="none" stroke="url(#SVGID_6_)" stroke-miterlimit="10" x1="168.438" y1="27.733" x2="78.269" y2="93.004"/>
<linearGradient id="SVGID_7_" gradientUnits="userSpaceOnUse" x1="191.2373" y1="85.8647" x2="237.6152" y2="85.8647">
	<stop  offset="0" style="stop-color:#81AADA"/>
	<stop  offset="1" style="stop-color:#E0BBCB"/>
</linearGradient>
<path fill="none" stroke="url(#SVGID_7_)" stroke-miterlimit="10" d="M192.42,65.639c0,0,15.487,0.137,19.652,5.95
	c8.522,11.897-3.002,18.439,5.326,27.363c6.496,6.959,19.037,7.14,19.037,7.14"/>
<linearGradient id="SVGID_8_" gradientUnits="userSpaceOnUse" x1="56.3721" y1="65.6396" x2="69.8516" y2="65.6396" gradientTransform="matrix(-0.7649 0 0 1 240.6885 0)">
	<stop  offset="0" style="stop-color:#81AADA"/>
	<stop  offset="1" style="stop-color:#E0BBCB"/>
</linearGradient>
<path fill="url(#SVGID_8_)" d="M187.26,64.504c0-2.658,2.312-4.813,5.16-4.813l0,0c2.845,0,5.15,2.155,5.15,4.813v2.269
	c0,2.657-2.306,4.816-5.15,4.816l0,0c-2.849,0-5.16-2.159-5.16-4.816V64.504z"/>
<linearGradient id="SVGID_9_" gradientUnits="userSpaceOnUse" x1="-1.6982" y1="106.0898" x2="12.2998" y2="106.0898" gradientTransform="matrix(-0.7649 0 0 1 240.6885 0)">
	<stop  offset="0" style="stop-color:#81AADA"/>
	<stop  offset="1" style="stop-color:#E0BBCB"/>
</linearGradient>
<path fill="url(#SVGID_9_)" d="M231.281,104.956c0-2.658,2.397-4.816,5.353-4.816l0,0c2.955,0,5.354,2.158,5.354,4.816v2.269
	c0,2.657-2.399,4.814-5.354,4.814l0,0c-2.955,0-5.353-2.157-5.353-4.814V104.956z"/>
<linearGradient id="SVGID_10_" gradientUnits="userSpaceOnUse" x1="7.3228" y1="99.1694" x2="53.7033" y2="99.1694">
	<stop  offset="0" style="stop-color:#81AADA"/>
	<stop  offset="1" style="stop-color:#E0BBCB"/>
</linearGradient>
<path fill="none" stroke="url(#SVGID_10_)" stroke-miterlimit="10" d="M8.506,78.943c0,0,15.491,0.136,19.655,5.95
	c8.526,11.895-3,18.439,5.328,27.363c6.495,6.956,19.035,7.14,19.035,7.14"/>
<linearGradient id="SVGID_11_" gradientUnits="userSpaceOnUse" x1="296.8047" y1="78.9434" x2="310.2861" y2="78.9434" gradientTransform="matrix(-0.7649 0 0 1 240.6885 0)">
	<stop  offset="0" style="stop-color:#81AADA"/>
	<stop  offset="1" style="stop-color:#E0BBCB"/>
</linearGradient>
<path fill="url(#SVGID_11_)" d="M3.352,77.809c0-2.659,2.308-4.814,5.154-4.814l0,0c2.848,0,5.158,2.155,5.158,4.814v2.267
	c0,2.659-2.31,4.817-5.158,4.817l0,0c-2.846,0-5.154-2.159-5.154-4.817V77.809z"/>
<linearGradient id="SVGID_12_" gradientUnits="userSpaceOnUse" x1="238.7373" y1="119.3926" x2="252.7383" y2="119.3926" gradientTransform="matrix(-0.7649 0 0 1 240.6885 0)">
	<stop  offset="0" style="stop-color:#81AADA"/>
	<stop  offset="1" style="stop-color:#E0BBCB"/>
</linearGradient>
<path fill="url(#SVGID_12_)" d="M47.37,118.259c0-2.657,2.397-4.815,5.354-4.815l0,0c2.957,0,5.355,2.158,5.355,4.815v2.27
	c0,2.658-2.398,4.814-5.355,4.814l0,0c-2.957,0-5.354-2.156-5.354-4.814V118.259z"/>
</svg>
