<?xml version="1.0" encoding="utf-8"?>
<!-- Generator: Adobe Illustrator 16.0.0, SVG Export Plug-In . SVG Version: 6.00 Build 0)  -->
<!DOCTYPE svg PUBLIC "-//W3C//DTD SVG 1.1//EN" "http://www.w3.org/Graphics/SVG/1.1/DTD/svg11.dtd">
<svg version="1.1" id="圖層_1" xmlns="http://www.w3.org/2000/svg" xmlns:xlink="http://www.w3.org/1999/xlink" x="0px" y="0px"
	 width="328.667px" height="78.834px" viewBox="0 0 328.667 78.834" enable-background="new 0 0 328.667 78.834"
	 xml:space="preserve">
<g>
	<path fill="#F4AA7E" d="M13.083,9.652l-1.147,8.507c-0.354,2.831-0.731,5.648-1.011,8.473c-0.306,2.818-0.594,5.631-0.789,8.439
		c-0.184,2.809-0.369,5.604-0.424,8.381c-0.084,2.776-0.047,5.534,0.091,8.237c0.158,2.698,0.439,5.354,0.961,7.827
		c0.528,2.456,1.301,4.77,2.369,6.379c0.536,0.792,1.1,1.391,1.679,1.8c0.585,0.402,1.206,0.652,1.994,0.777
		c0.398,0.051,0.823,0.091,1.289,0.07c0.24-0.002,0.215-0.018,0.269-0.021l0.065-0.002l0.133-0.022
		c0.181-0.02,0.366-0.068,0.555-0.109c0.755-0.203,1.591-0.589,2.438-1.178c1.709-1.156,3.406-2.974,4.896-5.024
		c1.525-2.044,2.862-4.354,4.108-6.745c1.238-2.4,2.349-4.91,3.377-7.474c2.021-5.142,3.75-10.487,5.103-15.953
		c0.723-2.726,1.323-5.487,1.879-8.268c0.563-2.781,1.025-5.587,1.471-8.415l2.857,0.265l0,0c-0.265,8.61-0.421,17.254,0.033,25.725
		c0.215,4.231,0.58,8.435,1.251,12.483c0.67,4.018,1.669,8.004,3.324,11.063c0.816,1.515,1.812,2.704,2.806,3.321
		c0.497,0.321,0.996,0.528,1.553,0.649c0.134,0.041,0.28,0.06,0.43,0.072c0.146,0.022,0.293,0.045,0.456,0.039l0.237,0.01
		l0.059,0.003c-0.031,0.001,0.152,0.002-0.054,0.004l0.203-0.008l0.407-0.015c0.164-0.003,0.16-0.019,0.249-0.025l0.2-0.019
		l0.267-0.038c0.179-0.018,0.357-0.056,0.536-0.09c0.357-0.068,0.713-0.171,1.069-0.282c0.71-0.235,1.417-0.568,2.111-0.979
		c1.38-0.835,2.719-1.975,3.956-3.312c2.445-2.713,4.476-6.143,6.021-9.817c1.583-3.673,2.707-7.624,3.396-11.667
		c0.672-4.045,0.914-8.202,0.558-12.319c-0.18-2.058-0.47-4.11-0.954-6.12l-0.188-0.751l-0.047-0.188
		c-0.032-0.104,0.018,0.037,0.002-0.014L73.1,23.226l-0.112-0.393c-0.079-0.255-0.217-0.585-0.348-0.777
		c-0.133-0.201-0.213-0.249-0.201-0.282c0.016-0.042-0.013-0.068-0.188,0.012c-0.355,0.175-0.851,0.886-1.1,1.71
		c-0.269,0.832-0.41,1.787-0.427,2.766c-0.007,1.967,0.398,4.007,1.047,5.973c1.39,4.005,3.08,7.946,5.24,11.576
		c1.07,1.816,2.272,3.545,3.628,5.112c1.343,1.574,2.833,3.008,4.5,4.109c1.648,1.123,3.448,1.941,5.305,2.302
		c0.929,0.182,1.869,0.221,2.8,0.202c0.935-0.063,1.856-0.228,2.76-0.483c1.825-0.516,3.476-1.441,5.135-2.573
		c0.494-0.308,0.823-0.59,1.177-0.867c0.354-0.261,0.705-0.591,1.056-0.895c0.364-0.297,0.646-0.646,0.973-0.958
		c0.288-0.334,0.576-0.664,0.835-0.994c1.028-1.334,1.59-2.743,1.616-3.837c0.032-1.1-0.338-1.924-1.05-2.592
		c-0.717-0.661-1.864-1.029-3.181-0.9c-0.655,0.071-1.356,0.202-2.066,0.5c-0.179,0.055-0.354,0.143-0.532,0.229l-0.469,0.221
		c-0.457,0.265-0.974,0.546-1.382,0.798c-0.354,0.243-0.707,0.448-1.071,0.712c-0.357,0.282-0.751,0.532-1.096,0.825
		c-0.703,0.573-1.387,1.172-1.976,1.838c-1.21,1.312-2.188,2.793-2.844,4.407c-1.327,3.204-1.327,6.992,0.28,10.194
		c1.551,3.228,4.699,5.641,8.416,6.534c3.696,0.897,7.824,0.333,11.604-1.22c3.815-1.559,7.097-4.291,10.016-7.249
		c5.81-6.043,9.885-13.619,12.599-21.509c2.709-7.92,4.133-16.221,4.506-24.551c0.059-1.049,0.089-2.048,0.076-3.024
		c-0.013-0.956-0.075-1.938-0.211-2.58c-0.033-0.138-0.068-0.282-0.084-0.311c-0.004-0.033-0.032-0.01,0.187,0.285
		c0.072,0.1,0.143,0.169,0.25,0.267c0.135,0.128,0.24,0.192,0.442,0.32c0.357,0.204,0.881,0.365,1.319,0.35
		c0.87-0.029,1.112-0.285,1.196-0.318c0.082-0.063,0.019-0.027-0.059,0.056c-0.078,0.073-0.188,0.202-0.301,0.337
		c-0.229,0.285-0.479,0.643-0.725,1.025c-0.994,1.559-1.896,3.442-2.751,5.319c-0.868,1.887-1.675,3.834-2.432,5.807
		c-3.034,7.897-5.624,16.099-7.315,24.441c-0.82,4.169-1.44,8.398-1.42,12.587c0.009,2.087,0.156,4.175,0.656,6.128
		c0.485,1.941,1.321,3.781,2.709,4.928l-0.227-0.137c0.696,0.343,1.427,0.543,2.116,0.499c0.69-0.044,1.333-0.328,1.904-0.783
		c1.151-0.921,1.995-2.393,2.86-3.843c1.729-2.957,3.127-6.311,4.661-9.641c1.538-3.337,3.159-6.739,5.448-9.951
		c1.148-1.598,2.48-3.151,4.133-4.493c0.825-0.669,1.73-1.279,2.713-1.788c0.491-0.255,1-0.484,1.523-0.684
		c0.259-0.109,0.53-0.185,0.796-0.276l0.684-0.214c1.703-0.524,3.379-1.078,4.989-1.696c0.802-0.309,1.589-0.634,2.304-0.979
		c0.356-0.17,0.7-0.348,0.975-0.515c0.139-0.083,0.254-0.162,0.332-0.221c0.054-0.033,0.105-0.134-0.143,0.136
		c-0.037,0.045-0.058,0.074-0.102,0.136c-0.066,0.092-0.126,0.191-0.177,0.294c-0.029,0.061-0.146,0.308-0.195,0.519
		c-0.027,0.109-0.047,0.214-0.061,0.33c-0.025,0.17-0.033,0.349-0.023,0.525c0.023,0.347,0.104,0.7,0.271,1.063
		c0.077,0.167,0.202,0.356,0.283,0.468c0.08,0.11,0.171,0.218,0.269,0.316c0.094,0.095,0.217,0.195,0.305,0.26
		c0.062,0.048,0.125,0.093,0.192,0.134c0.121,0.08,0.313,0.163,0.353,0.183c0.073,0.032,0.148,0.06,0.226,0.081l0.127,0.037
		l0.146,0.03c0.063,0.009,0.052,0.008,0.028,0.014c-0.105,0.012-0.437,0.065-0.743,0.143c-0.644,0.159-1.361,0.41-2.054,0.714
		c-1.395,0.608-2.734,1.422-3.913,2.371c-1.169,0.952-2.226,2.042-3.019,3.221l-0.753,1.113l-0.623,1.005
		c-0.417,0.708-0.811,1.423-1.168,2.148c-1.432,2.886-2.346,5.957-2.311,8.833c0.013,2.856,1.004,5.453,2.81,6.861
		c1.797,1.401,4.204,1.771,7.105,1.362c2.896-0.421,6.117-1.889,8.758-4.145c2.63-2.278,4.863-5.107,6.823-8.112
		c0.962-1.517,1.833-3.099,2.604-4.729c0.378-0.819,0.744-1.644,1.072-2.485l0.511-1.289c0.173-0.412,0.338-0.823,0.475-1.227
		c0.064-0.194,0.13-0.411,0.149-0.546c0.004-0.021,0.002-0.064,0.001,0.005c0.018,0.023-0.039,0.125,0.188,0.385
		c0.152,0.149,0.36,0.201,0.518,0.185c0.09-0.002,0.196-0.048,0.207-0.053c0.118-0.063,0.08-0.053,0.072-0.032l-0.063,0.083
		c-0.207,0.291-0.424,0.688-0.616,1.07c-0.394,0.775-0.729,1.599-1.021,2.432c-0.595,1.666-1.022,3.393-1.267,5.121
		c-0.487,3.441-0.223,6.99,1.157,9.724c1.353,2.748,3.696,4.481,6.545,5.513l-0.647-0.213c0.784,0.1,1.554,0.156,2.302,0.166
		c0.745-0.012,1.466-0.077,2.157-0.195c1.382-0.251,2.628-0.751,3.745-1.51c2.232-1.501,3.95-4.099,4.908-7.108
		c0.502-1.5,0.744-3.108,0.817-4.727c0.061-1.62-0.122-3.259-0.586-4.806c-0.459-1.549-1.234-2.995-2.34-4.162
		c-1.09-1.181-2.534-2.055-4.162-2.513c-0.813-0.224-1.666-0.384-2.538-0.416c-0.906-0.038-1.803-0.055-2.668,0.045
		c-0.429,0.048-0.849,0.116-1.223,0.222c-0.367,0.1-0.712,0.262-0.821,0.383c-0.056,0.061-0.049,0.059-0.054,0.065
		c-0.007,0.006-0.005,0.076,0.045,0.188c0.099,0.229,0.352,0.535,0.646,0.803c1.232,1.103,2.946,1.896,4.628,2.541
		c1.713,0.62,3.494,1.08,5.296,1.396c1.8,0.332,3.636,0.433,5.448,0.411c1.814-0.02,3.614-0.264,5.334-0.707
		c3.439-0.871,6.544-2.755,8.415-5.479l0.001-0.001l-0.427,0.72c0.58-1.602,1.142-3.215,1.638-4.812l0.348-1.176l0.132-0.518
		l0.013-0.059c0.002-0.011-0.003,0.023-0.005,0.053c-0.003,0.032-0.007,0.104-0.005,0.154c-0.001,0.044,0.009,0.219,0.031,0.32
		c0.035,0.136-0.03-0.055,0.096,0.347c0.133,0.38,0.452,0.775,0.792,0.985c0.237,0.212,1.166,0.5,1.808,0.21
		c0.776-0.378,0.43-0.25,0.625-0.363c0.074-0.063,0.144-0.133,0.207-0.206l0.105-0.133c0.038-0.047,0.108-0.17,0.105-0.164
		l0.031-0.063c0.003-0.006-0.011,0.022-0.022,0.051c-0.248,0.611-0.523,1.483-0.766,2.265l-0.714,2.44
		c-0.224,0.811-0.467,1.663-0.657,2.451c-0.356,1.512-0.611,3.198-0.79,4.847c-0.354,3.326-0.454,6.718-0.289,10.057
		c0.092,1.666,0.251,3.326,0.547,4.915c0.15,0.79,0.334,1.565,0.573,2.276c0.232,0.704,0.55,1.36,0.857,1.74l-2.905,0.804v-0.001
		c-0.036-1.375,0.024-2.685,0.126-4.016c0.088-1.329,0.252-2.646,0.446-3.964c0.397-2.634,0.977-5.25,1.771-7.859
		c0.825-2.599,1.811-5.204,3.342-7.769c0.757-1.29,1.673-2.564,2.89-3.801c1.205-1.219,2.846-2.45,5.092-3.041
		c0.272-0.077,0.566-0.122,0.851-0.175c0.143-0.026,0.29-0.037,0.436-0.054l0.22-0.021l0.109-0.01l0.056-0.005l0.027-0.002
		l0.481-0.003l0.24,0.019l0.182,0.017l0.377,0.049c0.538,0.077,0.907,0.198,1.315,0.339c0.822,0.308,1.601,0.821,2.19,1.402
		c0.603,0.586,1.008,1.206,1.302,1.771c0.599,1.153,0.781,2.115,0.93,2.994c0.134,0.876,0.177,1.668,0.189,2.426
		c-0.004,1.511-0.115,2.888-0.281,4.232c-0.168,1.339-0.368,2.635-0.599,3.907c-0.213,1.273-0.468,2.52-0.689,3.754
		c-0.228,1.23-0.454,2.45-0.623,3.646c-0.178,1.194-0.298,2.374-0.286,3.488c0.005,0.557,0.059,1.097,0.199,1.58
		c0.115,0.508,0.34,0.938,0.701,1.349h0.001l-0.935,0.49c-0.115-1.367-0.13-2.708-0.095-4.06c0.022-1.352,0.111-2.7,0.252-4.047
		c0.28-2.693,0.747-5.387,1.491-8.062c0.74-2.678,1.741-5.343,3.274-7.945c0.783-1.29,1.714-2.566,2.898-3.754
		c1.197-1.165,2.692-2.252,4.497-2.935c0.9-0.333,1.866-0.556,2.835-0.642c0.242-0.028,0.483-0.03,0.726-0.043l0.182-0.007
		l0.271,0.002l0.246,0.006c0.038-0.003,0.295,0.017,0.443,0.03c0.168,0.017,0.358,0.032,0.506,0.061
		c0.307,0.05,0.614,0.109,0.948,0.21c0.653,0.192,1.355,0.505,2.006,0.983c0.647,0.474,1.201,1.088,1.597,1.712
		c0.795,1.273,1.026,2.435,1.133,3.404c0.176,1.942-0.048,3.429-0.306,4.86c-0.253,1.42-0.609,2.733-0.95,4.017
		c-0.715,2.555-1.498,4.967-2.121,7.352c-0.3,1.19-0.579,2.37-0.733,3.547c-0.176,1.181-0.213,2.347-0.038,3.552l0.001,0.002
		l-0.191-0.255c0.33,0.205,0.658,0.39,0.974,0.515c0.315,0.131,0.615,0.179,0.869,0.184c0.254-0.021,0.465-0.079,0.688-0.183
		c0.223-0.104,0.466-0.288,0.711-0.489c0.499-0.434,1.002-1.023,1.527-1.636l1.601-1.959c1.092-1.356,2.316-2.702,3.694-3.947
		c1.37-1.25,2.902-2.397,4.573-3.335c0.096-0.054,0.195-0.096,0.297-0.125l0.346-0.1c2.569-0.74,5.053-1.738,7.393-2.965
		c2.329-1.235,4.534-2.695,6.4-4.367c0.93-0.829,1.765-1.727,2.414-2.614c0.652-0.86,1.077-1.818,1.095-2.224
		c0.015-0.206-0.012-0.166,0.025-0.09c0.044,0.076,0.058,0.044-0.135-0.089c-0.392-0.256-1.429-0.646-2.555-0.708
		c-0.079,0.005-0.158,0.005-0.237,0c-0.069-0.01-0.16-0.018-0.293-0.005c-0.237,0.014-0.475,0.004-0.724,0.05
		c-0.245,0.026-0.495,0.061-0.748,0.126c-0.253,0.044-0.508,0.117-0.765,0.199c-1.032,0.3-2.076,0.796-3.077,1.416
		c-2.025,1.229-3.809,3.031-5.195,5.072c-1.376,2.054-2.309,4.418-2.521,6.863c-0.229,2.448,0.364,4.941,1.604,7.197l-0.085-0.121
		c1.319,1.948,3.111,3.543,5.268,4.38c2.146,0.858,4.604,0.927,6.968,0.388c2.375-0.525,4.654-1.628,6.754-2.997
		c1.049-0.692,2.058-1.455,3.029-2.267c0.486-0.406,0.951-0.839,1.416-1.271l0.701-0.671c0.203-0.215,0.405-0.413,0.612-0.65
		c1.647-1.828,3.039-3.971,4.373-6.22c0.675-1.122,1.358-2.265,2.108-3.405c0.763-1.133,1.552-2.294,2.554-3.391
		c0.985-1.093,2.218-2.14,3.745-2.851c0.383-0.17,0.771-0.347,1.181-0.466l0.306-0.096l0.076-0.023l0.039-0.012l0.019-0.006
		l0.086-0.019l0.119-0.03l0.479-0.121c0.563-0.158,1.487-0.324,2.235-0.401c1.543-0.131,3.293-0.192,5.17,0.634
		c0.92,0.402,1.835,1.038,2.556,1.861c0.724,0.822,1.233,1.79,1.563,2.777l0.119,0.356c0.545,1.629-0.334,3.393-1.964,3.938
		s-3.393-0.335-3.938-1.965c-0.092-0.274-0.144-0.567-0.157-0.843c-0.026-0.57-0.119-0.965-0.61-1.337
		c-0.473-0.391-1.446-0.643-2.501-0.666c-0.271-0.022-0.52-0.002-0.777,0.002c-0.135,0.006-0.243-0.003-0.402,0.014l-0.49,0.056
		l-0.489,0.057l-0.123,0.014c-0.021,0.004,0.12-0.024,0.056-0.012l-0.011,0.002l-0.021,0.004l-0.042,0.007l-0.171,0.028
		c-0.23,0.027-0.455,0.096-0.683,0.162c-0.9,0.302-1.804,0.872-2.656,1.643c-1.736,1.532-3.182,3.698-4.699,5.833
		c-1.535,2.138-3.043,4.408-5.007,6.403c-0.234,0.249-0.509,0.503-0.77,0.752l-0.748,0.661c-0.512,0.444-1.031,0.88-1.562,1.304
		c-1.055,0.855-2.155,1.661-3.309,2.398c-2.298,1.48-4.819,2.698-7.564,3.374c-1.37,0.338-2.796,0.51-4.241,0.51
		c-1.446,0.006-2.905-0.255-4.309-0.693c-2.824-0.895-5.266-2.767-7.125-4.975l-0.085-0.121c-1.854-2.609-3.017-5.851-3.15-9.186
		c-0.139-3.338,0.713-6.651,2.195-9.594c1.482-2.957,3.641-5.554,6.34-7.636c1.362-1.028,2.888-1.901,4.583-2.542
		c0.424-0.159,0.855-0.305,1.308-0.418c0.44-0.132,0.899-0.229,1.368-0.308c0.459-0.099,0.944-0.134,1.425-0.178
		c0.45-0.059,1.094-0.024,1.632-0.009c0.16,0.005,0.247,0.015,0.331,0.024l0.27,0.029l0.269,0.029l0.135,0.015l0.324,0.045
		c0.45,0.078,0.907,0.171,1.377,0.294c0.938,0.254,1.939,0.605,2.967,1.255c1.015,0.643,2.105,1.655,2.759,3.048
		c0.67,1.379,0.786,2.917,0.597,4.134c-0.401,2.471-1.482,4.092-2.54,5.528c-1.095,1.411-2.312,2.565-3.569,3.612
		c-1.258,1.045-2.592,1.938-3.953,2.752c-1.363,0.811-2.771,1.52-4.212,2.132c-2.875,1.237-5.887,2.111-8.953,2.598l0.642-0.225
		c-1.377,0.592-2.735,1.284-4.031,2.161c-1.304,0.862-2.537,1.892-3.834,2.966l-1.993,1.679c-0.697,0.573-1.459,1.142-2.393,1.636
		c-0.482,0.237-0.998,0.463-1.604,0.574c-0.602,0.113-1.256,0.098-1.844-0.067c-0.579-0.179-1.079-0.453-1.49-0.769
		c-0.418-0.311-0.753-0.666-1.064-1.022l-0.137-0.157c-0.025-0.029-0.044-0.063-0.055-0.098l-0.001-0.003
		c-0.983-1.155-1.563-2.603-1.95-4.028c-0.362-1.438-0.53-2.889-0.58-4.306c-0.058-1.419-0.006-2.811,0.094-4.17
		c0.09-1.362,0.251-2.688,0.392-3.983c0.164-1.289,0.306-2.551,0.42-3.728c0.094-1.159,0.145-2.307,0.021-2.975
		c-0.057-0.323-0.145-0.473-0.064-0.306c0.069,0.167,0.47,0.436,0.509,0.418c0.021,0,0.006-0.001-0.01-0.008
		c-0.013-0.008,0.013,0.004,0.018-0.001c-0.014,0,0.081-0.009-0.045-0.012l-0.246-0.011l-0.062-0.003h-0.015
		c0.248,0.004,0.063,0.001,0.117,0.002l-0.016,0.001l-0.064,0.002c-0.085,0.006-0.173-0.005-0.256,0.007
		c-0.338,0.018-0.663,0.083-0.995,0.196c-1.33,0.387-2.887,1.733-4.205,3.53c-1.351,1.782-2.514,3.935-3.593,6.167
		c-1.063,2.247-2.044,4.604-2.977,7.01c-0.938,2.403-1.831,4.871-2.739,7.348l-0.1,0.272c-0.1,0.272-0.401,0.412-0.674,0.313
		c-0.061-0.022-0.115-0.056-0.161-0.095l-0.001-0.001c-0.773-0.199-1.484-0.711-2.025-1.307c-0.536-0.611-0.925-1.294-1.245-1.978
		c-0.632-1.377-0.954-2.777-1.21-4.146c-0.24-1.374-0.378-2.725-0.476-4.06c-0.086-1.332-0.151-2.647-0.175-3.937l-0.093-3.783
		c-0.044-1.222-0.082-2.416-0.22-3.473c-0.056-0.524-0.137-1.015-0.239-1.4c-0.095-0.379-0.242-0.678-0.259-0.657
		c-0.007,0.001,0.028,0.084,0.16,0.231c0.126,0.139,0.355,0.297,0.574,0.38c0.102,0.048,0.165,0.065,0.383,0.105
		c0.047,0.007,0.093,0.01,0.14,0.01c0.038,0.001,0.034,0,0.002-0.001l-0.06-0.001l-0.241-0.007c-0.106,0,0.862-0.002,0.451-0.001
		l-0.002,0.001l-0.006,0.002l-0.01,0.003l-0.021,0.004c-0.014,0.004-0.026-0.003-0.041,0.005c-0.03,0.016-0.058,0.007-0.092,0.024
		c-0.256,0.062-0.78,0.381-1.388,0.963c-0.603,0.58-1.221,1.389-1.823,2.277c-1.184,1.804-2.289,3.92-3.298,6.116
		c-1.029,2.196-1.989,4.488-2.952,6.81l-1.453,3.506c-0.485,1.17-0.975,2.371-1.487,3.521l0,0l-0.001,0.009
		c-0.153,0.903-1.011,1.513-1.915,1.359c-0.401-0.068-0.746-0.277-0.99-0.565c-0.804-0.95-1.206-1.897-1.55-2.814
		c-0.331-0.92-0.563-1.826-0.756-2.729c-0.375-1.802-0.582-3.585-0.72-5.365c-0.253-3.559-0.226-7.097,0.072-10.649
		c0.158-1.789,0.372-3.533,0.767-5.395c0.198-0.896,0.412-1.71,0.629-2.569l0.687-2.549c0.254-0.873,0.468-1.66,0.844-2.661
		l0.104-0.247c0.02-0.044,0.053-0.112,0.104-0.207c0.008-0.018,0.096-0.163,0.147-0.232c0.003-0.005,0.033-0.05,0.118-0.148
		c0.067-0.078,0.142-0.152,0.221-0.221c0.2-0.117-0.144,0.003,0.641-0.375c0.647-0.29,1.585-0.009,1.826,0.209
		c0.343,0.216,0.666,0.617,0.802,1.003c0.131,0.407,0.063,0.224,0.1,0.366c0.023,0.115,0.035,0.304,0.034,0.361
		c0.001,0.077-0.003,0.176-0.009,0.235l-0.024,0.213l-0.045,0.261c-0.058,0.288-0.112,0.51-0.17,0.742l-0.356,1.317
		c-0.493,1.714-1.032,3.377-1.592,5.036c-0.09,0.268-0.23,0.503-0.407,0.7l-0.02,0.021l0,0c-1.579,1.446-3.357,2.626-5.24,3.473
		c-1.872,0.874-3.848,1.39-5.808,1.725c-1.968,0.314-3.94,0.382-5.889,0.321c-1.951-0.066-3.874-0.353-5.773-0.709
		c-1.898-0.373-3.766-0.896-5.578-1.595c-1.815-0.705-3.597-1.488-5.23-2.848c-0.399-0.361-0.805-0.757-1.116-1.379
		c-0.147-0.313-0.274-0.714-0.229-1.179c0.034-0.464,0.277-0.905,0.543-1.184c0.551-0.562,1.107-0.773,1.628-0.961
		c0.524-0.176,1.033-0.281,1.536-0.363c1-0.154,1.989-0.241,2.963-0.27c1.011-0.028,2.04,0.019,3.065,0.192
		c2.049,0.331,4.094,1.164,5.824,2.48c1.729,1.318,3.112,3.07,4.116,4.983c1.006,1.921,1.629,4.012,1.939,6.145
		c0.321,2.138,0.25,4.322-0.105,6.486c-0.372,2.162-1.115,4.301-2.27,6.287c-1.154,1.979-2.754,3.805-4.754,5.17
		c-1.986,1.375-4.353,2.25-6.698,2.514c-2.352,0.299-4.653,0.031-6.762-0.525l-0.288-0.076c-0.124-0.033-0.25-0.082-0.36-0.138
		c-1.897-0.965-3.686-2.316-5.155-3.982c-1.461-1.68-2.499-3.712-3.053-5.771c-1.083-4.175-0.44-8.205,0.653-11.821
		c0.559-1.822,1.255-3.571,2.062-5.266c0.411-0.844,0.847-1.673,1.335-2.489c0.254-0.411,0.497-0.803,0.854-1.227
		c0.048-0.055,0.097-0.11,0.162-0.174c0.071-0.062,0.118-0.13,0.337-0.245c0.034-0.021,0.169-0.071,0.287-0.08
		c0.186-0.017,0.423,0.04,0.595,0.211c0.265,0.303,0.218,0.464,0.238,0.543c0.007,0.184-0.015,0.253-0.029,0.344
		c-0.068,0.313-0.154,0.527-0.242,0.761c-0.178,0.451-0.373,0.876-0.573,1.293c-0.168,0.357-0.356,0.826-0.527,1.236
		c-0.338,0.853-0.738,1.68-1.081,2.532c-0.753,1.675-1.501,3.354-2.31,5.019c-1.623,3.324-3.52,6.559-5.925,9.55
		c-1.183,1.513-2.478,2.988-3.965,4.367c-1.479,1.382-3.211,2.623-5.229,3.53c-2.018,0.882-4.37,1.392-6.805,1.137
		c-2.428-0.235-4.854-1.252-6.798-2.822c-1.961-1.563-3.396-3.658-4.268-5.848c-0.889-2.197-1.243-4.492-1.227-6.7
		c0.056-4.433,1.425-8.492,3.307-12.06c0.479-0.893,0.993-1.755,1.53-2.597l0.864-1.284l0.816-1.121
		c1.316-1.79,2.867-3.3,4.591-4.553c1.723-1.249,3.575-2.25,5.556-3.002c0.996-0.375,2.016-0.688,3.152-0.909
		c0.584-0.105,1.155-0.199,1.961-0.2c0.204,0.001,0.421,0.008,0.709,0.043c0.136,0.017,0.28,0.036,0.482,0.082
		c0.101,0.024,0.168,0.037,0.293,0.076c0.131,0.04,0.26,0.086,0.387,0.138c0.096,0.034,0.334,0.151,0.505,0.259
		c0.091,0.056,0.181,0.114,0.266,0.177c0.111,0.082,0.252,0.204,0.366,0.319c0.424,0.353,0.979,1.384,0.964,2.145
		c0.011,0.206,0.004,0.413-0.02,0.611c-0.021,0.143-0.049,0.275-0.085,0.412c-0.066,0.265-0.193,0.569-0.256,0.677
		c-0.078,0.152-0.167,0.3-0.262,0.441c-0.076,0.108-0.136,0.18-0.208,0.269c-0.543,0.617-0.86,0.79-1.18,1.017
		c-0.301,0.192-0.576,0.348-0.838,0.482c-0.522,0.271-1.004,0.479-1.48,0.674c-0.952,0.388-1.87,0.701-2.787,0.993
		c-1.827,0.579-3.644,1.059-5.45,1.5l-0.63,0.156c-0.167,0.049-0.34,0.078-0.504,0.14c-0.335,0.104-0.665,0.229-0.992,0.373
		c-0.653,0.288-1.292,0.659-1.909,1.1c-1.238,0.878-2.381,2.039-3.428,3.339c-2.102,2.61-3.836,5.718-5.519,8.897
		c-1.707,3.182-3.263,6.512-5.434,9.712c-1.119,1.572-2.505,3.107-4.444,4.16c-0.965,0.512-2.1,0.854-3.234,0.853
		c-1.136,0.023-2.207-0.279-3.164-0.676c-0.065-0.027-0.126-0.062-0.18-0.102l-0.048-0.036c-2.078-1.554-3.183-3.858-3.867-6.052
		c-0.675-2.23-1.01-4.486-1.189-6.729c-0.322-4.49-0.107-8.941,0.339-13.35c0.95-8.814,2.764-17.482,5.475-25.958
		c1.427-4.25,2.882-8.389,5.386-12.621c0.329-0.537,0.685-1.081,1.122-1.651c0.227-0.289,0.462-0.579,0.764-0.894
		c0.297-0.309,0.638-0.641,1.17-1.005c0.531-0.331,1.283-0.837,2.701-0.873c0.707,0.001,1.507,0.21,2.095,0.563
		c0.329,0.181,0.526,0.351,0.771,0.556c0.208,0.189,0.363,0.365,0.53,0.563c0.558,0.722,0.748,1.25,0.928,1.725
		c0.172,0.481,0.258,0.868,0.343,1.259c0.284,1.489,0.309,2.687,0.328,3.898c0.009,1.193-0.038,2.363-0.108,3.48
		c-0.587,8.991-2.665,17.915-6.282,26.166c-3.613,8.235-8.648,15.891-15.238,22.044c-3.284,3.092-7.063,5.634-11.169,7.657
		c-4.083,2.02-8.891,3.199-13.758,2.386l-0.945-0.184l-0.792-0.188l-0.934-0.287c-0.296-0.086-0.589-0.182-0.876-0.302
		c-1.17-0.411-2.274-1.011-3.345-1.668c-2.112-1.369-3.948-3.214-5.307-5.393c-2.741-4.351-3.396-9.997-1.802-14.961
		c0.365-1.254,0.914-2.433,1.5-3.588c0.636-1.121,1.337-2.213,2.152-3.196c0.79-1.009,1.683-1.914,2.609-2.77
		c0.456-0.44,0.957-0.812,1.442-1.21c0.5-0.392,1.064-0.768,1.601-1.146c0.504-0.334,0.933-0.587,1.402-0.885l0.087-0.054
		l0.199-0.114l0.229-0.121l0.459-0.24c0.306-0.16,0.612-0.319,0.945-0.449c1.277-0.578,2.71-0.972,4.208-1.125
		c2.976-0.336,6.396,0.44,8.944,2.688c1.273,1.1,2.279,2.552,2.876,4.151c0.592,1.602,0.767,3.334,0.551,4.936
		c-0.204,1.606-0.752,3.087-1.478,4.354c-0.748,1.252-1.63,2.343-2.587,3.27c-0.955,0.928-1.992,1.701-3.043,2.371
		c-0.533,0.326-1.042,0.66-1.624,0.95c-0.564,0.3-1.146,0.61-1.618,0.798c-2.121,0.979-4.524,1.756-6.962,2.079
		c-2.451,0.317-4.99,0.178-7.349-0.515c-2.353-0.693-4.517-1.837-6.354-3.294c-3.714-2.898-6.353-6.65-8.604-10.485
		c-2.207-3.874-3.966-7.943-5.43-12.128c-0.357-1.075-0.679-2.169-0.909-3.298c-0.25-1.124-0.433-2.277-0.492-3.467
		c-0.071-1.188-0.038-2.417,0.243-3.686c0.305-1.246,0.776-2.63,2.179-3.766c0.694-0.544,1.776-0.961,2.871-0.789
		c1.089,0.149,1.956,0.747,2.532,1.358c0.586,0.624,0.963,1.264,1.297,2.01l0.158,0.375l0.04,0.095
		c0.008,0.012,0.076,0.219,0.063,0.18l0.067,0.202l0.271,0.81c0.682,2.171,1.258,4.379,1.664,6.622
		c0.804,4.484,1.093,9.069,0.827,13.65c-0.255,4.582-1.061,9.159-2.494,13.626c-1.481,4.44-3.545,8.825-6.787,12.69
		c-1.606,1.936-3.531,3.736-5.868,5.148c-2.343,1.423-5.009,2.438-8.051,2.677c-0.463,0.037-0.701,0.035-0.969,0.042l-0.204,0.004
		c-0.273,0.005-0.158-0.002-0.257-0.002l-0.144-0.006l-0.576-0.027c-0.381-0.01-0.771-0.059-1.162-0.119
		c-0.389-0.05-0.778-0.117-1.168-0.221c-1.557-0.36-3.079-1.035-4.382-1.923c-2.641-1.804-4.283-4.241-5.464-6.553
		c-1.186-2.342-1.894-4.699-2.453-7.015c-0.553-2.317-0.883-4.619-1.12-6.896c-0.465-4.558-0.472-9.045-0.28-13.488
		c0.483-8.888,1.695-17.589,3.821-26.167v0c0.033-0.783,0.694-1.391,1.477-1.358c0.724,0.03,1.297,0.597,1.354,1.301l0.026,0.322
		c0.24,2.928,0.298,5.871,0.23,8.815c-0.064,2.945-0.293,5.886-0.594,8.828c-0.699,5.867-1.79,11.725-3.533,17.473
		c-0.863,2.876-1.884,5.725-3.105,8.534c-1.219,2.812-2.658,5.57-4.425,8.255c-1.809,2.651-3.911,5.284-6.91,7.475
		c-1.495,1.082-3.256,2.036-5.271,2.626c-0.508,0.138-1.021,0.268-1.553,0.354l-0.4,0.068l-0.472,0.054
		c-0.304,0.032-0.687,0.065-0.807,0.065c-0.973,0.058-1.99-0.012-3.018-0.15c-2.062-0.295-4.197-1.094-5.983-2.334
		c-1.793-1.235-3.185-2.817-4.225-4.432c-2.052-3.259-2.99-6.56-3.591-9.73c-0.593-3.181-0.812-6.282-0.851-9.337
		c-0.051-3.054,0.107-6.061,0.358-9.034c0.272-2.972,0.626-5.914,1.116-8.825c0.486-2.91,1.018-5.801,1.65-8.664
		c0.658-2.858,1.329-5.705,2.127-8.518c0.781-2.81,1.634-5.62,2.587-8.362l0.003-0.009c0.42-1.209,1.741-1.848,2.949-1.428
		C12.607,7.522,13.228,8.582,13.083,9.652z"/>
</g>
</svg>
