<?xml version="1.0" encoding="utf-8"?>
<!-- Generator: Adobe Illustrator 16.0.0, SVG Export Plug-In . SVG Version: 6.00 Build 0)  -->
<!DOCTYPE svg PUBLIC "-//W3C//DTD SVG 1.1//EN" "http://www.w3.org/Graphics/SVG/1.1/DTD/svg11.dtd">
<svg version="1.1" id="圖層_1" xmlns="http://www.w3.org/2000/svg" xmlns:xlink="http://www.w3.org/1999/xlink" x="0px" y="0px"
	 width="70.75px" height="70.75px" viewBox="0 0 70.75 70.75" enable-background="new 0 0 70.75 70.75" xml:space="preserve">
<circle fill="#D1D1D1" cx="35.375" cy="35.375" r="35.202"/>
<linearGradient id="SVGID_1_" gradientUnits="userSpaceOnUse" x1="35.5791" y1="20.3564" x2="34.9121" y2="59.5234">
	<stop  offset="0" style="stop-color:#58432E"/>
	<stop  offset="1" style="stop-color:#836540"/>
</linearGradient>
<path fill="url(#SVGID_1_)" d="M60.999,30.282c0-17.645-14.277-25.765-25.576-25.787V4.494c-0.006,0-0.012,0-0.018,0
	s-0.012,0-0.018,0v0.001C24.089,4.517,9.812,12.637,9.812,30.282c0,18.546,6.182,28.612,8.479,30.908c0,0-0.392,0.18,0-2.472
	c0,0,3.533,6.711,8.655,6.535c4.24-0.146,12.68-0.146,16.92,0c5.122,0.176,8.655-6.535,8.655-6.535c0.392,2.651,0,2.472,0,2.472
	C54.817,58.894,60.999,48.828,60.999,30.282z"/>
<path fill="#FBE2A8" d="M12.729,37.026c0,2.198,1.782,3.98,3.981,3.98c0.058,0,0.104-0.015,0.159-0.017
	c-1.445-2.635-0.937-5.27-1.484-7.903C13.479,33.289,12.729,34.964,12.729,37.026z"/>
<path fill="#ECCC87" d="M19.744,37.026c0-2.198-1.782-3.98-3.98-3.98c-0.137,0-0.253,0.027-0.379,0.041
	c0.548,2.634,0.039,5.269,1.484,7.903C18.94,40.9,19.744,39.167,19.744,37.026z"/>
<path fill="#ECCC87" d="M55.617,33.095c-0.154-0.021-0.3-0.05-0.47-0.05c-2.198,0-3.98,1.782-3.98,3.98s0.836,3.98,3.034,3.98
	c0.05,0,0.096-0.013,0.144-0.015C54.546,38.36,55.969,35.727,55.617,33.095z"/>
<path fill="#FBE2A8" d="M58.183,37.026c0-2.028-0.728-3.685-2.565-3.931c0.352,2.632-1.071,5.265-1.272,7.896
	C56.476,40.915,58.183,39.175,58.183,37.026z"/>
<path fill="#ECCC87" d="M47.72,61.125c-0.24-0.548-0.448-1.031-0.595-1.388c-1.12,1.001-0.589,1.345-2.74,2.47
	c0,0,0.204,0.822,0.461,1.992C45.959,63.353,46.978,62.265,47.72,61.125z"/>
<path fill="#FBE2A8" d="M50.255,67.287c0.024-0.307-1.533-3.872-2.535-6.162c-0.742,1.141-1.761,2.229-2.874,3.074
	c0.305,1.384,0.684,3.255,0.89,4.848C47.655,68.466,48.495,68.167,50.255,67.287z"/>
<path fill="#ECCC87" d="M25.813,63.186c0.14-0.604,0.232-0.979,0.232-0.979c-1.942-1.051-1.22-1.005-2.42-1.875
	c-0.101,0.256-0.238,0.578-0.396,0.935C23.659,62.024,25.08,62.416,25.813,63.186z"/>
<path fill="#FBE2A8" d="M23.229,61.266c-0.938,2.121-2.722,5.713-2.695,6.038c1.64,0.82,2.401,1.053,4.172,1.622
	c0.273-2.009,0.802-4.422,1.107-5.74C25.08,62.416,23.659,62.024,23.229,61.266z"/>
<path fill="#5760AA" d="M43.277,52.515c-2.032-1.696-4.583-2.688-7.853-2.688c-2.773,0-5.036,0.721-6.906,1.971
	C33.647,54.051,38.124,54.069,43.277,52.515z"/>
<path fill="#8085C0" d="M43.277,52.515c-5.153,1.554-9.63,1.536-14.759-0.718c-2.674,1.788-2.706,3.785-5.894,8.159
	c1.098,1.118,1.567,1.25,3.42,2.25c0,0-0.233,0.94-0.517,2.246c-0.286,1.315-0.623,3.003-0.823,4.474
	c1.748,0.554,3.557,0.97,5.41,1.248c1.732,0.261,3.503,0.402,5.31,0.402c2.436,0,4.805-0.263,7.1-0.732
	c1.087-0.223,2.163-0.477,3.211-0.798c-0.19-1.469-0.527-3.178-0.817-4.521s-0.533-2.319-0.533-2.319
	c2.188-0.662,3.178-1.442,3.74-2.47v-0.011C45.422,56.126,45.379,54.268,43.277,52.515z"/>
<path fill="#B08DBF" d="M32.465,51.537c0-0.061,0-0.12,0.01-0.18c-0.55-0.07-1.09-0.15-1.62-0.261c-0.01,0.141-0.02,0.29-0.02,0.44
	c0,0.438,0.08,0.852,0.194,1.252c0.538,0.282,1.143,0.374,1.938,0.403C32.65,52.72,32.465,52.151,32.465,51.537z"/>
<path fill="#C4A3CC" d="M37.724,53.374c-0.54,0.68-1.363,1.123-2.299,1.123c-1.025,0-1.926-0.517-2.457-1.305
	c-0.796-0.029-1.4-0.121-1.938-0.403c0.548,1.925,2.301,3.338,4.396,3.338c1.94,0,3.589-1.21,4.257-2.918
	C38.883,53.212,38.258,53.243,37.724,53.374z"/>
<path fill="#B08DBF" d="M40.005,51.537c0-0.15-0.01-0.3-0.02-0.44c-0.53,0.11-1.07,0.19-1.62,0.261c0.01,0.06,0.01,0.119,0.01,0.18
	c0,0.699-0.25,1.331-0.651,1.837c0.563,0,1.078,0.151,1.896-0.014C39.821,52.84,40.005,52.128,40.005,51.537z"/>
<path fill="#AED9E4" d="M35.42,58.207c-0.44,0-0.798,0.357-0.798,0.798c0,0.441,0.357,0.798,0.798,0.798
	c0.029,0,0.055-0.014,0.084-0.017c0.336-0.291,0.527-0.696,0.627-1.128C36.001,58.393,35.734,58.207,35.42,58.207z"/>
<path fill="#57929F" d="M35.504,59.786c0.398-0.044,0.714-0.37,0.714-0.781c0-0.126-0.035-0.24-0.087-0.347
	C36.031,59.089,35.84,59.495,35.504,59.786z"/>
<path fill="#AED9E4" d="M35.42,61.433c-0.44,0-0.798,0.357-0.798,0.798c0,0.441,0.357,0.798,0.798,0.798
	c0.029,0,0.055-0.014,0.084-0.017c0.336-0.291,0.527-0.696,0.627-1.128C36.001,61.62,35.734,61.433,35.42,61.433z"/>
<path fill="#57929F" d="M35.504,63.012c0.398-0.044,0.714-0.37,0.714-0.781c0-0.126-0.035-0.24-0.087-0.347
	C36.031,62.316,35.84,62.721,35.504,63.012z"/>
<path fill="#ECCC87" d="M37.724,53.374c0.409-0.354,0.734-1.37,0.651-1.837c-0.011-0.06,0-0.12-0.01-0.18
	c-0.95,0.119-1.931,0.18-2.94,0.18s-2-0.061-2.95-0.18c-0.01,0.06,0.007,0.121-0.01,0.18c-0.101,0.357,0.19,1.342,0.503,1.655
	C34.584,54.429,35.981,54.067,37.724,53.374z"/>
<path fill="#FBE2A8" d="M32.968,53.192c0.771,1.015,1.568,1.305,2.457,1.305c1.018,0,1.674-0.488,2.299-1.123
	C36.036,53.582,33.958,53.3,32.968,53.192z"/>
<path fill="#FBE2A8" d="M30.378,27.085c-1.813,0.099-1.756-4.693-3.631-4.317c-1.792,0.358-1.621,5.224-3.688,5.503
	c-1.835,0.248-4.304,0.842-6.189,1.511c-0.536,1.487-0.698,2.454-0.698,4.565c0,9.517,5.796,15.98,14.412,17.718
	c0.562,0.117,1.134,0.202,1.717,0.276c1.007,0.127,2.056,0.19,3.126,0.19s2.109-0.063,3.116-0.19
	c0.583-0.074,1.155-0.159,1.717-0.276c8.616-1.727,14.412-8.19,14.412-17.718c0-2.004-0.09-3.126-0.575-4.565
	C50.242,28.269,33.88,26.894,30.378,27.085z"/>
<g>
	<path fill="#332D2B" d="M33.312,46.031c0,0.005,0.027,0.073,0.095,0.212c0.063,0.136,0.181,0.317,0.343,0.502
		c0.162,0.188,0.396,0.351,0.668,0.468c0.272,0.12,0.6,0.174,0.936,0.17c0.147-0.004,0.373-0.007,0.498-0.036
		c0.146-0.022,0.307-0.066,0.439-0.127c0.271-0.116,0.505-0.277,0.664-0.466c0.33-0.372,0.429-0.735,0.43-0.717
		c0.012-0.081,0.088-0.138,0.17-0.125c0.081,0.012,0.138,0.088,0.125,0.17c0.001,0,0.014,0.431-0.327,0.97
		c-0.174,0.259-0.442,0.544-0.809,0.717c-0.182,0.091-0.372,0.153-0.584,0.196c-0.234,0.051-0.384,0.057-0.608,0.069
		c-0.408-0.011-0.83-0.094-1.19-0.271c-0.364-0.175-0.634-0.457-0.81-0.713c-0.345-0.533-0.342-0.963-0.342-0.963
		c-0.001-0.086,0.067-0.157,0.153-0.159C33.229,45.927,33.288,45.972,33.312,46.031z"/>
</g>
<g>
	<path fill="#E2BD7A" d="M36.23,40.694c0,0-0.069-0.143-0.23-0.28c-0.078-0.069-0.18-0.12-0.291-0.16
		c-0.111-0.043-0.245-0.045-0.38-0.047l-0.214,0.022c-0.083,0.007-0.105,0.04-0.163,0.052c-0.098,0.042-0.198,0.102-0.268,0.173
		c-0.146,0.142-0.205,0.295-0.202,0.286c-0.018,0.045-0.068,0.068-0.114,0.051c-0.031-0.013-0.052-0.041-0.056-0.072
		c-0.001,0-0.028-0.192,0.107-0.453c0.078-0.12,0.184-0.263,0.359-0.352c0.086-0.035,0.2-0.091,0.276-0.101l0.264-0.042
		c0.189,0.017,0.377,0.042,0.547,0.125c0.168,0.08,0.283,0.217,0.364,0.332c0.144,0.245,0.122,0.445,0.127,0.437
		c0.008,0.034-0.014,0.069-0.049,0.078C36.274,40.75,36.239,40.729,36.23,40.694z"/>
</g>
<ellipse fill="#332D2B" cx="25.415" cy="36.475" rx="1.369" ry="1.77"/>
<ellipse fill="#332D2B" cx="45.831" cy="36.475" rx="1.368" ry="1.77"/>
<ellipse fill="#F6B595" cx="24.071" cy="43.832" rx="2.184" ry="1.526"/>
<ellipse fill="#F6B595" cx="47.051" cy="43.832" rx="2.184" ry="1.526"/>
<ellipse fill="#F6B595" cx="23.922" cy="42.784" rx="0.598" ry="0.253"/>
<g>
	<linearGradient id="SVGID_2_" gradientUnits="userSpaceOnUse" x1="21.4521" y1="31.0498" x2="27.3779" y2="31.0498">
		<stop  offset="0" style="stop-color:#836540"/>
		<stop  offset="1" style="stop-color:#58432E"/>
	</linearGradient>
	<path fill="url(#SVGID_2_)" d="M26.813,31.328c0,0-0.078-0.014-0.216-0.039c-0.137-0.025-0.338-0.066-0.551-0.083
		c-0.427-0.063-1.063-0.077-1.673-0.06c-0.303,0.026-0.615,0.039-0.892,0.092c-0.279,0.05-0.541,0.098-0.741,0.182
		c-0.222,0.058-0.364,0.151-0.463,0.218c-0.104,0.063-0.164,0.098-0.164,0.098l-0.067,0.041c-0.105,0.063-0.242,0.029-0.305-0.077
		c-0.058-0.097-0.034-0.22,0.052-0.288c0,0,0.07-0.057,0.193-0.155c0.123-0.105,0.305-0.244,0.543-0.335
		c0.233-0.125,0.513-0.209,0.815-0.297c0.302-0.091,0.628-0.14,0.955-0.203c0.659-0.088,1.3-0.145,1.827-0.126
		c0.266-0.004,0.459,0.016,0.598,0.026c0.14,0.01,0.219,0.016,0.219,0.016c0.275,0.02,0.483,0.26,0.463,0.536
		c-0.021,0.276-0.26,0.483-0.536,0.463C26.853,31.334,26.83,31.332,26.813,31.328z"/>
</g>
<g>
	<linearGradient id="SVGID_3_" gradientUnits="userSpaceOnUse" x1="43.8125" y1="31.0083" x2="49.8486" y2="31.0083">
		<stop  offset="0" style="stop-color:#58432E"/>
		<stop  offset="1" style="stop-color:#836540"/>
	</linearGradient>
	<path fill="url(#SVGID_3_)" d="M44.24,30.332c0,0,0.081-0.006,0.224-0.017c0.15-0.009,0.388-0.019,0.637-0.013
		c0.512,0.007,1.179,0.063,1.84,0.173c0.661,0.106,1.315,0.278,1.788,0.488c0.237,0.101,0.426,0.226,0.551,0.323
		c0.12,0.114,0.183,0.185,0.183,0.185c0.054,0.061,0.048,0.154-0.013,0.208c-0.054,0.047-0.132,0.048-0.188,0.007l-0.026-0.021
		c0,0-0.055-0.042-0.15-0.114c-0.11-0.063-0.275-0.144-0.499-0.206c-0.443-0.129-1.075-0.209-1.709-0.224
		c-0.635-0.019-1.271,0.014-1.734,0.07c-0.239,0.028-0.406,0.058-0.538,0.083c-0.14,0.03-0.22,0.047-0.22,0.047
		c-0.27,0.059-0.537-0.112-0.597-0.382c-0.059-0.271,0.112-0.538,0.383-0.597C44.192,30.337,44.219,30.334,44.24,30.332z"/>
</g>
<ellipse fill="#F6B595" cx="47.052" cy="42.784" rx="0.598" ry="0.253"/>
<ellipse fill="#FFFEFE" cx="25.415" cy="35.708" rx="0.441" ry="0.487"/>
<ellipse fill="#FFFEFE" cx="45.831" cy="35.708" rx="0.441" ry="0.487"/>
</svg>
